<?xml version="1.0" encoding="UTF-8"?> <!-- Creator: CorelDRAW 2017 --> <svg xmlns="http://www.w3.org/2000/svg" xmlns:xlink="http://www.w3.org/1999/xlink" xml:space="preserve" width="75mm" height="25mm" style="shape-rendering:geometricPrecision; text-rendering:geometricPrecision; image-rendering:optimizeQuality; fill-rule:evenodd; clip-rule:evenodd" viewBox="0 0 7500 2500"> <defs> <style type="text/css"> <![CDATA[ .str0 {stroke:#D3513C;stroke-width:7.62;stroke-miterlimit:22.9256} .fil44 {fill:none;fill-rule:nonzero} .fil23 {fill:#34AFAF} .fil27 {fill:#3AB1B3} .fil24 {fill:#93D1C8} .fil31 {fill:#B11C2A} .fil26 {fill:#CCCCCC} .fil30 {fill:#D13F38} .fil25 {fill:#E6E6E6} .fil28 {fill:#F9D844} .fil29 {fill:#FBE479} .fil45 {fill:#FEFEFE;fill-rule:nonzero} .fil41 {fill:#28282A;fill-rule:nonzero} .fil20 {fill:#373435;fill-rule:nonzero} .fil40 {fill:#3F3F41;fill-rule:nonzero} .fil17 {fill:#45B653;fill-rule:nonzero} .fil39 {fill:#565659;fill-rule:nonzero} .fil21 {fill:#606062;fill-rule:nonzero} .fil16 {fill:#90C74A;fill-rule:nonzero} .fil15 {fill:#9A8368;fill-rule:nonzero} .fil43 {fill:#B16D28;fill-rule:nonzero} .fil7 {fill:#B1D665;fill-rule:nonzero} .fil22 {fill:#B32D30;fill-rule:nonzero} .fil13 {fill:#B39777;fill-rule:nonzero} .fil1 {fill:#B73225;fill-rule:nonzero} .fil14 {fill:#BEBFC1;fill-rule:nonzero} .fil42 {fill:#C38548;fill-rule:nonzero} .fil12 {fill:#C7AB82;fill-rule:nonzero} .fil34 {fill:#D0D2D3;fill-rule:nonzero} .fil0 {fill:#D3513C;fill-rule:nonzero} .fil10 {fill:#D83135;fill-rule:nonzero} .fil3 {fill:#DDAF2F;fill-rule:nonzero} .fil18 {fill:#E7E8E8;fill-rule:nonzero} .fil5 {fill:#EBB82D;fill-rule:nonzero} .fil11 {fill:#ED3237;fill-rule:nonzero} .fil2 {fill:#F5CB3B;fill-rule:nonzero} .fil19 {fill:#F79733;fill-rule:nonzero} .fil8 {fill:#FDBA2D;fill-rule:nonzero} .fil6 {fill:#FFCC29;fill-rule:nonzero} .fil9 {fill:#FFD525;fill-rule:nonzero} .fil4 {fill:#FFF688;fill-rule:nonzero} .fil32 {fill:url(#id0)} .fil38 {fill:url(#id1)} .fil33 {fill:url(#id2)} .fil36 {fill:url(#id3)} .fil37 {fill:url(#id4)} .fil35 {fill:url(#id5)} ]]> </style> <linearGradient id="id0" gradientUnits="userSpaceOnUse" x1="664.38" y1="786.71" x2="683.29" y2="805.62"> <stop offset="0" style="stop-opacity:1; stop-color:#F1DD9B"></stop> <stop offset="0.278431" style="stop-opacity:1; stop-color:#EBC167"></stop> <stop offset="1" style="stop-opacity:1; stop-color:#E5A533"></stop> </linearGradient> <linearGradient id="id1" gradientUnits="userSpaceOnUse" x1="739.32" y1="691.29" x2="717.72" y2="714.07"> <stop offset="0" style="stop-opacity:1; stop-color:#C7C7C1"></stop> <stop offset="0.0117647" style="stop-opacity:1; stop-color:#FFFDEE"></stop> <stop offset="0.780392" style="stop-opacity:1; stop-color:#8E9093"></stop> <stop offset="1" style="stop-opacity:1; stop-color:#8E9093"></stop> </linearGradient> <linearGradient id="id2" gradientUnits="userSpaceOnUse" x1="763.06" y1="697.55" x2="721.71" y2="736.52"> <stop offset="0" style="stop-opacity:1; stop-color:#EDEBE1"></stop> <stop offset="0.0117647" style="stop-opacity:1; stop-color:#FFFDEE"></stop> <stop offset="0.74902" style="stop-opacity:1; stop-color:#D8DBE0"></stop> <stop offset="0.878431" style="stop-opacity:1; stop-color:#DAD8D4"></stop> <stop offset="1" style="stop-opacity:1; stop-color:#DAD8D4"></stop> </linearGradient> <linearGradient id="id3" gradientUnits="userSpaceOnUse" xlink:href="#id1" x1="771.29" y1="738.79" x2="786.48" y2="753.83"> </linearGradient> <linearGradient id="id4" gradientUnits="userSpaceOnUse" xlink:href="#id1" x1="781.98" y1="726" x2="761.99" y2="746"> </linearGradient> <linearGradient id="id5" gradientUnits="userSpaceOnUse" x1="773.42" y1="688.96" x2="740.68" y2="718.83"> <stop offset="0" style="stop-opacity:1; stop-color:#DCDBD2"></stop> <stop offset="0.0117647" style="stop-opacity:1; stop-color:#FFFDEE"></stop> <stop offset="0.74902" style="stop-opacity:1; stop-color:#D8DBE0"></stop> <stop offset="0.94902" style="stop-opacity:1; stop-color:#B9B8B6"></stop> <stop offset="1" style="stop-opacity:1; stop-color:#B9B8B6"></stop> </linearGradient> </defs> <g id="Слой_x0020_1"> <metadata id="CorelCorpID_0Corel-Layer"></metadata> <polygon class="fil0" points="700.04,538.52 1202.7,538.52 1202.7,982.04 676.75,982.04 "></polygon> <polygon class="fil0" points="682.21,982.04 676.89,979.21 676.75,982.04 "></polygon> <polygon class="fil1" points="678.82,982.04 676.8,980.97 676.99,977.46 685.59,982.04 "></polygon> <polygon class="fil0" points="774.07,982.04 753.96,971.34 722.49,982.04 "></polygon> <polygon class="fil1" points="770.69,982.04 753.84,973.08 727.44,982.04 717.57,982.04 754.11,969.62 777.45,982.04 "></polygon> <polygon class="fil0" points="865.94,982.04 845.83,971.34 814.35,982.04 "></polygon> <polygon class="fil1" points="862.55,982.04 845.7,973.08 819.31,982.04 809.43,982.04 845.96,969.62 869.32,982.04 "></polygon> <polygon class="fil0" points="957.81,982.04 937.69,971.34 906.22,982.04 "></polygon> <polygon class="fil1" points="954.42,982.04 937.56,973.08 911.17,982.04 901.29,982.04 937.82,969.62 961.18,982.04 "></polygon> <polygon class="fil0" points="1049.68,982.04 1029.56,971.34 998.09,982.04 "></polygon> <polygon class="fil1" points="1046.28,982.04 1029.43,973.08 1003.04,982.04 993.16,982.04 1029.69,969.62 1053.04,982.04 "></polygon> <polygon class="fil0" points="1141.54,982.04 1121.43,971.34 1089.96,982.04 "></polygon> <polygon class="fil1" points="1138.16,982.04 1121.29,973.06 1094.89,982.04 1085.02,982.04 1121.55,969.62 1144.91,982.04 "></polygon> <polygon class="fil0" points="1202.7,974.94 1181.82,982.04 1202.7,982.04 "></polygon> <polygon class="fil1" points="1202.7,976.62 1186.75,982.04 1176.89,982.04 1202.7,973.27 "></polygon> <path class="fil0" d="M734.96 982.04c5.07,-7.48 7.88,-15.7 9.19,-22.14l-36.12 -19.22 -29.64 10.07 -1.64 31.29 58.21 0z"></path> <path class="fil1" d="M732.92 982.04c5.91,-8.32 8.47,-17.19 9.43,-21.31l-34.46 -18.33 -29.59 10.06 0.18 -3.41 29.69 -10.1 37.77 20.1 -0.24 1.16c-1.51,7.47 -4.39,15.1 -8.8,21.83l-3.98 0z"></path> <path class="fil0" d="M744.15 959.63c0,0 2.86,11.42 10.31,22.41l72.37 0c5.06,-7.48 7.88,-15.7 9.18,-22.14l-36.12 -19.22 -55.74 18.95z"></path> <path class="fil1" d="M746.09 960.65c1.05,3.45 4.23,12.68 10.36,21.39l-3.8 0c-7.14,-10.87 -9.99,-21.81 -10.04,-22.03l-0.36 -1.41 57.78 -19.65 37.77 20.1 -0.23 1.16c-1.52,7.47 -4.4,15.1 -8.81,21.83l-3.97 0c5.9,-8.32 8.47,-17.19 9.42,-21.31l-34.44 -18.33 -53.68 18.25z"></path> <path class="fil0" d="M836.01 959.63c0,0 2.87,11.42 10.3,22.41l72.38 0c5.07,-7.48 7.88,-15.7 9.18,-22.14l-36.11 -19.22 -55.75 18.95z"></path> <path class="fil1" d="M837.96 960.65c1.05,3.45 4.22,12.68 10.36,21.39l-3.8 0c-7.14,-10.87 -9.99,-21.81 -10.05,-22.03l-0.36 -1.41 57.78 -19.65 37.78 20.1 -0.24 1.16c-1.51,7.47 -4.4,15.1 -8.8,21.83l-3.98 0c5.9,-8.32 8.47,-17.19 9.43,-21.31l-34.45 -18.33 -53.67 18.25z"></path> <path class="fil0" d="M927.87 959.63c0,0 2.87,11.42 10.31,22.41l72.38 0c5.06,-7.48 7.88,-15.7 9.19,-22.14l-36.12 -19.22 -55.76 18.95z"></path> <path class="fil1" d="M929.82 960.65c1.06,3.45 4.24,12.68 10.37,21.39l-3.81 0c-7.14,-10.87 -9.99,-21.81 -10.05,-22.03l-0.35 -1.41 57.78 -19.65 37.77 20.1 -0.23 1.16c-1.52,7.47 -4.41,15.1 -8.81,21.83l-3.97 0c5.9,-8.32 8.47,-17.19 9.42,-21.31l-34.44 -18.33 -53.68 18.25z"></path> <path class="fil0" d="M1019.75 959.63c0,0 2.86,11.42 10.3,22.41l72.37 0c5.07,-7.48 7.88,-15.7 9.19,-22.14l-36.11 -19.22 -55.75 18.95z"></path> <path class="fil1" d="M1021.68 960.65c1.06,3.45 4.24,12.68 10.37,21.39l-3.8 0c-7.14,-10.87 -9.99,-21.81 -10.04,-22.03l-0.37 -1.41 57.78 -19.65 37.78 20.1 -0.24 1.16c-1.52,7.47 -4.4,15.1 -8.81,21.83l-3.97 0c5.9,-8.32 8.47,-17.19 9.42,-21.31l-34.44 -18.33 -53.68 18.25z"></path> <path class="fil0" d="M1111.61 959.63c0,0 2.87,11.42 10.31,22.41l72.37 0c4.22,-6.24 6.88,-12.99 8.41,-18.8l0 -3.75 -35.34 -18.81 -55.75 18.95z"></path> <path class="fil1" d="M1113.54 960.65c1.06,3.45 4.24,12.68 10.38,21.39l-3.81 0c-7.14,-10.87 -9.98,-21.81 -10.03,-22.03l-0.37 -1.41 57.79 -19.65 35.2 18.73 0 11.05c-1.6,4.61 -3.75,9.13 -6.48,13.31l-3.97 0c5.89,-8.32 8.47,-17.19 9.42,-21.31l-34.45 -18.33 -53.68 18.25z"></path> <path class="fil1" d="M1202.7 958.22l0 4.34c-0.51,-1.55 -0.75,-2.48 -0.76,-2.55l-0.36 -1.41 1.12 -0.38z"></path> <path class="fil0" d="M677.74 963.15c12.57,-9.07 18.4,-23.73 20.47,-33.92l-18.18 -9.68 -2.29 43.6z"></path> <path class="fil1" d="M677.85 961.01c12.64,-9.81 17.23,-25.12 18.56,-30.94l-16.47 -8.77 0.18 -3.5 19.89 10.58 -0.25 1.17c-2.71,13.35 -9.77,27.21 -22.12,35.56l0.21 -4.1z"></path> <path class="fil0" d="M698.21 928.97c0,0 10.48,41.75 43.36,42.36 32.88,0.62 45.29,-26.19 48.51,-42.1l-36.12 -19.21 -55.75 18.95z"></path> <path class="fil1" d="M700.14 929.98c2.2,7.17 13.54,39.24 41.45,39.76l1.08 0.02c34.02,0 43.58,-30.83 45.61,-39.69l-34.44 -18.33 -53.7 18.24zm42.5 42.95l-1.11 -0.02c-33.69,-0.61 -44.75,-43.12 -44.85,-43.56l-0.36 -1.41 57.79 -19.65 37.76 20.09 -0.24 1.17c-4.28,21.07 -19.4,43.38 -48.99,43.38z"></path> <path class="fil0" d="M790.08 928.97c0,0 10.47,41.75 43.35,42.36 32.88,0.62 45.29,-26.19 48.51,-42.1l-36.11 -19.21 -55.75 18.95z"></path> <path class="fil1" d="M792.02 929.98c2.18,7.17 13.53,39.24 41.43,39.76l1.08 0.02c34.03,0 43.58,-30.83 45.61,-39.69l-34.44 -18.33 -53.68 18.24zm42.49 42.95l-1.12 -0.02c-33.68,-0.61 -44.75,-43.12 -44.85,-43.56l-0.36 -1.41 57.78 -19.65 37.78 20.09 -0.25 1.17c-4.27,21.07 -19.4,43.38 -48.98,43.38z"></path> <path class="fil0" d="M881.94 928.97c0,0 10.47,41.75 43.36,42.36 32.88,0.62 45.28,-26.19 48.52,-42.1l-36.13 -19.21 -55.75 18.95z"></path> <path class="fil1" d="M883.89 929.98c2.18,7.17 13.52,39.24 41.43,39.76l1.08 0.02c34.04,0 43.58,-30.83 45.61,-39.69l-34.45 -18.33 -53.67 18.24zm42.49 42.95l-1.11 -0.02c-33.7,-0.61 -44.77,-43.12 -44.87,-43.56l-0.36 -1.41 57.78 -19.65 37.78 20.09 -0.23 1.17c-4.28,21.07 -19.39,43.38 -48.99,43.38z"></path> <path class="fil0" d="M973.81 928.97c0,0 10.48,41.75 43.36,42.36 32.87,0.62 45.27,-26.19 48.51,-42.1l-36.12 -19.21 -55.75 18.95z"></path> <path class="fil1" d="M975.75 929.98c2.19,7.17 13.53,39.24 41.43,39.76l1.08 0.02c34.05,0 43.58,-30.83 45.61,-39.69l-34.44 -18.33 -53.68 18.24zm42.5 42.95l-1.12 -0.02c-33.69,-0.61 -44.76,-43.12 -44.86,-43.56l-0.36 -1.41 57.78 -19.65 37.77 20.09 -0.23 1.17c-4.28,21.07 -19.38,43.38 -48.98,43.38z"></path> <path class="fil0" d="M1065.68 928.97c0,0 10.47,41.75 43.35,42.36 32.87,0.62 45.28,-26.19 48.51,-42.1l-36.11 -19.21 -55.75 18.95z"></path> <path class="fil1" d="M1067.61 929.98c2.2,7.17 13.54,39.24 41.45,39.76l1.08 0.02c34.04,0 43.56,-30.83 45.6,-39.69l-34.45 -18.33 -53.68 18.24zm42.5 42.95l-1.11 -0.02c-33.7,-0.61 -44.77,-43.12 -44.86,-43.56l-0.37 -1.41 57.78 -19.65 37.78 20.09 -0.24 1.17c-4.27,21.07 -19.38,43.38 -48.98,43.38z"></path> <path class="fil0" d="M1157.54 928.97c0,0 10.48,41.75 43.36,42.36l1.8 0 0 -57.71 -45.16 15.35z"></path> <path class="fil1" d="M1159.48 929.98c2.19,7.17 13.53,39.24 41.44,39.76l1.07 0.02 0.71 -0.02 0 3.18 -0.72 0.01 -1.12 -0.02c-33.7,-0.61 -44.75,-43.12 -44.85,-43.56l-0.37 -1.41 47.06 -16 0 3.35 -43.22 14.69z"></path> <path class="fil0" d="M679.14 936.38c4.74,2.54 10.2,4.17 16.49,4.29 32.88,0.61 45.29,-26.19 48.52,-42.11l-36.12 -19.21 -26.36 8.97 -2.53 48.06z"></path> <path class="fil1" d="M679.24 934.56c4.69,2.68 10.13,4.4 16.42,4.52l1.07 0.01c34.04,0 43.57,-30.82 45.62,-39.68l-34.46 -18.34 -26.31 8.95 0.18 -3.41 26.41 -8.98 37.77 20.09 -0.24 1.17c-4.28,21.07 -19.4,43.37 -48.99,43.37l-1.11 -0.01c-6.28,-0.12 -11.76,-1.69 -16.54,-4.17l0.18 -3.52z"></path> <path class="fil0" d="M744.15 898.3c0,0 10.48,41.76 43.35,42.37 32.88,0.61 45.29,-26.19 48.51,-42.11l-36.12 -19.21 -55.74 18.95z"></path> <path class="fil1" d="M746.09 899.32c2.18,7.15 13.52,39.24 41.43,39.76l1.07 0.01c34.04,0 43.58,-30.82 45.62,-39.68l-34.44 -18.34 -53.68 18.25zm42.49 42.94l-1.12 -0.01c-33.69,-0.63 -44.74,-43.13 -44.85,-43.56l-0.36 -1.42 57.78 -19.64 37.77 20.09 -0.23 1.17c-4.29,21.07 -19.41,43.37 -48.99,43.37z"></path> <path class="fil0" d="M836.01 898.3c0,0 10.47,41.76 43.35,42.37 32.88,0.61 45.29,-26.19 48.51,-42.11l-36.11 -19.21 -55.75 18.95z"></path> <path class="fil1" d="M837.96 899.32c2.18,7.15 13.51,39.24 41.44,39.76l1.07 0.01c34.03,0 43.56,-30.82 45.61,-39.68l-34.45 -18.34 -53.67 18.25zm42.48 42.94l-1.1 -0.01c-33.7,-0.63 -44.76,-43.13 -44.87,-43.56l-0.36 -1.42 57.78 -19.64 37.78 20.09 -0.24 1.17c-4.28,21.07 -19.4,43.37 -48.99,43.37z"></path> <path class="fil0" d="M927.87 898.3c0,0 10.48,41.76 43.37,42.37 32.87,0.61 45.27,-26.19 48.51,-42.11l-36.12 -19.21 -55.76 18.95z"></path> <path class="fil1" d="M929.82 899.32c2.19,7.15 13.53,39.24 41.44,39.76l1.07 0.01c34.03,0 43.56,-30.82 45.61,-39.68l-34.44 -18.34 -53.68 18.25zm42.49 42.94l-1.1 -0.01c-33.71,-0.63 -44.76,-43.13 -44.88,-43.56l-0.35 -1.42 57.78 -19.64 37.77 20.09 -0.23 1.17c-4.29,21.07 -19.41,43.37 -48.99,43.37z"></path> <path class="fil0" d="M1019.75 898.3c0,0 10.46,41.76 43.35,42.37 32.87,0.61 45.28,-26.19 48.51,-42.11l-36.11 -19.21 -55.75 18.95z"></path> <path class="fil1" d="M1021.68 899.32c2.2,7.15 13.54,39.24 41.46,39.76l1.06 0.01c34.04,0 43.56,-30.82 45.6,-39.68l-34.44 -18.34 -53.68 18.25zm42.5 42.94l-1.11 -0.01c-33.7,-0.63 -44.76,-43.13 -44.86,-43.56l-0.37 -1.42 57.78 -19.64 37.78 20.09 -0.24 1.17c-4.29,21.07 -19.41,43.37 -48.98,43.37z"></path> <path class="fil0" d="M1111.61 898.3c0,0 10.48,41.76 43.36,42.37 30.66,0.57 43.51,-22.72 47.73,-38.77l0 -3.75 -35.34 -18.8 -55.75 18.95z"></path> <path class="fil1" d="M1113.54 899.32c2.2,7.15 13.54,39.24 41.46,39.76l1.07 0.01c34.03,0 43.55,-30.82 45.6,-39.68l-34.45 -18.34 -53.68 18.25zm89.16 -2.96l0 11.04c-6.29,18.15 -21.06,34.86 -46.65,34.86l-1.12 -0.01c-33.7,-0.63 -44.75,-43.13 -44.85,-43.56l-0.37 -1.42 57.79 -19.64 35.2 18.73z"></path> <path class="fil1" d="M1202.7 896.89l0 4.35c-0.51,-1.56 -0.75,-2.49 -0.76,-2.55l-0.36 -1.42 1.12 -0.38z"></path> <path class="fil0" d="M681.1 899.12c10.27,-9.08 15.23,-21.98 17.11,-31.22l-15.05 -8.01 -2.06 39.23z"></path> <path class="fil1" d="M681.23 896.76c10.1,-9.71 13.97,-22.75 15.18,-28.02l-13.34 -7.1 0.18 -3.5 16.76 8.92 -0.25 1.16c-2.45,12.1 -8.48,24.61 -18.77,33.06l0.24 -4.52z"></path> <path class="fil0" d="M698.21 867.64c0,0 10.48,41.75 43.36,42.36 32.88,0.61 45.29,-26.19 48.51,-42.1l-36.12 -19.21 -55.75 18.95z"></path> <path class="fil1" d="M700.14 868.66c2.2,7.16 13.54,39.25 41.45,39.76l1.08 0.01c34.02,0 43.56,-30.84 45.61,-39.69l-34.44 -18.33 -53.7 18.25zm42.5 42.94l-1.11 -0.01c-33.69,-0.63 -44.75,-43.13 -44.85,-43.56l-0.36 -1.42 57.79 -19.64 37.76 20.09 -0.24 1.16c-4.28,21.07 -19.4,43.38 -48.99,43.38z"></path> <path class="fil0" d="M790.08 867.64c0,0 10.47,41.75 43.35,42.36 32.88,0.61 45.29,-26.19 48.51,-42.1l-36.11 -19.21 -55.75 18.95z"></path> <path class="fil1" d="M792.02 868.66c2.18,7.16 13.53,39.25 41.43,39.76l1.08 0.01c34.03,0 43.57,-30.84 45.61,-39.69l-34.44 -18.33 -53.68 18.25zm42.5 42.94l-1.13 -0.01c-33.68,-0.63 -44.75,-43.13 -44.85,-43.56l-0.36 -1.42 57.78 -19.64 37.78 20.09 -0.25 1.16c-4.27,21.07 -19.4,43.38 -48.97,43.38z"></path> <path class="fil0" d="M881.94 867.64c0,0 10.47,41.75 43.36,42.36 32.88,0.61 45.28,-26.19 48.52,-42.1l-36.13 -19.21 -55.75 18.95z"></path> <path class="fil1" d="M883.89 868.66c2.18,7.16 13.52,39.25 41.43,39.76l1.08 0.01c34.03,0 43.58,-30.84 45.61,-39.69l-34.45 -18.33 -53.67 18.25zm42.49 42.94l-1.11 -0.01c-33.7,-0.63 -44.77,-43.13 -44.87,-43.56l-0.36 -1.42 57.78 -19.64 37.78 20.09 -0.23 1.16c-4.28,21.07 -19.4,43.38 -48.99,43.38z"></path> <path class="fil0" d="M973.81 867.64c0,0 10.48,41.75 43.36,42.36 32.87,0.61 45.27,-26.19 48.51,-42.1l-36.12 -19.21 -55.75 18.95z"></path> <path class="fil1" d="M975.75 868.66c2.19,7.16 13.53,39.25 41.43,39.76l1.08 0.01c34.05,0 43.58,-30.84 45.61,-39.69l-34.44 -18.33 -53.68 18.25zm42.5 42.94l-1.12 -0.01c-33.69,-0.63 -44.76,-43.13 -44.86,-43.56l-0.36 -1.42 57.78 -19.64 37.77 20.09 -0.23 1.16c-4.28,21.07 -19.4,43.38 -48.98,43.38z"></path> <path class="fil0" d="M1065.68 867.64c0,0 10.47,41.75 43.35,42.36 32.87,0.61 45.28,-26.19 48.51,-42.1l-36.11 -19.21 -55.75 18.95z"></path> <path class="fil1" d="M1067.61 868.66c2.2,7.16 13.54,39.25 41.45,39.76l1.08 0.01c34.03,0 43.56,-30.84 45.6,-39.69l-34.45 -18.33 -53.68 18.25zm42.5 42.94l-1.11 -0.01c-33.7,-0.63 -44.77,-43.13 -44.86,-43.56l-0.37 -1.42 57.78 -19.64 37.78 20.09 -0.24 1.16c-4.27,21.07 -19.39,43.38 -48.98,43.38z"></path> <path class="fil0" d="M1157.54 867.64c0,0 10.48,41.75 43.36,42.36l1.8 0.01 0 -57.72 -45.16 15.35z"></path> <path class="fil1" d="M1159.48 868.66c2.19,7.16 13.53,39.25 41.44,39.76l1.07 0.01 0.71 -0.01 0 3.17 -0.72 0.01 -1.12 -0.01c-33.7,-0.63 -44.75,-43.13 -44.85,-43.56l-0.37 -1.42 47.06 -16 0 3.36 -43.22 14.69z"></path> <path class="fil0" d="M682.29 876.55c3.97,1.67 8.4,2.7 13.34,2.79 32.88,0.62 45.29,-26.19 48.52,-42.1l-36.12 -19.21 -23.08 7.84 -2.66 50.68z"></path> <path class="fil1" d="M682.37 874.83c3.94,1.75 8.36,2.83 13.29,2.92l1.07 0.01c34.04,0 43.57,-30.82 45.62,-39.69l-34.46 -18.32 -23.03 7.83 0.18 -3.41 23.13 -7.87 37.77 20.1 -0.24 1.15c-4.28,21.08 -19.4,43.39 -48.99,43.39l-1.11 -0.01c-4.94,-0.1 -9.4,-1.1 -13.4,-2.73l0.17 -3.37z"></path> <path class="fil0" d="M744.15 836.98c0,0 10.48,41.75 43.35,42.36 32.88,0.62 45.29,-26.19 48.51,-42.1l-36.12 -19.21 -55.74 18.95z"></path> <path class="fil1" d="M746.09 837.99c2.18,7.15 13.52,39.24 41.43,39.76l1.07 0.01c34.04,0 43.58,-30.82 45.62,-39.69l-34.44 -18.32 -53.68 18.24zm42.49 42.95l-1.12 -0.01c-33.69,-0.64 -44.74,-43.15 -44.85,-43.58l-0.36 -1.4 57.78 -19.65 37.77 20.1 -0.23 1.15c-4.29,21.08 -19.41,43.39 -48.99,43.39z"></path> <path class="fil0" d="M836.01 836.98c0,0 10.47,41.75 43.35,42.36 32.88,0.62 45.29,-26.19 48.51,-42.1l-36.11 -19.21 -55.75 18.95z"></path> <path class="fil1" d="M837.96 837.99c2.18,7.15 13.51,39.24 41.44,39.76l1.07 0.01c34.03,0 43.56,-30.82 45.61,-39.69l-34.45 -18.32 -53.67 18.24zm42.48 42.95l-1.1 -0.01c-33.7,-0.64 -44.76,-43.15 -44.87,-43.58l-0.36 -1.4 57.78 -19.65 37.78 20.1 -0.24 1.15c-4.28,21.08 -19.4,43.39 -48.99,43.39z"></path> <path class="fil0" d="M927.87 836.98c0,0 10.48,41.75 43.37,42.36 32.87,0.62 45.27,-26.19 48.51,-42.1l-36.12 -19.21 -55.76 18.95z"></path> <path class="fil1" d="M929.82 837.99c2.19,7.15 13.53,39.24 41.44,39.76l1.07 0.01c34.03,0 43.56,-30.82 45.61,-39.69l-34.44 -18.32 -53.68 18.24zm42.49 42.95l-1.1 -0.01c-33.71,-0.64 -44.76,-43.15 -44.88,-43.58l-0.35 -1.41 57.78 -19.64 37.77 20.1 -0.23 1.15c-4.29,21.08 -19.41,43.39 -48.99,43.39z"></path> <path class="fil0" d="M1019.75 836.98c0,0 10.46,41.75 43.35,42.36 32.87,0.62 45.28,-26.19 48.51,-42.1l-36.11 -19.21 -55.75 18.95z"></path> <path class="fil1" d="M1021.68 837.99c2.2,7.15 13.54,39.24 41.46,39.76l1.06 0.01c34.04,0 43.56,-30.82 45.6,-39.69l-34.44 -18.32 -53.68 18.24zm42.5 42.95l-1.11 -0.01c-33.7,-0.64 -44.76,-43.15 -44.86,-43.58l-0.37 -1.41 57.78 -19.64 37.78 20.1 -0.24 1.15c-4.29,21.08 -19.41,43.39 -48.98,43.39z"></path> <path class="fil0" d="M1111.61 836.98c0,0 10.48,41.75 43.36,42.36 30.66,0.58 43.51,-22.71 47.73,-38.76l0 -3.75 -35.34 -18.8 -55.75 18.95z"></path> <path class="fil1" d="M1113.54 837.99c2.2,7.15 13.54,39.24 41.46,39.76l1.07 0.01c34.03,0 43.55,-30.82 45.6,-39.69l-34.45 -18.32 -53.68 18.24zm89.16 -2.96l0 11.03c-6.29,18.17 -21.06,34.88 -46.65,34.88l-1.12 -0.01c-33.7,-0.64 -44.75,-43.15 -44.85,-43.58l-0.37 -1.4 57.79 -19.65 35.2 18.73z"></path> <path class="fil1" d="M1202.7 835.57l0 4.33c-0.51,-1.55 -0.75,-2.49 -0.76,-2.55l-0.36 -1.4 1.12 -0.38z"></path> <path class="fil0" d="M684.5 834.47c7.99,-8.72 12.05,-19.74 13.71,-27.89l-11.92 -6.35 -1.79 34.24z"></path> <path class="fil1" d="M684.64 831.77c7.59,-9.09 10.71,-19.72 11.77,-24.35l-10.21 -5.44 0.19 -3.5 13.62 7.25 -0.25 1.17c-2.17,10.7 -7.14,21.72 -15.39,29.98l0.27 -5.11z"></path> <path class="fil0" d="M698.21 806.3c0,0 10.48,41.77 43.36,42.38 32.88,0.62 45.29,-26.19 48.51,-42.1l-36.12 -19.22 -55.75 18.94z"></path> <path class="fil1" d="M700.14 807.32c2.2,7.16 13.54,39.25 41.45,39.77l1.08 0.01c34.02,0 43.56,-30.82 45.61,-39.68l-34.44 -18.33 -53.7 18.23zm42.5 42.96l-1.11 -0.02c-33.69,-0.62 -44.75,-43.14 -44.85,-43.56l-0.36 -1.42 57.79 -19.65 37.76 20.1 -0.24 1.17c-4.28,21.07 -19.4,43.38 -48.99,43.38z"></path> <path class="fil0" d="M790.08 806.3c0,0 10.47,41.77 43.35,42.38 32.88,0.62 45.29,-26.19 48.51,-42.1l-36.11 -19.22 -55.75 18.94z"></path> <path class="fil1" d="M792.02 807.32c2.18,7.16 13.53,39.25 41.43,39.77l1.08 0.01c34.03,0 43.57,-30.82 45.61,-39.68l-34.45 -18.33 -53.67 18.23zm42.49 42.96l-1.12 -0.02c-33.68,-0.62 -44.75,-43.14 -44.85,-43.56l-0.36 -1.42 57.78 -19.65 37.78 20.1 -0.25 1.17c-4.27,21.07 -19.4,43.38 -48.98,43.38z"></path> <path class="fil0" d="M881.94 806.3c0,0 10.47,41.77 43.36,42.38 32.88,0.62 45.28,-26.19 48.51,-42.1l-36.12 -19.22 -55.75 18.94z"></path> <path class="fil1" d="M883.89 807.32c2.18,7.16 13.53,39.25 41.43,39.77l1.08 0.01c34.03,0 43.58,-30.82 45.61,-39.68l-34.46 -18.33 -53.66 18.23zm42.49 42.96l-1.11 -0.02c-33.7,-0.63 -44.77,-43.14 -44.87,-43.56l-0.36 -1.42 57.78 -19.65 37.78 20.1 -0.23 1.17c-4.28,21.07 -19.4,43.38 -48.99,43.38z"></path> <path class="fil0" d="M973.81 806.3c0,0 10.48,41.77 43.36,42.38 32.87,0.62 45.27,-26.19 48.51,-42.1l-36.12 -19.22 -55.75 18.94z"></path> <path class="fil1" d="M975.75 807.32c2.19,7.16 13.53,39.25 41.43,39.77l1.08 0.01c34.05,0 43.58,-30.82 45.61,-39.68l-34.45 -18.33 -53.67 18.23zm42.5 42.96l-1.12 -0.02c-33.69,-0.63 -44.76,-43.14 -44.86,-43.56l-0.36 -1.42 57.78 -19.65 37.77 20.1 -0.23 1.17c-4.28,21.07 -19.4,43.38 -48.98,43.38z"></path> <path class="fil0" d="M1065.68 806.3c0,0 10.47,41.77 43.35,42.38 32.87,0.62 45.28,-26.19 48.51,-42.1l-36.11 -19.22 -55.75 18.94z"></path> <path class="fil1" d="M1067.61 807.32c2.2,7.16 13.54,39.25 41.45,39.77l1.08 0.01c34.03,0 43.56,-30.82 45.6,-39.68l-34.46 -18.33 -53.67 18.23zm42.5 42.96l-1.11 -0.02c-33.7,-0.62 -44.77,-43.14 -44.86,-43.56l-0.37 -1.42 57.78 -19.65 37.78 20.1 -0.24 1.17c-4.27,21.07 -19.39,43.38 -48.98,43.38z"></path> <path class="fil0" d="M1157.54 806.3c0,0 10.48,41.77 43.36,42.38l1.8 0 0 -57.72 -45.16 15.34z"></path> <path class="fil1" d="M1159.48 807.32c2.19,7.16 13.53,39.25 41.44,39.77l1.07 0.01 0.71 -0.01 0 3.18 -0.72 0.01 -1.12 -0.02c-33.7,-0.62 -44.75,-43.14 -44.85,-43.56l-0.37 -1.42 47.06 -16 0 3.36 -43.22 14.68z"></path> <path class="fil0" d="M685.45 816.38c3.13,0.98 6.51,1.56 10.18,1.63 32.88,0.62 45.29,-26.18 48.52,-42.1l-36.12 -19.21 -19.81 6.73 -2.77 52.95z"></path> <path class="fil1" d="M685.53 814.72c3.11,1.03 6.47,1.64 10.13,1.71l1.07 0.01c34.04,0 43.57,-30.82 45.62,-39.7l-34.46 -18.31 -19.75 6.71 0.18 -3.41 19.85 -6.75 37.77 20.09 -0.24 1.15c-4.28,21.08 -19.4,43.39 -48.99,43.39l-1.11 -0.01c-3.68,-0.07 -7.09,-0.63 -10.24,-1.59l0.17 -3.29z"></path> <path class="fil0" d="M744.15 775.64c0,0 10.48,41.76 43.35,42.37 32.88,0.62 45.29,-26.18 48.51,-42.1l-36.12 -19.21 -55.74 18.94z"></path> <path class="fil1" d="M746.09 776.67c2.18,7.15 13.52,39.24 41.43,39.76l1.07 0.01c34.04,0 43.58,-30.82 45.62,-39.7l-34.44 -18.31 -53.68 18.24zm42.49 42.94l-1.12 -0.01c-33.69,-0.63 -44.74,-43.13 -44.85,-43.57l-0.36 -1.41 57.78 -19.64 37.77 20.09 -0.23 1.15c-4.29,21.08 -19.41,43.39 -48.99,43.39z"></path> <path class="fil0" d="M836.01 775.64c0,0 10.47,41.76 43.35,42.37 32.88,0.62 45.29,-26.18 48.51,-42.1l-36.11 -19.21 -55.75 18.94z"></path> <path class="fil1" d="M837.96 776.67c2.18,7.16 13.51,39.24 41.44,39.76l1.07 0.01c34.03,0 43.56,-30.84 45.61,-39.7l-34.45 -18.31 -53.67 18.24zm42.48 42.94l-1.1 -0.01c-33.7,-0.63 -44.76,-43.13 -44.87,-43.57l-0.36 -1.41 57.78 -19.64 37.78 20.09 -0.24 1.15c-4.28,21.08 -19.4,43.39 -48.99,43.39z"></path> <path class="fil0" d="M927.87 775.64c0,0 10.48,41.76 43.37,42.37 32.87,0.62 45.27,-26.18 48.51,-42.1l-36.12 -19.21 -55.76 18.94z"></path> <path class="fil1" d="M929.82 776.67c2.19,7.16 13.53,39.24 41.44,39.76l1.07 0.01c34.03,0 43.56,-30.84 45.61,-39.7l-34.44 -18.31 -53.68 18.24zm42.49 42.94l-1.1 -0.01c-33.71,-0.63 -44.76,-43.13 -44.88,-43.57l-0.35 -1.41 57.78 -19.64 37.77 20.09 -0.23 1.15c-4.29,21.08 -19.41,43.39 -48.99,43.39z"></path> <path class="fil0" d="M1019.75 775.64c0,0 10.46,41.76 43.35,42.37 32.87,0.62 45.28,-26.18 48.51,-42.1l-36.11 -19.21 -55.75 18.94z"></path> <path class="fil1" d="M1021.68 776.67c2.2,7.16 13.54,39.24 41.46,39.76l1.06 0.01c34.04,0 43.56,-30.84 45.6,-39.7l-34.44 -18.31 -53.68 18.24zm42.5 42.94l-1.11 -0.01c-33.7,-0.63 -44.76,-43.13 -44.86,-43.57l-0.37 -1.41 57.78 -19.64 37.78 20.09 -0.24 1.15c-4.29,21.08 -19.41,43.39 -48.98,43.39z"></path> <path class="fil0" d="M1111.61 775.64c0,0 10.48,41.76 43.36,42.37 30.66,0.58 43.51,-22.71 47.73,-38.76l0 -3.75 -35.34 -18.8 -55.75 18.94z"></path> <path class="fil1" d="M1113.54 776.67c2.2,7.15 13.54,39.24 41.46,39.76l1.07 0.01c34.03,0 43.55,-30.82 45.6,-39.7l-34.45 -18.31 -53.68 18.24zm89.16 -2.96l0 11.03c-6.29,18.16 -21.06,34.87 -46.65,34.87l-1.12 -0.01c-33.7,-0.63 -44.75,-43.13 -44.85,-43.57l-0.37 -1.41 57.79 -19.64 35.2 18.73z"></path> <path class="fil1" d="M1202.7 774.24l0 4.35c-0.51,-1.56 -0.75,-2.49 -0.76,-2.56l-0.36 -1.41 1.12 -0.38z"></path> <path class="fil0" d="M687.94 768.93c5.75,-7.86 8.87,-16.79 10.27,-23.68l-8.78 -4.68 -1.49 28.36z"></path> <path class="fil1" d="M688.11 765.76c5.11,-7.82 7.41,-15.81 8.3,-19.67l-7.08 -3.76 0.19 -3.5 10.49 5.58 -0.25 1.16c-1.85,9.14 -5.75,18.5 -11.97,26.18l0.32 -5.99z"></path> <path class="fil0" d="M698.21 744.98c0,0 10.48,41.75 43.36,42.37 32.88,0.61 45.29,-26.19 48.51,-42.1l-36.12 -19.22 -55.75 18.95z"></path> <path class="fil1" d="M700.14 745.99c2.2,7.17 13.54,39.26 41.45,39.78l1.08 0.01c34.02,0 43.56,-30.82 45.61,-39.69l-34.44 -18.33 -53.7 18.23zm42.5 42.96l-1.11 -0.01c-33.69,-0.63 -44.75,-43.13 -44.85,-43.58l-0.36 -1.41 57.79 -19.64 37.76 20.1 -0.24 1.16c-4.28,21.07 -19.4,43.38 -48.99,43.38z"></path> <path class="fil0" d="M790.08 744.98c0,0 10.47,41.75 43.35,42.37 32.88,0.61 45.29,-26.19 48.51,-42.1l-36.11 -19.22 -55.75 18.95z"></path> <path class="fil1" d="M792.02 745.99c2.18,7.17 13.53,39.26 41.43,39.78l1.08 0.01c34.03,0 43.57,-30.82 45.61,-39.69l-34.44 -18.33 -53.68 18.23zm42.49 42.96l-1.12 -0.01c-33.68,-0.63 -44.75,-43.13 -44.85,-43.58l-0.36 -1.41 57.78 -19.64 37.78 20.1 -0.25 1.16c-4.27,21.07 -19.4,43.38 -48.98,43.38z"></path> <path class="fil0" d="M881.94 744.98c0,0 10.47,41.75 43.36,42.37 32.88,0.61 45.28,-26.19 48.51,-42.1l-36.12 -19.22 -55.75 18.95z"></path> <path class="fil1" d="M883.89 745.99c2.18,7.17 13.53,39.26 41.43,39.78l1.08 0.01c34.03,0 43.58,-30.82 45.61,-39.69l-34.45 -18.33 -53.67 18.23zm42.49 42.96l-1.11 -0.01c-33.7,-0.63 -44.77,-43.13 -44.87,-43.58l-0.36 -1.41 57.78 -19.64 37.78 20.1 -0.23 1.16c-4.28,21.07 -19.4,43.38 -48.99,43.38z"></path> <path class="fil0" d="M973.81 744.98c0,0 10.48,41.75 43.36,42.37 32.87,0.61 45.27,-26.19 48.51,-42.1l-36.12 -19.22 -55.75 18.95z"></path> <path class="fil1" d="M975.75 745.99c2.19,7.17 13.53,39.26 41.43,39.78l1.08 0.01c34.05,0 43.58,-30.82 45.61,-39.69l-34.44 -18.33 -53.68 18.23zm42.5 42.96l-1.12 -0.01c-33.69,-0.63 -44.76,-43.13 -44.86,-43.58l-0.36 -1.41 57.78 -19.64 37.77 20.1 -0.23 1.16c-4.28,21.07 -19.4,43.38 -48.98,43.38z"></path> <path class="fil0" d="M1065.68 744.98c0,0 10.47,41.75 43.35,42.37 32.87,0.61 45.28,-26.19 48.51,-42.1l-36.11 -19.22 -55.75 18.95z"></path> <path class="fil1" d="M1067.61 745.99c2.2,7.17 13.54,39.26 41.45,39.78l1.08 0.01c34.03,0 43.56,-30.82 45.6,-39.69l-34.45 -18.33 -53.68 18.23zm42.5 42.96l-1.11 -0.01c-33.7,-0.63 -44.77,-43.13 -44.86,-43.58l-0.37 -1.41 57.78 -19.64 37.78 20.1 -0.24 1.16c-4.27,21.07 -19.39,43.38 -48.98,43.38z"></path> <path class="fil0" d="M1157.54 744.98c0,0 10.48,41.75 43.36,42.37l1.8 0 0 -57.72 -45.16 15.35z"></path> <path class="fil1" d="M1159.48 745.99c2.19,7.17 13.53,39.26 41.44,39.78l1.07 0.01 0.71 -0.01 0 3.17 -0.72 0.01 -1.12 -0.01c-33.7,-0.63 -44.75,-43.13 -44.85,-43.58l-0.37 -1.41 47.06 -16 0 3.36 -43.22 14.68z"></path> <path class="fil0" d="M688.62 755.89c2.22,0.47 4.55,0.76 7.01,0.8 32.88,0.61 45.29,-26.19 48.52,-42.1l-36.12 -19.23 -16.52 5.62 -2.89 54.91z"></path> <path class="fil1" d="M688.71 754.27c2.19,0.5 4.51,0.79 6.95,0.83l1.07 0.02c34.04,0 43.57,-30.84 45.62,-39.7l-34.46 -18.33 -16.48 5.6 0.18 -3.4 16.58 -5.64 37.77 20.09 -0.24 1.16c-4.28,21.08 -19.4,43.39 -48.99,43.39l-1.11 -0.01c-2.48,-0.05 -4.82,-0.33 -7.06,-0.79l0.17 -3.22z"></path> <path class="fil0" d="M744.15 714.31c0,0 10.48,41.76 43.35,42.38 32.88,0.61 45.29,-26.19 48.51,-42.1l-36.12 -19.23 -55.74 18.95z"></path> <path class="fil1" d="M746.08 715.34c2.19,7.15 13.53,39.24 41.44,39.76l1.07 0.02c34.04,0 43.58,-30.84 45.62,-39.7l-34.44 -18.33 -53.69 18.25zm42.5 42.95l-1.12 -0.01c-33.69,-0.64 -44.74,-43.13 -44.85,-43.58l-0.36 -1.4 57.78 -19.65 37.77 20.09 -0.23 1.16c-4.29,21.08 -19.41,43.39 -48.99,43.39z"></path> <path class="fil0" d="M836.01 714.31c0,0 10.47,41.76 43.35,42.38 32.88,0.61 45.29,-26.19 48.51,-42.1l-36.11 -19.23 -55.75 18.95z"></path> <path class="fil1" d="M837.96 715.34c2.18,7.15 13.51,39.24 41.44,39.76l1.07 0.02c34.03,0 43.56,-30.84 45.61,-39.7l-34.45 -18.33 -53.67 18.25zm42.48 42.95l-1.1 -0.01c-33.7,-0.64 -44.76,-43.13 -44.87,-43.58l-0.36 -1.4 57.78 -19.65 37.78 20.09 -0.24 1.16c-4.28,21.08 -19.4,43.39 -48.99,43.39z"></path> <path class="fil0" d="M927.87 714.31c0,0 10.48,41.76 43.37,42.38 32.87,0.61 45.27,-26.19 48.51,-42.1l-36.12 -19.23 -55.76 18.95z"></path> <path class="fil1" d="M929.82 715.34c2.19,7.15 13.53,39.24 41.44,39.76l1.07 0.02c34.03,0 43.56,-30.84 45.61,-39.7l-34.44 -18.33 -53.68 18.25zm42.49 42.95l-1.1 -0.01c-33.71,-0.64 -44.76,-43.13 -44.88,-43.58l-0.35 -1.4 57.78 -19.65 37.77 20.09 -0.23 1.16c-4.29,21.08 -19.41,43.39 -48.99,43.39z"></path> <path class="fil0" d="M1019.75 714.31c0,0 10.46,41.76 43.35,42.38 32.87,0.61 45.28,-26.19 48.51,-42.1l-36.11 -19.23 -55.75 18.95z"></path> <path class="fil1" d="M1021.68 715.34c2.2,7.15 13.54,39.24 41.46,39.76l1.06 0.02c34.04,0 43.56,-30.84 45.6,-39.7l-34.44 -18.33 -53.68 18.25zm42.5 42.95l-1.11 -0.01c-33.7,-0.64 -44.76,-43.15 -44.86,-43.58l-0.37 -1.4 57.78 -19.65 37.78 20.09 -0.24 1.16c-4.29,21.08 -19.41,43.39 -48.98,43.39z"></path> <path class="fil0" d="M1111.61 714.31c0,0 10.48,41.76 43.36,42.38 30.66,0.56 43.51,-22.71 47.73,-38.76l0 -3.76 -35.34 -18.81 -55.75 18.95z"></path> <path class="fil1" d="M1113.54 715.34c2.2,7.15 13.54,39.24 41.46,39.76l1.07 0.02c34.03,0 43.55,-30.84 45.6,-39.7l-34.45 -18.33 -53.68 18.25zm89.16 -2.96l0 11.03c-6.29,18.17 -21.06,34.88 -46.65,34.88l-1.12 -0.01c-33.7,-0.64 -44.75,-43.15 -44.85,-43.58l-0.37 -1.4 57.79 -19.65 35.2 18.73z"></path> <path class="fil1" d="M1202.7 712.92l0 4.33c-0.51,-1.55 -0.75,-2.49 -0.76,-2.55l-0.36 -1.4 1.12 -0.38z"></path> <path class="fil0" d="M691.44 702.15c3.57,-6.34 5.69,-12.9 6.77,-18.24l-5.65 -3 -1.12 21.24z"></path> <path class="fil1" d="M691.65 698.15c2.71,-5.55 4.11,-10.58 4.76,-13.4l-3.94 -2.09 0.18 -3.5 7.36 3.92 -0.25 1.15c-1.48,7.31 -4.26,14.76 -8.5,21.38l0.39 -7.46z"></path> <path class="fil0" d="M698.21 683.65c0,0 10.48,41.76 43.36,42.38 32.88,0.61 45.29,-26.19 48.51,-42.12l-36.12 -19.2 -55.75 18.94z"></path> <path class="fil1" d="M700.14 684.67c2.2,7.16 13.54,39.25 41.45,39.77l1.08 0.01c34.02,0 43.56,-30.83 45.61,-39.7l-34.44 -18.31 -53.7 18.23zm42.5 42.96l-1.11 -0.02c-33.69,-0.63 -44.75,-43.14 -44.85,-43.57l-0.36 -1.42 57.79 -19.64 37.76 20.1 -0.24 1.15c-4.28,21.09 -19.4,43.4 -48.99,43.4z"></path> <path class="fil0" d="M790.08 683.65c0,0 10.47,41.76 43.35,42.38 32.88,0.61 45.29,-26.19 48.51,-42.12l-36.11 -19.2 -55.75 18.94z"></path> <path class="fil1" d="M792.02 684.67c2.18,7.16 13.53,39.25 41.43,39.77l1.08 0.01c34.03,0 43.57,-30.83 45.61,-39.7l-34.44 -18.31 -53.68 18.23zm42.49 42.96l-1.12 -0.02c-33.68,-0.63 -44.75,-43.14 -44.85,-43.57l-0.36 -1.42 57.78 -19.64 37.78 20.1 -0.25 1.15c-4.27,21.09 -19.4,43.4 -48.98,43.4z"></path> <path class="fil0" d="M881.94 683.65c0,0 10.47,41.76 43.36,42.38 32.88,0.61 45.28,-26.19 48.51,-42.12l-36.12 -19.2 -55.75 18.94z"></path> <path class="fil1" d="M883.89 684.67c2.18,7.16 13.53,39.25 41.43,39.77l1.08 0.01c34.03,0 43.58,-30.83 45.61,-39.7l-34.45 -18.31 -53.67 18.23zm42.49 42.96l-1.11 -0.02c-33.7,-0.63 -44.77,-43.14 -44.87,-43.57l-0.36 -1.42 57.78 -19.64 37.78 20.1 -0.23 1.15c-4.28,21.09 -19.4,43.4 -48.99,43.4z"></path> <path class="fil0" d="M973.82 683.65c0,0 10.47,41.76 43.35,42.38 32.87,0.61 45.27,-26.19 48.51,-42.12l-36.12 -19.2 -55.74 18.94z"></path> <path class="fil1" d="M975.75 684.67c2.19,7.16 13.53,39.25 41.44,39.77l1.07 0.01c34.05,0 43.58,-30.83 45.61,-39.7l-34.44 -18.31 -53.68 18.23zm42.5 42.96l-1.12 -0.02c-33.69,-0.63 -44.76,-43.14 -44.85,-43.57l-0.37 -1.42 57.78 -19.64 37.77 20.1 -0.23 1.15c-4.28,21.09 -19.4,43.4 -48.98,43.4z"></path> <path class="fil0" d="M1065.68 683.65c0,0 10.47,41.76 43.35,42.38 32.87,0.61 45.28,-26.19 48.51,-42.12l-36.11 -19.2 -55.75 18.94z"></path> <path class="fil1" d="M1067.61 684.67c2.2,7.16 13.54,39.25 41.45,39.77l1.08 0.01c34.03,0 43.56,-30.83 45.6,-39.7l-34.45 -18.31 -53.68 18.23zm42.5 42.96l-1.11 -0.02c-33.7,-0.63 -44.77,-43.14 -44.86,-43.57l-0.37 -1.42 57.78 -19.64 37.78 20.1 -0.24 1.15c-4.27,21.09 -19.39,43.4 -48.98,43.4z"></path> <path class="fil0" d="M1157.54 683.65c0,0 10.48,41.76 43.36,42.38l1.8 0 0 -57.72 -45.16 15.34z"></path> <path class="fil1" d="M1159.48 684.67c2.19,7.16 13.53,39.25 41.44,39.77l1.07 0.01 0.71 -0.01 0 3.18 -0.72 0.01 -1.12 -0.02c-33.7,-0.63 -44.75,-43.14 -44.85,-43.57l-0.37 -1.42 47.06 -15.99 0 3.36 -43.22 14.68z"></path> <path class="fil0" d="M691.82 695.09c1.23,0.15 2.5,0.25 3.81,0.27 32.88,0.61 45.29,-26.18 48.52,-42.11l-36.12 -19.2 -13.25 4.5 -2.96 56.54z"></path> <path class="fil1" d="M691.9 693.5c1.22,0.15 2.47,0.24 3.76,0.27l1.07 0.01c34.04,0 43.59,-30.83 45.62,-39.69l-34.46 -18.33 -13.19 4.49 0.17 -3.42 13.3 -4.51 37.77 20.09 -0.24 1.16c-4.27,21.07 -19.4,43.39 -48.99,43.39l-1.11 -0.01c-1.33,-0.02 -2.62,-0.12 -3.87,-0.27l0.17 -3.18z"></path> <path class="fil0" d="M744.15 652.99c0,0 10.48,41.76 43.35,42.37 32.88,0.61 45.29,-26.2 48.51,-42.11l-36.12 -19.2 -55.74 18.94z"></path> <path class="fil1" d="M746.08 654.01c2.19,7.16 13.53,39.23 41.44,39.76l1.07 0.01c34.04,0 43.59,-30.83 45.62,-39.69l-34.44 -18.33 -53.69 18.25zm42.5 42.95l-1.12 -0.01c-33.69,-0.64 -44.74,-43.14 -44.85,-43.58l-0.36 -1.41 57.78 -19.64 37.77 20.09 -0.23 1.16c-4.28,21.07 -19.41,43.39 -48.99,43.39z"></path> <path class="fil0" d="M836.01 652.99c0,0 10.47,41.76 43.35,42.37 32.88,0.61 45.29,-26.2 48.51,-42.11l-36.11 -19.2 -55.75 18.94z"></path> <path class="fil1" d="M837.96 654.01c2.18,7.16 13.51,39.23 41.44,39.76l1.07 0.01c34.03,0 43.57,-30.83 45.61,-39.69l-34.45 -18.33 -53.67 18.25zm42.49 42.95l-1.11 -0.01c-33.7,-0.64 -44.76,-43.14 -44.87,-43.58l-0.36 -1.41 57.78 -19.64 37.78 20.09 -0.24 1.16c-4.27,21.07 -19.39,43.39 -48.98,43.39z"></path> <path class="fil0" d="M927.87 652.99c0,0 10.48,41.76 43.37,42.37 32.87,0.61 45.27,-26.18 48.51,-42.11l-36.12 -19.2 -55.76 18.94z"></path> <path class="fil1" d="M929.82 654.01c2.19,7.16 13.53,39.23 41.44,39.76l1.07 0.01c34.05,0 43.57,-30.83 45.61,-39.69l-34.44 -18.33 -53.68 18.25zm42.5 42.95l-1.11 -0.01c-33.71,-0.64 -44.76,-43.14 -44.88,-43.58l-0.35 -1.41 57.78 -19.64 37.77 20.09 -0.23 1.16c-4.28,21.07 -19.4,43.39 -48.98,43.39z"></path> <path class="fil0" d="M1019.75 652.99c0,0 10.46,41.76 43.35,42.37 32.87,0.61 45.28,-26.18 48.51,-42.11l-36.11 -19.2 -55.75 18.94z"></path> <path class="fil1" d="M1021.68 654.01c2.2,7.16 13.54,39.23 41.46,39.76l1.06 0.01c34.04,0 43.57,-30.83 45.6,-39.69l-34.44 -18.33 -53.68 18.25zm42.51 42.95l-1.12 -0.01c-33.7,-0.64 -44.76,-43.14 -44.86,-43.58l-0.37 -1.41 57.78 -19.64 37.78 20.09 -0.24 1.16c-4.29,21.07 -19.39,43.39 -48.97,43.39z"></path> <path class="fil0" d="M1111.61 652.99c0,0 10.48,41.76 43.36,42.37 30.66,0.57 43.51,-22.71 47.73,-38.76l0 -3.76 -35.34 -18.79 -55.75 18.94z"></path> <path class="fil1" d="M1113.54 654.01c2.2,7.16 13.54,39.23 41.46,39.76l1.07 0.01c34.03,0 43.56,-30.83 45.6,-39.69l-34.45 -18.33 -53.68 18.25zm89.16 -2.97l0 11.04c-6.29,18.16 -21.06,34.88 -46.65,34.88l-1.12 -0.01c-33.7,-0.64 -44.75,-43.14 -44.85,-43.58l-0.37 -1.41 57.79 -19.64 35.2 18.72z"></path> <path class="fil1" d="M1202.7 651.58l0 4.34c-0.51,-1.55 -0.75,-2.48 -0.76,-2.55l-0.36 -1.41 1.12 -0.38z"></path> <path class="fil0" d="M695.06 633.18c1.48,-3.77 2.5,-7.4 3.15,-10.59l-2.52 -1.35 -0.63 11.94z"></path> <path class="fil1" d="M695.37 627.31c0.47,-1.53 0.81,-2.85 1.04,-3.88l-0.81 -0.43 0.18 -3.51 4.23 2.25 -0.25 1.17c-1.01,5.01 -2.64,10.09 -4.94,14.92l0.55 -10.52z"></path> <path class="fil0" d="M698.21 622.33c0,0 10.48,41.75 43.36,42.37 32.88,0.61 45.29,-26.2 48.51,-42.11l-36.12 -19.21 -55.75 18.95z"></path> <path class="fil1" d="M700.14 623.34c2.2,7.17 13.54,39.26 41.45,39.78l1.08 0.01c34.02,0 43.56,-30.84 45.61,-39.7l-34.44 -18.32 -53.7 18.23zm42.5 42.96l-1.11 -0.01c-33.69,-0.63 -44.75,-43.14 -44.85,-43.58l-0.36 -1.41 57.79 -19.64 37.76 20.08 -0.24 1.17c-4.28,21.07 -19.4,43.39 -48.99,43.39z"></path> <path class="fil0" d="M790.08 622.33c0,0 10.47,41.75 43.35,42.37 32.88,0.61 45.29,-26.2 48.51,-42.11l-36.11 -19.21 -55.75 18.95z"></path> <path class="fil1" d="M792.02 623.34c2.18,7.17 13.53,39.26 41.43,39.78l1.08 0.01c34.03,0 43.57,-30.84 45.61,-39.7l-34.44 -18.32 -53.68 18.23zm42.49 42.96l-1.12 -0.01c-33.68,-0.63 -44.75,-43.14 -44.85,-43.58l-0.36 -1.41 57.78 -19.64 37.78 20.08 -0.25 1.17c-4.27,21.07 -19.4,43.39 -48.98,43.39z"></path> <path class="fil0" d="M881.94 622.33c0,0 10.47,41.75 43.36,42.37 32.88,0.61 45.28,-26.2 48.52,-42.11l-36.13 -19.21 -55.75 18.95z"></path> <path class="fil1" d="M883.89 623.34c2.18,7.17 13.52,39.26 41.43,39.78l1.08 0.01c34.03,0 43.58,-30.84 45.61,-39.7l-34.45 -18.32 -53.67 18.23zm42.49 42.96l-1.11 -0.01c-33.7,-0.63 -44.77,-43.14 -44.87,-43.58l-0.36 -1.41 57.78 -19.64 37.78 20.08 -0.23 1.17c-4.28,21.07 -19.4,43.39 -48.99,43.39z"></path> <path class="fil0" d="M973.82 622.33c0,0 10.47,41.75 43.35,42.37 32.87,0.61 45.27,-26.2 48.51,-42.11l-36.12 -19.21 -55.74 18.95z"></path> <path class="fil1" d="M975.75 623.34c2.19,7.17 13.53,39.26 41.44,39.78l1.07 0.01c34.05,0 43.58,-30.84 45.61,-39.7l-34.44 -18.32 -53.68 18.23zm42.5 42.96l-1.12 -0.01c-33.69,-0.63 -44.76,-43.14 -44.85,-43.58l-0.37 -1.41 57.78 -19.64 37.77 20.08 -0.23 1.17c-4.28,21.07 -19.4,43.39 -48.98,43.39z"></path> <path class="fil0" d="M1065.68 622.33c0,0 10.47,41.75 43.35,42.37 32.87,0.61 45.28,-26.2 48.51,-42.11l-36.11 -19.21 -55.75 18.95z"></path> <path class="fil1" d="M1067.61 623.34c2.2,7.17 13.54,39.26 41.45,39.78l1.08 0.01c34.03,0 43.56,-30.84 45.6,-39.7l-34.45 -18.32 -53.68 18.23zm42.5 42.96l-1.11 -0.01c-33.7,-0.63 -44.77,-43.14 -44.86,-43.58l-0.37 -1.41 57.78 -19.64 37.78 20.08 -0.24 1.17c-4.27,21.07 -19.39,43.39 -48.98,43.39z"></path> <path class="fil0" d="M1157.54 622.33c0,0 10.48,41.75 43.36,42.37l1.8 0 0 -57.72 -45.16 15.35z"></path> <path class="fil1" d="M1159.48 623.34c2.19,7.17 13.53,39.26 41.44,39.78l1.07 0.01 0.71 -0.01 0 3.17 -0.72 0.01 -1.12 -0.01c-33.7,-0.63 -44.75,-43.14 -44.85,-43.58l-0.37 -1.41 47.06 -16 0 3.36 -43.22 14.68z"></path> <path class="fil0" d="M695.02 634.02l0.61 0.02c32.88,0.61 45.29,-26.2 48.52,-42.12l-36.12 -19.21 -9.97 3.39 -3.04 57.92z"></path> <path class="fil1" d="M695.11 632.42l0.55 0.02 1.07 0.01c34.04,0 43.59,-30.82 45.62,-39.68l-34.46 -18.33 -9.92 3.37 0.18 -3.41 10.02 -3.41 37.77 20.09 -0.24 1.16c-4.27,21.08 -19.4,43.38 -48.99,43.38l-1.11 -0.01 -0.66 -0.02 0.17 -3.17z"></path> <path class="fil0" d="M744.15 591.66c0,0 10.48,41.76 43.35,42.38 32.88,0.61 45.29,-26.2 48.51,-42.12l-36.12 -19.21 -55.74 18.95z"></path> <path class="fil1" d="M746.08 592.68c2.19,7.17 13.53,39.24 41.44,39.76l1.07 0.01c34.04,0 43.59,-30.82 45.62,-39.68l-34.44 -18.33 -53.69 18.24zm42.5 42.94l-1.12 -0.01c-33.69,-0.63 -44.74,-43.13 -44.85,-43.56l-0.36 -1.42 57.78 -19.64 37.77 20.09 -0.23 1.16c-4.28,21.08 -19.41,43.38 -48.99,43.38z"></path> <path class="fil0" d="M836.01 591.66c0,0 10.47,41.76 43.35,42.38 32.88,0.61 45.29,-26.2 48.51,-42.12l-36.11 -19.21 -55.75 18.95z"></path> <path class="fil1" d="M837.96 592.68c2.18,7.17 13.51,39.24 41.44,39.76l1.07 0.01c34.03,0 43.57,-30.82 45.61,-39.68l-34.45 -18.33 -53.67 18.24zm42.49 42.94l-1.11 -0.01c-33.7,-0.63 -44.76,-43.13 -44.87,-43.56l-0.36 -1.42 57.78 -19.64 37.78 20.09 -0.24 1.16c-4.27,21.08 -19.39,43.38 -48.98,43.38z"></path> <path class="fil0" d="M927.87 591.66c0,0 10.48,41.76 43.37,42.38 32.87,0.61 45.27,-26.2 48.51,-42.12l-36.12 -19.21 -55.76 18.95z"></path> <path class="fil1" d="M929.82 592.68c2.19,7.17 13.53,39.24 41.44,39.76l1.07 0.01c34.05,0 43.57,-30.82 45.61,-39.68l-34.44 -18.33 -53.68 18.24zm42.5 42.94l-1.11 -0.01c-33.71,-0.63 -44.76,-43.13 -44.88,-43.56l-0.35 -1.42 57.78 -19.64 37.77 20.09 -0.23 1.16c-4.28,21.08 -19.4,43.38 -48.98,43.38z"></path> <path class="fil0" d="M1019.75 591.66c0,0 10.46,41.76 43.35,42.38 32.87,0.61 45.28,-26.2 48.51,-42.12l-36.11 -19.21 -55.75 18.95z"></path> <path class="fil1" d="M1021.68 592.68c2.2,7.17 13.54,39.24 41.46,39.76l1.06 0.01c34.04,0 43.57,-30.82 45.6,-39.68l-34.44 -18.33 -53.68 18.24zm42.51 42.94l-1.12 -0.01c-33.7,-0.63 -44.76,-43.13 -44.86,-43.56l-0.37 -1.42 57.78 -19.64 37.78 20.09 -0.24 1.16c-4.29,21.08 -19.39,43.38 -48.97,43.38z"></path> <path class="fil0" d="M1111.61 591.66c0,0 10.48,41.76 43.36,42.38 30.66,0.57 43.51,-22.73 47.73,-38.78l0 -3.75 -35.34 -18.8 -55.75 18.95z"></path> <path class="fil1" d="M1113.54 592.68c2.2,7.17 13.54,39.24 41.46,39.76l1.07 0.01c34.03,0 43.56,-30.82 45.6,-39.68l-34.45 -18.33 -53.68 18.24zm89.16 -2.96l0 11.03c-6.29,18.16 -21.06,34.87 -46.65,34.87l-1.12 -0.01c-33.7,-0.63 -44.75,-43.13 -44.85,-43.56l-0.37 -1.42 57.79 -19.64 35.2 18.73z"></path> <path class="fil1" d="M1202.7 590.25l0 4.35c-0.51,-1.55 -0.75,-2.49 -0.76,-2.55l-0.36 -1.42 1.12 -0.38z"></path> <path class="fil1" d="M698.57 566.51l0.35 -6.67 1.09 0.58 -0.25 1.16c-0.33,1.64 -0.72,3.29 -1.19,4.93z"></path> <path class="fil0" d="M698.76 562.9c2.51,8.15 14.15,39.94 42.81,40.48 32.88,0.6 45.29,-26.21 48.51,-42.12l-36.12 -19.21 -55.09 18.73 -0.11 2.12z"></path> <path class="fil1" d="M700.14 562c2.2,7.18 13.54,39.26 41.45,39.78l1.08 0.02c34.02,0 43.56,-30.83 45.61,-39.69l-34.44 -18.34 -53.7 18.23zm-1.6 5.09l0.42 -8.02 55.15 -18.74 37.76 20.09 -0.24 1.16c-4.28,21.08 -19.4,43.38 -48.99,43.38l-1.11 -0.01c-26.12,-0.49 -38.64,-26.16 -42.99,-37.86z"></path> <path class="fil0" d="M790.08 561c0,0 10.47,41.76 43.35,42.38 32.88,0.6 45.29,-26.21 48.51,-42.12l-36.11 -19.21 -55.75 18.95z"></path> <path class="fil1" d="M792.02 562c2.18,7.18 13.53,39.26 41.43,39.78l1.08 0.02c34.03,0 43.57,-30.83 45.61,-39.69l-34.44 -18.34 -53.68 18.23zm42.49 42.96l-1.12 -0.01c-33.68,-0.63 -44.75,-43.13 -44.85,-43.56l-0.36 -1.42 57.78 -19.64 37.78 20.09 -0.25 1.16c-4.27,21.08 -19.4,43.38 -48.98,43.38z"></path> <path class="fil0" d="M881.94 561c0,0 10.47,41.76 43.36,42.38 32.88,0.6 45.28,-26.21 48.52,-42.12l-36.13 -19.21 -55.75 18.95z"></path> <path class="fil1" d="M883.89 562c2.18,7.18 13.52,39.27 41.43,39.78l1.08 0.02c34.03,0 43.58,-30.83 45.61,-39.69l-34.45 -18.34 -53.67 18.23zm42.49 42.96l-1.11 -0.01c-33.7,-0.63 -44.77,-43.13 -44.87,-43.56l-0.36 -1.42 57.78 -19.64 37.78 20.09 -0.23 1.16c-4.28,21.08 -19.4,43.38 -48.99,43.38z"></path> <path class="fil0" d="M973.82 561c0,0 10.47,41.76 43.35,42.38 32.87,0.6 45.27,-26.21 48.51,-42.12l-36.12 -19.21 -55.74 18.95z"></path> <path class="fil1" d="M975.75 562c2.19,7.18 13.53,39.27 41.44,39.78l1.07 0.02c34.05,0 43.58,-30.83 45.61,-39.69l-34.44 -18.34 -53.68 18.23zm42.5 42.96l-1.12 -0.01c-33.69,-0.63 -44.76,-43.13 -44.85,-43.56l-0.37 -1.42 57.78 -19.64 37.77 20.09 -0.23 1.16c-4.28,21.08 -19.4,43.38 -48.98,43.38z"></path> <path class="fil0" d="M1065.68 561c0,0 10.47,41.76 43.35,42.38 32.87,0.6 45.28,-26.21 48.51,-42.12l-36.11 -19.21 -55.75 18.95z"></path> <path class="fil1" d="M1067.61 562c2.2,7.18 13.54,39.27 41.45,39.78l1.08 0.02c34.03,0 43.56,-30.83 45.6,-39.69l-34.45 -18.34 -53.68 18.23zm42.5 42.96l-1.11 -0.01c-33.7,-0.63 -44.77,-43.13 -44.86,-43.56l-0.37 -1.42 57.78 -19.64 37.78 20.09 -0.24 1.16c-4.27,21.08 -19.39,43.38 -48.98,43.38z"></path> <path class="fil0" d="M1157.54 561c0,0 10.48,41.76 43.36,42.38l1.8 0 0 -57.73 -45.16 15.35z"></path> <path class="fil1" d="M1159.48 562c2.19,7.18 13.53,39.27 41.44,39.78l1.07 0.02 0.71 -0.01 0 3.16 -0.72 0.01 -1.12 -0.01c-33.7,-0.63 -44.75,-43.13 -44.85,-43.56l-0.37 -1.42 47.06 -15.99 0 3.35 -43.22 14.67z"></path> <path class="fil0" d="M697.79 581.27c31.27,-0.56 43.2,-26.52 46.36,-42.08l-1.27 -0.67 -42.84 0 0 0 -2.25 42.75z"></path> <path class="fil1" d="M697.87 579.7c33.11,-0.69 42.46,-30.92 44.48,-39.68l-2.82 -1.5 6.38 0 -0.21 0.98c-4.23,20.84 -19.07,42.87 -47.99,43.36l0.16 -3.16z"></path> <path class="fil0" d="M744.15 538.92c0,0 10.48,41.75 43.35,42.36 32.88,0.62 45.29,-26.18 48.51,-42.09l-1.26 -0.67 -89.44 0 -1.16 0.4z"></path> <path class="fil1" d="M746.08 539.94c2.19,7.15 13.53,39.24 41.44,39.76l1.07 0.01c34.04,0 43.58,-30.83 45.62,-39.69l-2.82 -1.5 6.38 0 -0.2 0.98c-4.29,21.08 -19.41,43.38 -48.99,43.38l-1.12 0c-33.69,-0.64 -44.74,-43.14 -44.85,-43.58l-0.2 -0.78 7.87 0 -4.2 1.42z"></path> <path class="fil0" d="M836.01 538.92c0,0 10.47,41.75 43.35,42.37 32.88,0.61 45.29,-26.19 48.51,-42.1l-1.26 -0.67 -89.43 0 -1.17 0.4z"></path> <path class="fil1" d="M837.96 539.94c2.18,7.15 13.51,39.24 41.44,39.76l1.07 0.01c34.03,0 43.56,-30.83 45.61,-39.69l-2.83 -1.5 6.38 0 -0.2 0.98c-4.28,21.08 -19.4,43.39 -48.99,43.39l-1.1 -0.01c-33.7,-0.64 -44.76,-43.14 -44.87,-43.58l-0.2 -0.78 7.88 0 -4.19 1.42z"></path> <path class="fil0" d="M927.87 538.92c0,0 10.48,41.75 43.37,42.37 32.87,0.61 45.27,-26.19 48.51,-42.1l-1.26 -0.67 -89.45 0 -1.17 0.4z"></path> <path class="fil1" d="M929.82 539.94c2.19,7.15 13.53,39.24 41.44,39.76l1.07 0.01c34.05,0 43.56,-30.83 45.61,-39.69l-2.82 -1.5 6.38 0 -0.2 0.98c-4.29,21.08 -19.41,43.39 -48.99,43.39l-1.1 -0.01c-33.71,-0.64 -44.76,-43.14 -44.88,-43.58l-0.2 -0.78 7.88 0 -4.19 1.42z"></path> <path class="fil0" d="M1019.75 538.92c0,0 10.46,41.75 43.35,42.37 32.87,0.61 45.28,-26.19 48.51,-42.1l-1.26 -0.67 -89.44 0 -1.16 0.4z"></path> <path class="fil1" d="M1021.68 539.94c2.2,7.15 13.54,39.24 41.46,39.76l1.06 0.01c34.04,0 43.56,-30.83 45.6,-39.69l-2.82 -1.5 6.38 0 -0.2 0.98c-4.29,21.08 -19.41,43.39 -48.98,43.39l-1.11 -0.01c-33.7,-0.64 -44.76,-43.14 -44.86,-43.58l-0.2 -0.78 7.87 0 -4.2 1.42z"></path> <path class="fil0" d="M1111.61 538.92c0,0 10.48,41.75 43.36,42.37 30.66,0.56 43.51,-22.71 47.73,-38.76l0 -3.76 -0.48 -0.25 -89.44 0 -1.17 0.4z"></path> <path class="fil1" d="M1113.54 539.94c2.2,7.15 13.54,39.24 41.46,39.76l1.07 0.01c34.03,0 43.55,-30.83 45.6,-39.69l-2.82 -1.5 3.85 0 0 9.49c-6.29,18.17 -21.06,34.88 -46.65,34.88l-1.12 -0.01c-33.7,-0.64 -44.75,-43.14 -44.85,-43.58l-0.21 -0.78 7.87 0 -4.2 1.42z"></path> <path class="fil1" d="M1201.74 538.52l0.96 0 0 3.33c-0.51,-1.55 -0.75,-2.49 -0.76,-2.55l-0.2 -0.78z"></path> <polygon class="fil2" points="315.3,907.75 441.82,907.75 441.82,591.46 315.3,591.46 "></polygon> <path class="fil3" d="M453.01 607.27l-148.92 0c-8.1,0 -14.65,-6.56 -14.65,-14.65l0 -31.3c0,-8.1 6.55,-14.67 14.65,-14.67l148.92 0c8.09,0 14.66,6.57 14.66,14.67l0 31.3c0,8.09 -6.57,14.65 -14.66,14.65z"></path> <polygon class="fil3" points="315.3,671.2 441.82,671.2 441.82,659.34 315.3,659.34 "></polygon> <polygon class="fil3" points="372.62,665.26 384.48,665.26 384.48,590.48 372.62,590.48 "></polygon> <polygon class="fil3" points="372.62,793.1 384.48,793.1 384.48,722.91 372.62,722.91 "></polygon> <polygon class="fil3" points="315.3,733.79 441.82,733.79 441.82,721.93 315.3,721.93 "></polygon> <polygon class="fil3" points="315.3,796.39 441.82,796.39 441.82,784.53 315.3,784.53 "></polygon> <polygon class="fil3" points="315.3,851.26 441.82,851.26 441.82,839.39 315.3,839.39 "></polygon> <polygon class="fil4" points="1218.83,2109.03 215.44,2109.03 215.44,1014.13 717.14,527.12 1218.83,1032.45 "></polygon> <polygon class="fil3" points="207.18,1570.77 1210.56,1570.77 1210.56,1495.25 207.18,1495.25 "></polygon> <polygon class="fil3" points="945.85,961.13 1028.88,961.13 1028.88,917.64 945.85,917.64 "></polygon> <polygon class="fil3" points="230.61,1651.76 313.64,1651.76 313.64,1608.27 230.61,1608.27 "></polygon> <polygon class="fil3" points="206.97,1704.33 254.26,1704.33 254.26,1660.84 206.97,1660.84 "></polygon> <polygon class="fil3" points="1163.27,1853.13 1210.57,1853.13 1210.57,1809.66 1163.27,1809.66 "></polygon> <polygon class="fil3" points="1065.64,1020.51 1112.94,1020.51 1112.94,977 1065.64,977 "></polygon> <polygon class="fil3" points="524.72,905.09 589.8,905.09 589.8,861.6 524.72,861.6 "></polygon> <path class="fil5" d="M1210.57 1062.63l-480.54 -451.31c-5.95,-5.58 -13.56,-8.37 -21.16,-8.37 -7.61,0 -15.21,2.79 -21.14,8.37l-480.55 451.31 0 -79.75 516.65 -460.91 486.74 479.23 0 61.43z"></path> <path class="fil6" d="M699.17 463.16l-573.07 557.46c-8.96,8.7 -2.79,23.87 9.69,23.87l54.06 0c3.57,0 7,-1.37 9.58,-3.83l499.85 -475.67c5.38,-5.1 13.8,-5.1 19.17,0l499.86 475.67c2.58,2.46 6.01,3.83 9.59,3.83l54.06 0c12.49,0 18.65,-15.17 9.69,-23.87l-573.07 -557.46c-5.41,-5.25 -14.01,-5.25 -19.41,0z"></path> <path class="fil7" d="M1311.26 2110.38c31.97,-6.7 57.56,-36.55 59.27,-69.15 0.31,-5.68 -0.08,-11.52 -2.46,-16.68 -5.11,-11.08 -18.48,-16.37 -30.67,-15.69 -12.17,0.69 -23.48,6.15 -34.45,11.51 26.1,-33.91 45.71,-79.73 28.26,-118.78 -4.66,-10.43 -13.49,-20.62 -24.88,-20.65 -12.02,-0.01 -20.83,10.92 -27.36,21 -16.67,25.7 -31.12,52.83 -43.15,80.99 -4.48,-29.49 -13.78,-61.59 -39.17,-77.23 -3.75,-2.3 -8.01,-4.22 -12.36,-3.71 -4.14,0.48 -7.72,3.09 -10.72,5.99 -22.02,21.29 -20,56.51 -16.4,86.92 -6.68,-20.25 -34.15,-27.81 -53.38,-18.63 -19.24,9.2 -30.46,30.11 -34.73,51 -3.41,16.74 -2.99,34.84 4.81,50.05 7.8,15.2 25.03,34.2 42.08,33.06l195.31 0z"></path> <path class="fil7" d="M156.39 2113.57c-26.11,-5.46 -47,-29.85 -48.4,-56.48 -0.26,-4.62 0.06,-9.42 2,-13.63 4.18,-9.04 15.1,-13.37 25.04,-12.8 9.94,0.57 19.2,5.03 28.15,9.4 -21.32,-27.7 -37.33,-65.11 -23.08,-97.03 3.8,-8.5 11.01,-16.83 20.33,-16.86 9.81,-0.01 17,8.92 22.34,17.16 13.61,20.98 25.42,43.14 35.25,66.15 3.65,-24.1 11.24,-50.3 31.99,-63.09 3.05,-1.87 6.53,-3.43 10.09,-3.02 3.4,0.39 6.31,2.52 8.76,4.89 17.98,17.39 16.32,46.16 13.38,70.99 5.46,-16.54 27.88,-22.7 43.61,-15.2 15.71,7.5 24.89,24.57 28.37,41.64 2.77,13.67 2.44,28.47 -3.93,40.88 -6.37,12.41 -20.45,27.93 -34.37,27l-159.53 0z"></path> <path class="fil8" d="M760.21 1772.33c0,0 0.98,-59.98 -12.13,-61 -11.37,-0.89 -6.26,18.62 -8.86,32.47 -2.52,13.47 -9.84,38.37 -10.17,54.77 -2.55,-7.28 -1.6,-17.54 -1.6,-17.54 0,0 -12.65,16.95 -24.1,31.75 -11.46,14.79 -27.93,32.93 -29.36,40.33 -1.43,7.4 70.17,52.51 80.67,47.5 10.5,-5.02 28.59,-65.88 39.36,-81.63 10.76,-15.75 50.05,-69.38 53.59,-74.41 5.07,-7.21 4.58,-10.97 1.67,-13.32 -2.54,-2.06 -6.17,-2.6 -10.85,3 -2.5,3.01 -36.04,42.48 -36.04,42.48 0,0 36.5,-54.74 38.33,-57.38 3.62,-5.23 2.53,-9.29 -0.31,-11.62 -3.24,-2.66 -7.55,-2.34 -11.52,2.39 -2.26,2.68 -40.26,50.67 -40.26,50.67 0,0 30.08,-52.14 32.5,-56.42 3.7,-6.55 3.41,-11.51 -1.21,-14.2 -3.43,-1.99 -8.05,-2.54 -13.29,6.2 -3.91,6.51 -33.56,50.86 -33.56,50.86 0,0 22.87,-47.14 24.72,-50.67 3.39,-6.43 1.49,-10.47 -1.67,-12.27 -5.34,-3.06 -9.02,-0.29 -12.36,5.58 -2.54,4.45 -22.41,38.21 -22.41,38.21 2.05,18.12 1.4,32.53 -1.14,44.25z"></path> <path class="fil9" d="M702.53 1772.33c0,0 -0.98,-59.98 12.14,-61 11.37,-0.89 6.26,18.62 8.86,32.47 2.52,13.47 9.84,38.37 10.16,54.77 2.56,-7.28 1.6,-17.54 1.6,-17.54 0,0 12.66,16.95 24.11,31.75 11.46,14.79 27.93,32.93 29.36,40.33 1.43,7.4 -70.17,52.51 -80.67,47.5 -10.5,-5.02 -28.6,-65.88 -39.36,-81.63 -10.77,-15.75 -50.05,-69.38 -53.59,-74.41 -5.08,-7.21 -4.58,-10.97 -1.67,-13.32 2.54,-2.06 6.16,-2.6 10.84,3 2.51,3.01 36.04,42.48 36.04,42.48 0,0 -36.49,-54.74 -38.32,-57.38 -3.62,-5.23 -2.53,-9.29 0.31,-11.62 3.24,-2.66 7.54,-2.34 11.52,2.39 2.25,2.68 40.26,50.67 40.26,50.67 0,0 -30.08,-52.14 -32.5,-56.42 -3.7,-6.55 -3.42,-11.51 1.21,-14.2 3.43,-1.99 8.04,-2.54 13.29,6.2 3.91,6.51 33.56,50.86 33.56,50.86 0,0 -22.87,-47.14 -24.73,-50.67 -3.38,-6.43 -1.49,-10.47 1.68,-12.27 5.34,-3.06 9.02,-0.29 12.36,5.58 2.53,4.45 22.41,38.21 22.41,38.21 -2.05,18.12 -1.4,32.53 1.13,44.25z"></path> <path class="fil10" d="M1090.82 1932.49l-0.31 -67.4 54.74 -10.66 2.77 -68.45 -5.7 -33.31 -125.04 0.58 -5.38 33.37 3.4 68.41 54.84 10.16 0.31 67.39c0.03,5.63 4.61,10.17 10.24,10.14 5.62,-0.03 10.16,-4.61 10.13,-10.23zm-14.74 -0.76l0 0c-0.01,-2.51 2.02,-4.56 4.53,-4.57 2.52,-0.01 4.56,2.01 4.58,4.53 0.01,2.51 -2.02,4.56 -4.53,4.57 -2.52,0.01 -4.56,-2.02 -4.58,-4.53z"></path> <polygon class="fil11" points="1137.26,1839.01 1141.85,1786.01 1139.24,1752.68 1020.37,1753.23 1018.07,1786.59 1023.26,1839.56 1080.36,1850.39 "></polygon> <path class="fil10" d="M1115.78 1831.84l3.16 -21.8 -3.43 -37.2 -3.09 37.23 3.36 21.77zm-71.49 -58.67l0 0 -3.1 37.23 3.37 21.77 3.16 -21.8 -3.43 -37.2zm35.91 65.01l0 0 3.15 -24.89 -3.47 -43.37 -3.06 43.4 3.38 24.86z"></path> <path class="fil12" d="M580.34 1350.42c0,-6.78 -5.5,-12.27 -12.28,-12.27 -6.78,0 -12.27,5.49 -12.27,12.27l0 670.87 24.55 0 0 -670.87z"></path> <polygon class="fil13" points="739.6,2096.41 396.53,2096.41 413.14,2054.3 722.99,2054.3 "></polygon> <path class="fil14" d="M624.05 2046.48l0 -11.56c0,-13.92 -11.38,-25.31 -25.3,-25.31l-61.38 0c-13.91,0 -25.3,11.39 -25.3,25.31l0 11.56 111.98 0z"></path> <path class="fil14" d="M726.17 2032.2l-316.22 0c-3.24,0 -5.89,2.65 -5.89,5.89l0 12.75c0,3.24 2.65,5.9 5.89,5.9l316.22 0c3.24,0 5.89,-2.66 5.89,-5.9l0 -12.75c0,-3.24 -2.65,-5.89 -5.89,-5.89z"></path> <path class="fil15" d="M479.98 2096.41l8.02 0 -1.8 -26.68 -6.22 26.68zm224.16 -11.26l0 0 -1.51 11.26 5 0 -3.49 -11.26zm-206.75 11.26l0 0 6.41 0 -2.82 -12.3 -3.59 12.3z"></path> <path class="fil16" d="M305.13 1259.91c0,9.85 -7.98,16.94 -17.83,16.94 -9.85,0 -17.84,-7.09 -17.84,-16.94 0,-16.51 17.84,-30.32 17.84,-30.32 0,0 17.83,13.81 17.83,30.32z"></path> <path class="fil16" d="M401.58 1491.29l-11.48 -151.35c-0.35,-4.67 -4.47,-8.48 -9.15,-8.48l-6.11 0c10,-2.76 17.35,-11.91 17.35,-22.78 0,-13.05 -10.58,-23.63 -23.63,-23.63l-15.12 0 0 -30.13 -17.97 0 0 30.13 -15.13 0c-13.05,0 -23.63,10.58 -23.63,23.63 0,10.87 7.35,20.02 17.35,22.78l-6.11 0c-4.68,0 -8.8,3.81 -9.15,8.48l-11.48 151.35c-0.35,4.66 3.19,8.48 7.87,8.48l98.53 0c4.67,0 8.21,-3.82 7.86,-8.48z"></path> <path class="fil17" d="M366.68 1268.53l-6.8 0 0 -9.06 -30.85 0 0 9.06 -6.81 0 0 7.19 44.46 0 0 -7.19zm8.59 78.24l0 0 -61.63 0 -10.44 137.69 82.5 0 -10.43 -137.69z"></path> <path class="fil18" d="M438.11 1285.25l3.16 3.43c7.67,-5.34 15.26,-12.38 20.83,-20.55l0 4.03c0,2 1.64,3.64 3.64,3.64l13.96 0 0 18.52 30.62 0 0 -18.52 25.93 0c2.01,0 3.14,-1.56 2.52,-3.46l-10.49 -32.29c-0.62,-1.9 -2.76,-3.46 -4.76,-3.46l-61.42 0 -26.23 1.82 0 18.76 18.09 1.26c-2.98,10.41 -11.27,21.46 -15.85,26.82z"></path> <path class="fil8" d="M517.36 1290.18c0,0 -37.04,0 -40.17,0 -3.13,0 -7.41,1.4 -7.41,9.24 0,16.24 -3.42,26.5 -10.39,34.55 -5.48,6.34 -26.73,29.45 -31.92,34.83 -6.12,6.34 -12.29,12.49 -12.29,24.12l0 90.15c0,7.8 6.32,14.13 14.12,14.13l100.8 0c7.8,0 14.13,-6.33 14.13,-14.13l0 -64.67c0,-65.82 -26.87,-128.22 -26.87,-128.22z"></path> <path class="fil19" d="M511.12 1277.49l-32.1 0c-1.44,0 -2.61,1.18 -2.61,2.61l0 7.47c0,1.44 1.17,2.61 2.61,2.61l32.1 0c1.43,0 2.61,-1.17 2.61,-2.61l0 -7.47c0,-1.43 -1.18,-2.61 -2.61,-2.61z"></path> <path class="fil19" d="M453.96 1258.43c-2.98,10.41 -11.27,21.46 -15.85,26.82l3.16 3.43c7.67,-5.34 15.26,-12.38 20.83,-20.55l-0.25 -8.59 -7.89 -1.11z"></path> <polygon class="fil11" points="461.85,1236.59 435.87,1238.34 435.87,1257.17 461.85,1259.54 "></polygon> <path class="fil19" d="M492.92 1335c20.78,0 36.18,32.79 36.18,77.12 0,44.33 -21.16,70.03 -51.9,70.03 -30.75,0 -48.79,-18.59 -48.79,-57.96 0,-27.33 20.37,-38.83 31.83,-52.79 12.56,-15.31 13,-36.4 32.68,-36.4z"></path> <path class="fil12" d="M384.98 1698.05c0,-5.37 -4.35,-9.73 -9.72,-9.73 -5.38,0 -9.73,4.36 -9.73,9.73l0 180.78 19.45 0 0 -180.78z"></path> <path class="fil20" d="M403.51 1912.18l0 -4.71c0,-5.93 -4.85,-10.77 -10.77,-10.77l-1.01 0 0 -17.87 -32.95 0 0 17.87 -1.01 0c-5.92,0 -10.77,4.84 -10.77,10.77l0 4.71c-28.62,11.27 -48.87,39.16 -48.87,71.79l154.25 0c0,-32.63 -20.25,-60.52 -48.87,-71.79z"></path> <path class="fil21" d="M453.35 1980.22l-156.19 0c-1.61,0 -2.92,1.32 -2.92,2.93l0 8.38c0,1.61 1.31,2.93 2.92,2.93l156.19 0c1.61,0 2.92,-1.32 2.92,-2.93l0 -8.38c0,-1.61 -1.31,-2.93 -2.92,-2.93z"></path> <path class="fil10" d="M798.65 1886.04c-4.7,0 -8.5,-3.81 -8.5,-8.5 0,-4.7 3.8,-8.5 8.5,-8.5l197.9 0c4.69,0 8.49,3.8 8.49,8.5 0,4.69 -3.8,8.5 -8.49,8.5l-197.9 0z"></path> <path class="fil11" d="M994.24 1892.29l0.37 -6.25 -194.02 0 0.36 6.25 -7.59 0 0 24.15 9.01 0 9.77 166.39c0.42,7.18 6.65,13.06 13.84,13.06l143.23 0c7.2,0 13.43,-5.88 13.85,-13.06l9.76 -166.39 9.02 0 0 -24.15 -7.6 0z"></path> <path class="fil14" d="M897.59 2055.34c-15.45,0 -30.89,-0.34 -33.22,-1.02 -24.02,-7.02 -45.64,-21.92 -60.87,-41.95 -15.74,-20.69 -24.06,-45.4 -24.06,-71.47l0 -24.46c0,-7.67 6.24,-13.91 13.92,-13.91l0 4.21c-5.35,0 -9.71,4.35 -9.71,9.7l0 24.46c0,50.29 33.68,95.27 81.9,109.38 4.19,1.19 59.9,1.19 64.1,0 48.22,-14.11 81.89,-59.09 81.89,-109.38l0 -24.46c0,-5.35 -4.35,-9.7 -9.7,-9.7l0 -4.22c7.67,0 13.92,6.25 13.92,13.92l0 24.46c0,26.07 -8.32,50.78 -24.06,71.47 -15.24,20.03 -36.85,34.93 -60.87,41.95 -2.33,0.68 -17.78,1.02 -33.24,1.02z"></path> <polygon class="fil22" points="930.24,2060.17 864.96,2060.17 864.96,2047.55 930.24,2047.55 "></polygon> <path class="fil23" d="M690.8 1173.51c3.8,-5.01 11,-6.01 16.01,-2.22l214.77 162.54c5.01,3.79 6.01,10.99 2.22,16 -3.79,5.01 -10.99,6.01 -16,2.21l-214.78 -162.53c-5.01,-3.79 -6.01,-10.99 -2.22,-16z"></path> <path class="fil24" d="M705.93 1177.79c1.89,-2.51 5.49,-3 8,-1.11l212.21 160.59c2.5,1.9 3,5.5 1.1,8 -1.89,2.51 -5.49,3.01 -8,1.11l-212.21 -160.59c-2.5,-1.9 -3,-5.5 -1.1,-8z"></path> <path class="fil25" d="M938.45 1324.14c6.83,-5.36 14.29,-9.65 22.15,-12.85l65.19 49.34c4.97,3.76 5.82,11.07 1.91,16.25l0 0c-3.92,5.18 -11.19,6.34 -16.16,2.58l-73.09 -55.32zm52.4 -19.56l0 0c20.97,-1.07 42.42,4.95 60.47,18.61 1.48,1.13 2.92,2.29 4.32,3.48 0.32,4.25 0.45,8.5 0.39,12.76 -3.96,5 -11.09,6.08 -15.99,2.37l-49.19 -37.22zm-85.49 112.96l0 0c-2.3,-10.11 -2.91,-20.58 -1.76,-30.94l65.2 49.34c4.97,3.76 5.82,11.07 1.91,16.25 -3.92,5.17 -11.19,6.33 -16.16,2.58l-49.19 -37.23zm4.59 -55.74l0 0c2.96,-7.21 6.89,-14.16 11.82,-20.67l75.52 57.15c4.97,3.76 5.83,11.08 1.91,16.25l0 0c-3.92,5.18 -11.19,6.34 -16.15,2.58l-73.1 -55.31z"></path> <path class="fil26" d="M921.77 1341.13c4.92,-6.51 10.54,-12.18 16.68,-16.99l73.09 55.32c4.97,3.76 5.83,11.07 1.91,16.25 -3.92,5.17 -11.19,6.33 -16.16,2.57l-75.52 -57.15zm38.83 -29.84l0 0c9.65,-3.92 19.89,-6.18 30.25,-6.71l49.19 37.22c4.96,3.76 5.82,11.07 1.9,16.25 -3.91,5.18 -11.18,6.34 -16.15,2.58l-65.19 -49.34zm-16.37 162.6l0 0c-1.53,-1.02 -3.04,-2.09 -4.52,-3.21 -18.06,-13.66 -29.68,-32.67 -34.35,-53.14l49.19 37.22c4.9,3.71 5.8,10.88 2.07,16.04 -4.09,1.22 -8.22,2.25 -12.39,3.09zm-40.63 -87.29l0 0c0.94,-8.42 3.05,-16.77 6.35,-24.8l73.09 55.31c4.97,3.76 5.83,11.07 1.91,16.25 -3.91,5.18 -11.18,6.34 -16.15,2.58l-65.2 -49.34z"></path> <path class="fil27" d="M906.43 1329.52c14.04,-18.55 36.05,-27.51 57.63,-25.71 1.2,0.1 2.18,0.79 2.67,1.89 0.49,1.1 0.36,2.29 -0.37,3.25l-63.44 83.84c-0.73,0.96 -1.84,1.41 -3.03,1.24 -1.19,-0.17 -2.13,-0.93 -2.55,-2.05 -7.59,-20.29 -4.95,-43.91 9.09,-62.46z"></path> <path class="fil24" d="M917.62 1335.84c8.98,-11.87 23.07,-17.6 36.88,-16.45 0.77,0.07 1.39,0.51 1.71,1.21 0.31,0.71 0.23,1.47 -0.24,2.09l-40.59 53.64c-0.47,0.61 -1.18,0.9 -1.94,0.79 -0.77,-0.11 -1.37,-0.59 -1.63,-1.31 -4.86,-12.98 -3.18,-28.1 5.81,-39.97z"></path> <path class="fil28" d="M609.41 1453.19c4.18,0 7.6,3.42 7.6,7.6l0 20.66c0,4.18 -3.42,7.6 -7.6,7.6 -4.18,0 -7.6,-3.42 -7.6,-7.6l0 -20.66c0,-4.18 3.42,-7.6 7.6,-7.6z"></path> <path class="fil29" d="M628.51 1453.19c4.18,0 7.6,3.42 7.6,7.6l0 20.66c0,4.18 -3.42,7.6 -7.6,7.6 -4.18,0 -7.6,-3.42 -7.6,-7.6l0 -20.66c0,-4.18 3.42,-7.6 7.6,-7.6z"></path> <path class="fil28" d="M647.61 1453.19c4.19,0 7.61,3.42 7.61,7.6l0 20.66c0,4.18 -3.42,7.6 -7.61,7.6 -4.18,0 -7.6,-3.42 -7.6,-7.6l0 -20.66c0,-4.18 3.42,-7.6 7.6,-7.6z"></path> <path class="fil29" d="M666.72 1453.19c4.18,0 7.6,3.42 7.6,7.6l0 20.66c0,4.18 -3.42,7.6 -7.6,7.6 -4.18,0 -7.6,-3.42 -7.6,-7.6l0 -20.66c0,-4.18 3.42,-7.6 7.6,-7.6z"></path> <path class="fil28" d="M685.82 1453.19c4.18,0 7.6,3.42 7.6,7.6l0 20.66c0,4.18 -3.42,7.6 -7.6,7.6 -4.18,0 -7.6,-3.42 -7.6,-7.6l0 -20.66c0,-4.18 3.42,-7.6 7.6,-7.6z"></path> <path class="fil29" d="M704.92 1453.19c4.18,0 7.6,3.42 7.6,7.6l0 20.66c0,4.18 -3.42,7.6 -7.6,7.6 -4.18,0 -7.6,-3.42 -7.6,-7.6l0 -20.66c0,-4.18 3.42,-7.6 7.6,-7.6z"></path> <path class="fil28" d="M724.02 1453.19c4.19,0 7.61,3.42 7.61,7.6l0 20.66c0,4.18 -3.42,7.6 -7.61,7.6 -4.18,0 -7.6,-3.42 -7.6,-7.6l0 -20.66c0,-4.18 3.42,-7.6 7.6,-7.6z"></path> <polygon class="fil27" points="596.55,1463.13 736.89,1463.13 736.89,1443.24 596.55,1443.24 "></polygon> <polygon class="fil24" points="596.55,1453.19 736.89,1453.19 736.89,1443.24 596.55,1443.24 "></polygon> <path class="fil27" d="M666.72 1385.94c33.48,0 61.12,24.97 65.33,57.3l-12.89 0c-3.38,-25.95 -25.57,-46 -52.44,-46 -26.88,0 -49.07,20.05 -52.44,46l-12.89 0c4.2,-32.33 31.85,-57.3 65.33,-57.3z"></path> <path class="fil29" d="M338.16 1029.67l27.24 0c1.32,0 2.4,-1.08 2.4,-2.41l0 -30.44c0,-1.32 1.08,-2.4 2.4,-2.4l56.07 0c1.32,0 2.4,-1.08 2.4,-2.4l0 -33.94c0,-0.74 -0.3,-1.38 -0.87,-1.85 -0.57,-0.47 -1.26,-0.66 -1.98,-0.51l-88.11 18.71c-1.13,0.24 -1.95,1.19 -1.95,2.36l0 17.63 0 32.84c0,1.33 1.08,2.41 2.4,2.41z"></path> <path class="fil28" d="M347.78 1029.67l17.62 0c1.32,0 2.4,-1.08 2.4,-2.41l0 -30.44c0,-1.32 1.08,-2.4 2.4,-2.4l56.07 0c1.32,0 2.4,-1.08 2.4,-2.4l0 -23.03 -78.94 16.76c-1.14,0.24 -1.95,1.19 -1.95,2.36l0 17.63 0 23.93z"></path> <path class="fil30" d="M393.51 994.42c-0.52,6.89 -5.68,12.48 -12.36,13.65 -1.12,0.2 -2.19,-0.39 -2.63,-1.44 -0.44,-1.05 -0.1,-2.22 0.82,-2.88 3.26,-2.32 5.81,-5.55 7.29,-9.33l6.88 0z"></path> <path class="fil24" d="M333.96 1029.67l35.64 0c1.32,0 2.4,1.07 2.4,2.4l0 12.41c0,1.33 -1.08,2.41 -2.4,2.41l-35.64 0c-1.32,0 -2.4,-1.08 -2.4,-2.41l0 -12.41c0,-1.33 1.08,-2.4 2.4,-2.4z"></path> <path class="fil27" d="M339.51 1029.67l24.54 0c0.91,0 1.65,1.07 1.65,2.4l0 12.41c0,1.33 -0.74,2.41 -1.65,2.41l-24.54 0c-0.91,0 -1.66,-1.08 -1.66,-2.41l0 -12.41c0,-1.33 0.75,-2.4 1.66,-2.4z"></path> <path class="fil24" d="M345.06 1029.67l13.44 0c0.5,0 0.91,1.07 0.91,2.4l0 12.41c0,1.33 -0.41,2.41 -0.91,2.41l-13.44 0c-0.5,0 -0.91,-1.08 -0.91,-2.41l0 -12.41c0,-1.33 0.41,-2.4 0.91,-2.4z"></path> <path class="fil29" d="M335.28 1046.89l33 0c1.23,0 2.23,1.08 2.23,2.4l0 43.45 55.46 0c1.32,0 2.4,1.08 2.4,2.4l0 91.11c0,1.32 -1.08,2.4 -2.4,2.4l-90.51 0c-1.33,0 -2.41,-1.08 -2.41,-2.4l0 -84.5 0 -6.61 0 -45.85c0,-1.32 1,-2.4 2.23,-2.4z"></path> <path class="fil28" d="M349.17 1046.89l19.11 0c1.23,0 2.23,1.08 2.23,2.4l0 43.45 55.46 0c1.32,0 2.4,1.08 2.4,2.4l0 91.11c0,1.32 -1.08,2.4 -2.4,2.4l-76.8 0 0 -89.15 0 -7.21 0 -45.4z"></path> <path class="fil31" d="M361.01 1113.97l55.73 0c0.82,0 1.48,0.67 1.48,1.48l0 56.1c0,0.82 -0.66,1.48 -1.48,1.48l-55.73 0c-0.81,0 -1.48,-0.66 -1.48,-1.48l0 -56.1c0,-0.81 0.67,-1.48 1.48,-1.48z"></path> <path class="fil30" d="M418.22 1123.99l0 47.56c0,0.82 -0.66,1.48 -1.48,1.48l-49.6 0 0 -47.56c0,-0.82 0.66,-1.48 1.48,-1.48l49.6 0z"></path> <path class="fil30" d="M431.08 965.68l2.11 0c1.32,0 2.4,1.08 2.4,2.4l0 14.62c0,1.32 -1.08,2.4 -2.4,2.4l-2.11 0c-1.33,0 -2.41,-1.08 -2.41,-2.4l0 -14.62c0,-1.32 1.08,-2.4 2.41,-2.4z"></path> <path class="fil26" d="M1157.98 1324.07l0 -50.66c0,-14 -9,-25.96 -21.5,-30.4l0 -21.42 -25.33 0 0 21.42c-12.5,4.44 -21.49,16.4 -21.49,30.4l0 50.66c0,0.84 -1.03,0.86 -1.54,1.53 -1.65,2.2 -18.81,24.53 -18.81,24.57l0 115.14c0,17.76 14.49,32.25 32.25,32.25l44.52 0c17.76,0 32.24,-14.49 32.24,-32.25l0 -115.14c0,-0.04 -17.16,-22.37 -18.81,-24.57 -0.5,-0.67 -1.53,-0.69 -1.53,-1.53z"></path> <path class="fil25" d="M1157.98 1324.07l0 -50.66c0,-10.56 -5.12,-19.95 -12.99,-25.84 -3.58,-1.92 -7.56,-3.47 -11.84,-4.56l0 -1.38c-15.7,5.03 -26.7,16.35 -26.7,29.47l0 50.67c0,0.84 -1.43,0.85 -2.14,1.53 -2.29,2.2 -26.17,24.53 -26.17,24.57l0 115.14c0,17.76 20.16,32.24 44.87,32.24l35.02 0c11.87,-4.76 20.29,-16.4 20.29,-29.94l0 -115.14c0,-0.04 -17.16,-22.37 -18.81,-24.57 -0.5,-0.67 -1.53,-0.69 -1.53,-1.53z"></path> <polygon class="fil24" points="1089.66,1465.47 1157.98,1465.47 1157.98,1357.69 1089.66,1357.69 "></polygon> <polygon class="fil27" points="1089.66,1357.69 1157.98,1465.47 1089.66,1465.47 "></polygon> <path class="fil27" d="M1113.93 1212.37l19.77 0c4.43,0 8.06,3.63 8.06,8.07 0,4.43 -3.63,8.06 -8.06,8.06l-19.77 0c-4.43,0 -8.06,-3.63 -8.06,-8.06 0,-4.44 3.63,-8.07 8.06,-8.07z"></path> <path class="fil24" d="M1119.21 1212.37l9.21 0c4.44,0 8.06,3.63 8.06,8.07 0,4.43 -3.62,8.06 -8.06,8.06l-9.21 0c-4.43,0 -8.06,-3.63 -8.06,-8.06 0,-4.44 3.63,-8.07 8.06,-8.07z"></path> <path class="fil27" d="M1123.82 1212.37c4.06,0 7.39,3.33 7.39,7.39l0 1.35c0,4.06 -3.33,7.39 -7.39,7.39 -4.07,0 -7.39,-3.33 -7.39,-7.39l0 -1.35c0,-4.06 3.32,-7.39 7.39,-7.39z"></path> <path class="fil32" d="M672.04 816.63c13.35,-13.36 72.96,-75.67 72.96,-75.67l-7.16 -7.16 -7.16 -7.16c0,0 -62.32,59.6 -75.67,72.96 -13.35,13.35 -50.31,48.37 -51.86,49.92 -1.55,1.55 -0.97,5.23 1.35,7.55 2.33,2.32 5.04,5.03 5.04,5.03 0,0 2.7,2.71 5.03,5.03 2.32,2.33 6,2.91 7.54,1.36 1.55,-1.55 36.58,-38.51 49.93,-51.86z"></path> <path class="fil33" d="M746.42 703.93c2.84,1.29 0.9,5.55 3.61,8.52 2.71,2.97 11.87,8.51 13.29,11.48 1.42,2.97 2.84,5.93 4.64,7.74 1.81,1.81 8,7.48 9.55,9.03 0.77,0.78 3.22,-1.16 1.29,-3.09 -1.94,-1.94 -7.88,-8.12 -9.55,-11.09 -1.37,-2.43 -1.08,-6.33 1.15,-9.48 -1.44,-1.58 -7.19,-6.81 -13.27,-11.95 -6.58,-5.54 -18.84,-7.99 -31.35,-8.9 -9.2,-0.66 -18.11,3.97 -22.4,6.98 4.3,-1.59 10.1,-3.4 15.04,-3.75 9.16,-0.65 25.16,3.22 28,4.51z"></path> <path class="fil34" d="M782.15 748.44c-5.29,5.55 -5.41,8.52 -5.41,8.52 0,0 3.99,0.38 9.16,-4.78 5.16,-5.16 4.38,-8.77 4.38,-8.77 0,0 -2.84,-0.52 -8.13,5.03z"></path> <path class="fil35" d="M754.42 731.54c4.77,-3.22 10.19,-1.16 14.06,5.03 3.87,6.2 7.74,8.26 9.42,6.58 1.03,-1.03 2.54,-2.05 1.62,-3.98 -0.04,1.24 -1.45,2.09 -2.01,1.53 -1.55,-1.55 -7.74,-7.22 -9.55,-9.03 -1.8,-1.81 -3.22,-4.77 -4.64,-7.74 -1.42,-2.97 -10.58,-8.51 -13.29,-11.48 -2.71,-2.97 -0.77,-7.23 -3.61,-8.52 -2.84,-1.29 -18.84,-5.16 -28,-4.51 -4.94,0.35 -10.74,2.16 -15.04,3.75 -1.55,1.09 -2.5,1.97 -2.63,2.31 0.38,0.83 0.91,1.49 1.55,2.01 6.72,-1.77 17.49,-3.23 21.68,-3.05 5.95,0.24 17.54,4.14 16.79,9.53 -0.49,3.53 -3.28,5.71 -5.15,6.79 -2.29,3.01 -4.94,5.88 -4.94,5.88l14.32 14.32c0,0 4.64,-6.19 9.42,-9.42z"></path> <path class="fil36" d="M782.15 748.44c-5.29,5.55 -5.41,8.52 -5.41,8.52 0,0 3.99,0.38 9.16,-4.78 5.16,-5.16 4.38,-8.77 4.38,-8.77 0,0 -2.84,-0.52 -8.13,5.03z"></path> <path class="fil37" d="M761.12 736.44c1.55,1.55 2.2,2.2 5.04,5.04 2.83,2.83 2.32,7.22 3.61,8.51 1.29,1.29 6.97,6.97 6.97,6.97 0,0 0.12,-2.97 5.41,-8.52 5.29,-5.55 8.13,-5.03 8.13,-5.03 0.03,-1.4 -4.77,-5.55 -6.84,-7.61 -2.06,-2.06 -4.77,-2.97 -8.64,-6.32 -3.87,-3.36 -3.35,-11.1 -4.13,-12.13 -0.06,-0.08 -0.15,-0.19 -0.27,-0.31 -2.23,3.15 -2.52,7.05 -1.15,9.48 1.67,2.97 7.61,9.15 9.55,11.09 0.54,0.54 0.73,1.08 0.72,1.56 0.92,1.93 -0.59,2.95 -1.62,3.98 -1.68,1.68 -5.55,-0.38 -9.42,-6.58 -3.87,-6.19 -9.29,-8.25 -14.06,-5.03 -4.78,3.23 -9.42,9.42 -9.42,9.42 0,0 4.13,-4.13 6.58,-5.55 2.45,-1.42 8,-0.51 9.54,1.03z"></path> <path class="fil38" d="M740.77 713.97c0.75,-5.39 -10.84,-9.29 -16.79,-9.53 -4.19,-0.18 -14.96,1.28 -21.68,3.05 4.57,3.72 15.08,0.51 22.31,0.96 8.26,0.51 15.49,4.13 13.94,7.74 -0.55,1.27 -1.69,2.94 -2.93,4.57 1.87,-1.08 4.66,-3.26 5.15,-6.79z"></path> <path class="fil39" d="M880.55 956.62l64.38 -55.17c9.12,-7.82 10.18,-21.55 2.36,-30.68l-83.37 -97.28 -97.41 83.49 83.37 97.28c7.82,9.12 21.55,10.18 30.67,2.36z"></path> <path class="fil40" d="M912.74 929.03l33.26 -28.5c8.53,-7.31 9.52,-20.16 2.21,-28.69l-84.29 -98.35 -48.7 41.75 97.52 113.79z"></path> <polygon class="fil41" points="1060.32,1111.57 1070.53,1102.82 868.41,866.97 858.2,875.73 "></polygon> <polygon class="fil40" points="1065.43,1107.2 1060.32,1111.57 858.2,875.73 863.3,871.35 "></polygon> <polygon class="fil40" points="1102.69,1099.69 1052.31,1142.88 1040.23,1128.79 1090.62,1085.6 "></polygon> <path class="fil39" d="M656.89 1008.7l-34.53 -27.72c-2.67,-2.15 -2.76,-6.19 -0.18,-8.45 25.57,-22.37 55.78,-38.78 88.46,-48.05l0 0c8.78,-2.49 17.4,4.43 16.87,13.54l0 0c-1.99,33.91 -11.49,66.96 -27.8,96.75 -1.65,3.01 -5.61,3.8 -8.29,1.66l-34.53 -27.73z"></path> <path class="fil40" d="M699.71 1034.77c16.31,-29.79 25.81,-62.84 27.8,-96.75l0 0c0.26,-4.56 -1.76,-8.56 -4.94,-11.12l-65.68 81.8 34.53 27.73c2.68,2.14 6.64,1.35 8.29,-1.66z"></path> <polygon class="fil41" points="542.95,1141.9 551.47,1148.74 689.27,977.09 680.76,970.25 "></polygon> <polygon class="fil40" points="547.21,1145.32 542.95,1141.9 680.76,970.25 685.02,973.67 "></polygon> <path class="fil42" d="M553.74 1169.5l-1.69 -15.51 25.17 -31.36 -14.34 -11.51 -25.17 31.35 -15.52 1.7 0 0 -15.65 19.49 -4.56 5.68 5.68 4.56 20.2 16.21 3.48 2.79 2.2 1.77 20.21 -25.17 -0.01 0zm-21.32 14.94l0 0 -20.2 -16.22 13.76 -17.14 18.21 -1.99 1.99 18.21 -13.76 17.14z"></path> <polygon class="fil43" points="552.05,1153.99 577.22,1122.63 570.05,1116.88 544.19,1149.09 546.18,1167.3 532.42,1184.44 522.32,1176.33 517.76,1182 527.86,1190.11 531.34,1192.9 533.54,1194.67 553.75,1169.5 553.74,1169.5 "></polygon> <path class="fil0" d="M1764.51 664.19c91.93,0 170.24,32.57 234.95,97.73 64.71,65.15 97.06,143.69 97.06,235.62 0,90.59 -32.69,168.12 -98.06,232.61 -65.38,64.48 -143.36,96.72 -233.95,96.72 -89.7,0 -167.24,-32.46 -232.61,-97.39 -65.38,-64.93 -98.07,-142.25 -98.07,-231.94 0,-91.04 32.36,-169.36 97.06,-234.96 64.71,-65.59 142.58,-98.39 233.62,-98.39zm0 24.09c-85.68,0 -158.2,30.13 -217.55,90.37 -59.35,60.24 -89.03,133.21 -89.03,218.89 0,84.78 29.9,157.08 89.7,216.88 59.8,59.79 132.09,89.69 216.88,89.69 85.68,0 158.75,-29.78 219.22,-89.36 60.47,-59.57 90.7,-131.98 90.7,-217.21 0,-86.13 -30.12,-159.2 -90.37,-219.23 -60.24,-60.02 -133.43,-90.03 -219.55,-90.03zm-190.11 182.74l0 -11.38 117.15 0 82.33 174.04 76.31 -174.04 115.13 0 0 11.38 -9.37 0 -31.46 24.1 0 202.82 31.46 24.1 9.37 0 0 11.38 -157.3 0 0 -11.38 9.37 0 30.79 -24.1 0 -200.14 -103.08 235.62 -10.05 0 -103.08 -222.23 0 149.94 31.46 60.91 10.04 0 0 11.38 -98.4 0 0 -11.38 10.71 0 32.13 -60.91 0 -170.02 -30.79 -20.09 -12.72 0z"></path> <path id="_1" class="fil0" d="M2419.83 664.19c91.93,0 170.24,32.57 234.95,97.73 64.71,65.15 97.06,143.69 97.06,235.62 0,90.59 -32.69,168.12 -98.06,232.61 -65.38,64.48 -143.36,96.72 -233.95,96.72 -89.7,0 -167.24,-32.46 -232.61,-97.39 -65.38,-64.93 -98.07,-142.25 -98.07,-231.94 0,-91.04 32.36,-169.36 97.06,-234.96 64.71,-65.59 142.58,-98.39 233.62,-98.39zm0 24.09c-85.68,0 -158.2,30.13 -217.55,90.37 -59.35,60.24 -89.03,133.21 -89.03,218.89 0,84.78 29.9,157.08 89.7,216.88 59.8,59.79 132.09,89.69 216.88,89.69 85.68,0 158.75,-29.78 219.22,-89.36 60.47,-59.57 90.7,-131.98 90.7,-217.21 0,-86.13 -30.12,-159.2 -90.37,-219.23 -60.24,-60.02 -133.43,-90.03 -219.55,-90.03zm0 182.74c-14.28,0 -25.66,2.24 -34.14,6.7 -14.73,7.58 -24.32,25.43 -28.78,53.55 -2.24,13.39 -3.35,35.25 -3.35,65.6 0,21.42 0.89,40.83 2.68,58.23 2.23,23.21 7.81,39.72 16.73,49.54 9.82,11.6 25.88,17.4 48.2,17.4 15.17,0 26.99,-2.23 35.47,-6.69 15.18,-8.03 24.99,-25.88 29.46,-53.55 1.78,-12.05 2.67,-33.69 2.67,-64.93 0,-46.41 -4.68,-78.99 -14.05,-97.73 -9.37,-18.74 -27.67,-28.12 -54.89,-28.12zm3.34 -14.72c39.27,0 73.86,13.39 103.76,40.16 30.34,28.11 45.52,61.58 45.52,100.41 0,38.82 -15.4,71.84 -46.19,99.07 -30.79,27.22 -65.82,40.83 -105.09,40.83 -39.27,0 -74.08,-13.39 -104.43,-40.16 -31.68,-27.67 -47.52,-60.92 -47.52,-99.74 0,-40.17 15.84,-73.86 47.52,-101.08 30.35,-26.33 65.83,-39.49 106.43,-39.49z"></path> <path id="_2" class="fil0" d="M3075.15 664.19c91.93,0 170.24,32.57 234.95,97.73 64.71,65.15 97.06,143.69 97.06,235.62 0,90.59 -32.69,168.12 -98.06,232.61 -65.38,64.48 -143.36,96.72 -233.95,96.72 -89.7,0 -167.24,-32.46 -232.61,-97.39 -65.38,-64.93 -98.07,-142.25 -98.07,-231.94 0,-91.04 32.36,-169.36 97.06,-234.96 64.71,-65.59 142.58,-98.39 233.62,-98.39zm0 24.09c-85.68,0 -158.2,30.13 -217.55,90.37 -59.35,60.24 -89.03,133.21 -89.03,218.89 0,84.78 29.9,157.08 89.7,216.88 59.8,59.79 132.09,89.69 216.88,89.69 85.68,0 158.75,-29.78 219.22,-89.36 60.47,-59.57 90.7,-131.98 90.7,-217.21 0,-86.13 -30.12,-159.2 -90.37,-219.23 -60.24,-60.02 -133.43,-90.03 -219.55,-90.03zm124.5 338.04l10.71 4.69c-9.37,32.57 -24.76,58.01 -46.19,76.31 -22.75,19.63 -50.42,29.45 -83,29.45 -41.5,0 -77.2,-13.17 -107.1,-39.5 -29.9,-26.32 -44.85,-59.79 -44.85,-100.4 0,-37.49 14.51,-70.51 43.51,-99.07 29.01,-28.56 62.25,-42.84 99.74,-42.84 12.5,0 23.43,1.34 32.8,4.02 4.91,1.33 14.06,5.68 27.44,13.05 13.39,7.36 20.09,11.04 20.09,11.04 4.46,0 11.37,-3.57 20.75,-10.71 9.37,-7.14 15.84,-12.94 19.41,-17.4l8.03 0 0 106.43 -6.02 0c-11.16,-23.65 -26.78,-43.96 -46.86,-60.91 -23.21,-19.64 -46.41,-29.46 -69.62,-29.46 -43.28,0 -64.93,40.17 -64.93,120.49 0,33.03 5.14,60.92 15.4,83.67 13.83,30.35 35.25,45.52 64.26,45.52 25.44,0 48.2,-9.59 68.28,-28.78 17.85,-17.4 30.57,-39.27 38.15,-65.6z"></path> <path id="_3" class="fil0" d="M3730.47 664.19c91.93,0 170.24,32.57 234.95,97.73 64.71,65.15 97.06,143.69 97.06,235.62 0,90.59 -32.69,168.12 -98.06,232.61 -65.38,64.48 -143.36,96.72 -233.95,96.72 -89.7,0 -167.24,-32.46 -232.61,-97.39 -65.38,-64.93 -98.07,-142.25 -98.07,-231.94 0,-91.04 32.36,-169.36 97.06,-234.96 64.71,-65.59 142.58,-98.39 233.62,-98.39zm0 24.09c-85.68,0 -158.2,30.13 -217.55,90.37 -59.35,60.24 -89.03,133.21 -89.03,218.89 0,84.78 29.9,157.08 89.7,216.88 59.8,59.79 132.09,89.69 216.88,89.69 85.68,0 158.75,-29.78 219.22,-89.36 60.47,-59.57 90.7,-131.98 90.7,-217.21 0,-86.13 -30.12,-159.2 -90.37,-219.23 -60.24,-60.02 -133.43,-90.03 -219.55,-90.03zm-163.33 182.74l0 -11.38 176.72 0 0 11.38 -10.05 0 -22.09 22.09 39.5 58.91 32.8 -44.85 -26.78 -36.15 -9.37 0 0 -11.38 116.47 0 0 11.38 -12.05 0c-14.72,10.27 -32.13,23.21 -52.21,38.83l-41.5 53.55 60.91 89.03c5.81,9.37 16.07,24.09 30.8,44.18 0,0 11.82,8.47 35.47,25.43l11.38 0 0 11.38 -177.38 0 0 -11.38 9.37 0 25.44 -23.43 -47.53 -68.94 -38.82 50.87 35.47 41.5 9.37 0 0 11.38 -131.86 0 0 -11.38 11.38 0c17.85,-12.05 37.93,-26.55 60.24,-43.51l46.19 -60.24 -85.01 -123.84 -35.48 -23.43 -11.38 0z"></path> <path id="_4" class="fil0" d="M4385.79 664.19c91.93,0 170.24,32.57 234.95,97.73 64.71,65.15 97.06,143.69 97.06,235.62 0,90.59 -32.69,168.12 -98.06,232.61 -65.38,64.48 -143.36,96.72 -233.95,96.72 -89.7,0 -167.24,-32.46 -232.61,-97.39 -65.38,-64.93 -98.07,-142.25 -98.07,-231.94 0,-91.04 32.36,-169.36 97.06,-234.96 64.71,-65.59 142.58,-98.39 233.62,-98.39zm0 24.09c-85.68,0 -158.2,30.13 -217.55,90.37 -59.35,60.24 -89.03,133.21 -89.03,218.89 0,84.78 29.9,157.08 89.7,216.88 59.8,59.79 132.09,89.69 216.88,89.69 85.68,0 158.75,-29.78 219.22,-89.36 60.47,-59.57 90.7,-131.98 90.7,-217.21 0,-86.13 -30.12,-159.2 -90.37,-219.23 -60.24,-60.02 -133.43,-90.03 -219.55,-90.03zm0 182.74c-14.28,0 -25.66,2.24 -34.14,6.7 -14.73,7.58 -24.32,25.43 -28.78,53.55 -2.24,13.39 -3.35,35.25 -3.35,65.6 0,21.42 0.89,40.83 2.68,58.23 2.23,23.21 7.81,39.72 16.73,49.54 9.82,11.6 25.88,17.4 48.2,17.4 15.17,0 26.99,-2.23 35.47,-6.69 15.18,-8.03 24.99,-25.88 29.46,-53.55 1.78,-12.05 2.67,-33.69 2.67,-64.93 0,-46.41 -4.68,-78.99 -14.05,-97.73 -9.37,-18.74 -27.67,-28.12 -54.89,-28.12zm3.34 -14.72c39.27,0 73.86,13.39 103.76,40.16 30.34,28.11 45.52,61.58 45.52,100.41 0,38.82 -15.4,71.84 -46.19,99.07 -30.79,27.22 -65.82,40.83 -105.09,40.83 -39.27,0 -74.08,-13.39 -104.43,-40.16 -31.68,-27.67 -47.52,-60.92 -47.52,-99.74 0,-40.17 15.84,-73.86 47.52,-101.08 30.35,-26.33 65.83,-39.49 106.43,-39.49z"></path> <path id="_5" class="fil0" d="M5041.11 664.19c91.93,0 170.24,32.57 234.95,97.73 64.71,65.15 97.06,143.69 97.06,235.62 0,90.59 -32.69,168.12 -98.06,232.61 -65.38,64.48 -143.36,96.72 -233.95,96.72 -89.7,0 -167.24,-32.46 -232.61,-97.39 -65.38,-64.93 -98.07,-142.25 -98.07,-231.94 0,-91.04 32.36,-169.36 97.06,-234.96 64.71,-65.59 142.58,-98.39 233.62,-98.39zm0 24.09c-85.68,0 -158.2,30.13 -217.55,90.37 -59.35,60.24 -89.03,133.21 -89.03,218.89 0,84.78 29.9,157.08 89.7,216.88 59.8,59.79 132.09,89.69 216.88,89.69 85.68,0 158.75,-29.78 219.22,-89.36 60.47,-59.57 90.7,-131.98 90.7,-217.21 0,-86.13 -30.12,-159.2 -90.37,-219.23 -60.24,-60.02 -133.43,-90.03 -219.55,-90.03zm-104.43 273.78l4.02 -105.76 8.03 0c11.16,15.17 19.42,22.76 24.77,22.76 2.23,0 9.59,-2.9 22.09,-8.71 14.28,-6.24 23.2,-9.81 26.77,-10.71 8.04,-2.23 19.19,-3.34 33.47,-3.34 27.23,0 50.43,4.46 69.62,13.39 25.88,12.04 38.82,30.12 38.82,54.22 0,33.91 -23.87,56.22 -71.62,66.93 25.44,5.36 43.73,12.05 54.89,20.08 16.06,11.61 24.1,28.56 24.1,50.88 0,27.22 -16.29,47.52 -48.87,60.91 -23.65,9.37 -51.54,14.06 -83.67,14.06 -28.56,0 -53.1,-5.36 -73.63,-16.07 -25.89,-12.94 -38.83,-32.35 -38.83,-58.23 0,-12.94 3.8,-24.1 11.38,-33.47 7.59,-9.37 17.85,-14.06 30.79,-14.06 12.5,0 22.54,4.46 30.13,13.39 7.58,8.92 11.38,19.63 11.38,32.13 0,11.15 -3.24,20.86 -9.71,29.12 -6.47,8.25 -15.06,12.38 -25.77,12.38 -7.14,0 -13.39,-1.12 -18.74,-3.35 4.9,6.7 17.85,12.5 38.82,17.41 17.4,4.01 32.13,6.02 44.18,6.02 22.31,0 37.26,-4.91 44.85,-14.72 6.69,-8.48 10.04,-24.33 10.04,-47.53 0,-30.79 -4.91,-49.31 -14.73,-55.56 -6.25,-4.02 -26.77,-6.02 -61.58,-6.02l0 -13.39c32.58,0 51.99,-2.23 58.24,-6.7 8.03,-6.24 12.04,-24.32 12.04,-54.21 0,-35.26 -12.49,-52.89 -37.48,-52.89 -24.1,0 -46.19,9.38 -66.27,28.12 -18.3,17.4 -30.35,38.38 -36.15,62.92l-11.38 0z"></path> <path id="_6" class="fil0" d="M5696.43 664.19c91.93,0 170.24,32.57 234.95,97.73 64.71,65.15 97.06,143.69 97.06,235.62 0,90.59 -32.69,168.12 -98.06,232.61 -65.38,64.48 -143.36,96.72 -233.95,96.72 -89.7,0 -167.24,-32.46 -232.61,-97.39 -65.38,-64.93 -98.07,-142.25 -98.07,-231.94 0,-91.04 32.36,-169.36 97.06,-234.96 64.71,-65.59 142.58,-98.39 233.62,-98.39zm0 24.09c-85.68,0 -158.2,30.13 -217.55,90.37 -59.35,60.24 -89.03,133.21 -89.03,218.89 0,84.78 29.9,157.08 89.7,216.88 59.8,59.79 132.09,89.69 216.88,89.69 85.68,0 158.75,-29.78 219.22,-89.36 60.47,-59.57 90.7,-131.98 90.7,-217.21 0,-86.13 -30.12,-159.2 -90.37,-219.23 -60.24,-60.02 -133.43,-90.03 -219.55,-90.03zm0 182.74c-14.28,0 -25.66,2.24 -34.14,6.7 -14.73,7.58 -24.32,25.43 -28.78,53.55 -2.24,13.39 -3.35,35.25 -3.35,65.6 0,21.42 0.89,40.83 2.68,58.23 2.23,23.21 7.81,39.72 16.73,49.54 9.82,11.6 25.88,17.4 48.2,17.4 15.17,0 26.99,-2.23 35.47,-6.69 15.18,-8.03 24.99,-25.88 29.46,-53.55 1.78,-12.05 2.67,-33.69 2.67,-64.93 0,-46.41 -4.68,-78.99 -14.05,-97.73 -9.37,-18.74 -27.67,-28.12 -54.89,-28.12zm3.34 -14.72c39.27,0 73.86,13.39 103.76,40.16 30.34,28.11 45.52,61.58 45.52,100.41 0,38.82 -15.4,71.84 -46.19,99.07 -30.79,27.22 -65.82,40.83 -105.09,40.83 -39.27,0 -74.08,-13.39 -104.43,-40.16 -31.68,-27.67 -47.52,-60.92 -47.52,-99.74 0,-40.17 15.84,-73.86 47.52,-101.08 30.35,-26.33 65.83,-39.49 106.43,-39.49z"></path> <path id="_7" class="fil0" d="M6351.75 664.19c91.93,0 170.24,32.57 234.95,97.73 64.71,65.15 97.06,143.69 97.06,235.62 0,90.59 -32.69,168.12 -98.06,232.61 -65.38,64.48 -143.36,96.72 -233.95,96.72 -89.7,0 -167.24,-32.46 -232.61,-97.39 -65.38,-64.93 -98.07,-142.25 -98.07,-231.94 0,-91.04 32.36,-169.36 97.06,-234.96 64.71,-65.59 142.58,-98.39 233.62,-98.39zm0 24.09c-85.68,0 -158.2,30.13 -217.55,90.37 -59.35,60.24 -89.03,133.21 -89.03,218.89 0,84.78 29.9,157.08 89.7,216.88 59.8,59.79 132.09,89.69 216.88,89.69 85.68,0 158.75,-29.78 219.22,-89.36 60.47,-59.57 90.7,-131.98 90.7,-217.21 0,-86.13 -30.12,-159.2 -90.37,-219.23 -60.24,-60.02 -133.43,-90.03 -219.55,-90.03zm-47.53 184.75l0 225.58 31.46 23.43 10.04 0 0 11.38 -157.97 0 0 -11.38 10.04 0 30.12 -23.43 0 -203.49 -30.12 -24.1 -10.04 0 0 -11.38 331.34 0 0 11.38 -10.04 0 -29.45 24.1 0 203.49 29.45 23.43 10.04 0 0 11.38 -157.3 0 0 -11.38 10.04 0 30.79 -23.43 0 -225.58 -98.4 0z"></path> <path id="_8" class="fil0" d="M7007.07 664.19c91.93,0 170.24,32.57 234.95,97.73 64.71,65.15 97.06,143.69 97.06,235.62 0,90.59 -32.69,168.12 -98.06,232.61 -65.38,64.48 -143.36,96.72 -233.95,96.72 -89.7,0 -167.24,-32.46 -232.61,-97.39 -65.38,-64.93 -98.07,-142.25 -98.07,-231.94 0,-91.04 32.36,-169.36 97.06,-234.96 64.71,-65.59 142.58,-98.39 233.62,-98.39zm0 24.09c-85.68,0 -158.2,30.13 -217.55,90.37 -59.35,60.24 -89.03,133.21 -89.03,218.89 0,84.78 29.9,157.08 89.7,216.88 59.8,59.79 132.09,89.69 216.88,89.69 85.68,0 158.75,-29.78 219.22,-89.36 60.47,-59.57 90.7,-131.98 90.7,-217.21 0,-86.13 -30.12,-159.2 -90.37,-219.23 -60.24,-60.02 -133.43,-90.03 -219.55,-90.03zm-68.95 433.76l32.13 -25.43 0 -224.25 -18.07 0 -66.94 77.65 0 12.05 -10.71 0 0 -103.08 267.08 0 0 103.75 -12.05 0 0 -11.38 -65.6 -78.99 -18.07 0 0 225.58 30.79 24.1 12.72 0 0 10.71 -162.66 0 0 -10.71 11.38 0z"></path> <path id="_9" class="fil44 str0" d="M1764.51 664.19c91.93,0 170.24,32.57 234.95,97.73 64.71,65.15 97.06,143.69 97.06,235.62 0,90.59 -32.69,168.12 -98.06,232.61 -65.38,64.48 -143.36,96.72 -233.95,96.72 -89.7,0 -167.24,-32.46 -232.61,-97.39 -65.38,-64.93 -98.07,-142.25 -98.07,-231.94 0,-91.04 32.36,-169.36 97.06,-234.96 64.71,-65.59 142.58,-98.39 233.62,-98.39zm0 24.09c-85.68,0 -158.2,30.13 -217.55,90.37 -59.35,60.24 -89.03,133.21 -89.03,218.89 0,84.78 29.9,157.08 89.7,216.88 59.8,59.79 132.09,89.69 216.88,89.69 85.68,0 158.75,-29.78 219.22,-89.36 60.47,-59.57 90.7,-131.98 90.7,-217.21 0,-86.13 -30.12,-159.2 -90.37,-219.23 -60.24,-60.02 -133.43,-90.03 -219.55,-90.03zm-190.11 182.74l0 -11.38 117.15 0 82.33 174.04 76.31 -174.04 115.13 0 0 11.38 -9.37 0 -31.46 24.1 0 202.82 31.46 24.1 9.37 0 0 11.38 -157.3 0 0 -11.38 9.37 0 30.79 -24.1 0 -200.14 -103.08 235.62 -10.05 0 -103.08 -222.23 0 149.94 31.46 60.91 10.04 0 0 11.38 -98.4 0 0 -11.38 10.71 0 32.13 -60.91 0 -170.02 -30.79 -20.09 -12.72 0z"></path> <path id="_10" class="fil44 str0" d="M2419.83 664.19c91.93,0 170.24,32.57 234.95,97.73 64.71,65.15 97.06,143.69 97.06,235.62 0,90.59 -32.69,168.12 -98.06,232.61 -65.38,64.48 -143.36,96.72 -233.95,96.72 -89.7,0 -167.24,-32.46 -232.61,-97.39 -65.38,-64.93 -98.07,-142.25 -98.07,-231.94 0,-91.04 32.36,-169.36 97.06,-234.96 64.71,-65.59 142.58,-98.39 233.62,-98.39zm0 24.09c-85.68,0 -158.2,30.13 -217.55,90.37 -59.35,60.24 -89.03,133.21 -89.03,218.89 0,84.78 29.9,157.08 89.7,216.88 59.8,59.79 132.09,89.69 216.88,89.69 85.68,0 158.75,-29.78 219.22,-89.36 60.47,-59.57 90.7,-131.98 90.7,-217.21 0,-86.13 -30.12,-159.2 -90.37,-219.23 -60.24,-60.02 -133.43,-90.03 -219.55,-90.03zm0 182.74c-14.28,0 -25.66,2.24 -34.14,6.7 -14.73,7.58 -24.32,25.43 -28.78,53.55 -2.24,13.39 -3.35,35.25 -3.35,65.6 0,21.42 0.89,40.83 2.68,58.23 2.23,23.21 7.81,39.72 16.73,49.54 9.82,11.6 25.88,17.4 48.2,17.4 15.17,0 26.99,-2.23 35.47,-6.69 15.18,-8.03 24.99,-25.88 29.46,-53.55 1.78,-12.05 2.67,-33.69 2.67,-64.93 0,-46.41 -4.68,-78.99 -14.05,-97.73 -9.37,-18.74 -27.67,-28.12 -54.89,-28.12zm3.34 -14.72c39.27,0 73.86,13.39 103.76,40.16 30.34,28.11 45.52,61.58 45.52,100.41 0,38.82 -15.4,71.84 -46.19,99.07 -30.79,27.22 -65.82,40.83 -105.09,40.83 -39.27,0 -74.08,-13.39 -104.43,-40.16 -31.68,-27.67 -47.52,-60.92 -47.52,-99.74 0,-40.17 15.84,-73.86 47.52,-101.08 30.35,-26.33 65.83,-39.49 106.43,-39.49z"></path> <path id="_11" class="fil44 str0" d="M3075.15 664.19c91.93,0 170.24,32.57 234.95,97.73 64.71,65.15 97.06,143.69 97.06,235.62 0,90.59 -32.69,168.12 -98.06,232.61 -65.38,64.48 -143.36,96.72 -233.95,96.72 -89.7,0 -167.24,-32.46 -232.61,-97.39 -65.38,-64.93 -98.07,-142.25 -98.07,-231.94 0,-91.04 32.36,-169.36 97.06,-234.96 64.71,-65.59 142.58,-98.39 233.62,-98.39zm0 24.09c-85.68,0 -158.2,30.13 -217.55,90.37 -59.35,60.24 -89.03,133.21 -89.03,218.89 0,84.78 29.9,157.08 89.7,216.88 59.8,59.79 132.09,89.69 216.88,89.69 85.68,0 158.75,-29.78 219.22,-89.36 60.47,-59.57 90.7,-131.98 90.7,-217.21 0,-86.13 -30.12,-159.2 -90.37,-219.23 -60.24,-60.02 -133.43,-90.03 -219.55,-90.03zm124.5 338.04l10.71 4.69c-9.37,32.57 -24.76,58.01 -46.19,76.31 -22.75,19.63 -50.42,29.45 -83,29.45 -41.5,0 -77.2,-13.17 -107.1,-39.5 -29.9,-26.32 -44.85,-59.79 -44.85,-100.4 0,-37.49 14.51,-70.51 43.51,-99.07 29.01,-28.56 62.25,-42.84 99.74,-42.84 12.5,0 23.43,1.34 32.8,4.02 4.91,1.33 14.06,5.68 27.44,13.05 13.39,7.36 20.09,11.04 20.09,11.04 4.46,0 11.37,-3.57 20.75,-10.71 9.37,-7.14 15.84,-12.94 19.41,-17.4l8.03 0 0 106.43 -6.02 0c-11.16,-23.65 -26.78,-43.96 -46.86,-60.91 -23.21,-19.64 -46.41,-29.46 -69.62,-29.46 -43.28,0 -64.93,40.17 -64.93,120.49 0,33.03 5.14,60.92 15.4,83.67 13.83,30.35 35.25,45.52 64.26,45.52 25.44,0 48.2,-9.59 68.28,-28.78 17.85,-17.4 30.57,-39.27 38.15,-65.6z"></path> <path id="_12" class="fil44 str0" d="M3730.47 664.19c91.93,0 170.24,32.57 234.95,97.73 64.71,65.15 97.06,143.69 97.06,235.62 0,90.59 -32.69,168.12 -98.06,232.61 -65.38,64.48 -143.36,96.72 -233.95,96.72 -89.7,0 -167.24,-32.46 -232.61,-97.39 -65.38,-64.93 -98.07,-142.25 -98.07,-231.94 0,-91.04 32.36,-169.36 97.06,-234.96 64.71,-65.59 142.58,-98.39 233.62,-98.39zm0 24.09c-85.68,0 -158.2,30.13 -217.55,90.37 -59.35,60.24 -89.03,133.21 -89.03,218.89 0,84.78 29.9,157.08 89.7,216.88 59.8,59.79 132.09,89.69 216.88,89.69 85.68,0 158.75,-29.78 219.22,-89.36 60.47,-59.57 90.7,-131.98 90.7,-217.21 0,-86.13 -30.12,-159.2 -90.37,-219.23 -60.24,-60.02 -133.43,-90.03 -219.55,-90.03zm-163.33 182.74l0 -11.38 176.72 0 0 11.38 -10.05 0 -22.09 22.09 39.5 58.91 32.8 -44.85 -26.78 -36.15 -9.37 0 0 -11.38 116.47 0 0 11.38 -12.05 0c-14.72,10.27 -32.13,23.21 -52.21,38.83l-41.5 53.55 60.91 89.03c5.81,9.37 16.07,24.09 30.8,44.18 0,0 11.82,8.47 35.47,25.43l11.38 0 0 11.38 -177.38 0 0 -11.38 9.37 0 25.44 -23.43 -47.53 -68.94 -38.82 50.87 35.47 41.5 9.37 0 0 11.38 -131.86 0 0 -11.38 11.38 0c17.85,-12.05 37.93,-26.55 60.24,-43.51l46.19 -60.24 -85.01 -123.84 -35.48 -23.43 -11.38 0z"></path> <path id="_13" class="fil44 str0" d="M4385.79 664.19c91.93,0 170.24,32.57 234.95,97.73 64.71,65.15 97.06,143.69 97.06,235.62 0,90.59 -32.69,168.12 -98.06,232.61 -65.38,64.48 -143.36,96.72 -233.95,96.72 -89.7,0 -167.24,-32.46 -232.61,-97.39 -65.38,-64.93 -98.07,-142.25 -98.07,-231.94 0,-91.04 32.36,-169.36 97.06,-234.96 64.71,-65.59 142.58,-98.39 233.62,-98.39zm0 24.09c-85.68,0 -158.2,30.13 -217.55,90.37 -59.35,60.24 -89.03,133.21 -89.03,218.89 0,84.78 29.9,157.08 89.7,216.88 59.8,59.79 132.09,89.69 216.88,89.69 85.68,0 158.75,-29.78 219.22,-89.36 60.47,-59.57 90.7,-131.98 90.7,-217.21 0,-86.13 -30.12,-159.2 -90.37,-219.23 -60.24,-60.02 -133.43,-90.03 -219.55,-90.03zm0 182.74c-14.28,0 -25.66,2.24 -34.14,6.7 -14.73,7.58 -24.32,25.43 -28.78,53.55 -2.24,13.39 -3.35,35.25 -3.35,65.6 0,21.42 0.89,40.83 2.68,58.23 2.23,23.21 7.81,39.72 16.73,49.54 9.82,11.6 25.88,17.4 48.2,17.4 15.17,0 26.99,-2.23 35.47,-6.69 15.18,-8.03 24.99,-25.88 29.46,-53.55 1.78,-12.05 2.67,-33.69 2.67,-64.93 0,-46.41 -4.68,-78.99 -14.05,-97.73 -9.37,-18.74 -27.67,-28.12 -54.89,-28.12zm3.34 -14.72c39.27,0 73.86,13.39 103.76,40.16 30.34,28.11 45.52,61.58 45.52,100.41 0,38.82 -15.4,71.84 -46.19,99.07 -30.79,27.22 -65.82,40.83 -105.09,40.83 -39.27,0 -74.08,-13.39 -104.43,-40.16 -31.68,-27.67 -47.52,-60.92 -47.52,-99.74 0,-40.17 15.84,-73.86 47.52,-101.08 30.35,-26.33 65.83,-39.49 106.43,-39.49z"></path> <path id="_14" class="fil44 str0" d="M5041.11 664.19c91.93,0 170.24,32.57 234.95,97.73 64.71,65.15 97.06,143.69 97.06,235.62 0,90.59 -32.69,168.12 -98.06,232.61 -65.38,64.48 -143.36,96.72 -233.95,96.72 -89.7,0 -167.24,-32.46 -232.61,-97.39 -65.38,-64.93 -98.07,-142.25 -98.07,-231.94 0,-91.04 32.36,-169.36 97.06,-234.96 64.71,-65.59 142.58,-98.39 233.62,-98.39zm0 24.09c-85.68,0 -158.2,30.13 -217.55,90.37 -59.35,60.24 -89.03,133.21 -89.03,218.89 0,84.78 29.9,157.08 89.7,216.88 59.8,59.79 132.09,89.69 216.88,89.69 85.68,0 158.75,-29.78 219.22,-89.36 60.47,-59.57 90.7,-131.98 90.7,-217.21 0,-86.13 -30.12,-159.2 -90.37,-219.23 -60.24,-60.02 -133.43,-90.03 -219.55,-90.03zm-104.43 273.78l4.02 -105.76 8.03 0c11.16,15.17 19.42,22.76 24.77,22.76 2.23,0 9.59,-2.9 22.09,-8.71 14.28,-6.24 23.2,-9.81 26.77,-10.71 8.04,-2.23 19.19,-3.34 33.47,-3.34 27.23,0 50.43,4.46 69.62,13.39 25.88,12.04 38.82,30.12 38.82,54.22 0,33.91 -23.87,56.22 -71.62,66.93 25.44,5.36 43.73,12.05 54.89,20.08 16.06,11.61 24.1,28.56 24.1,50.88 0,27.22 -16.29,47.52 -48.87,60.91 -23.65,9.37 -51.54,14.06 -83.67,14.06 -28.56,0 -53.1,-5.36 -73.63,-16.07 -25.89,-12.94 -38.83,-32.35 -38.83,-58.23 0,-12.94 3.8,-24.1 11.38,-33.47 7.59,-9.37 17.85,-14.06 30.79,-14.06 12.5,0 22.54,4.46 30.13,13.39 7.58,8.92 11.38,19.63 11.38,32.13 0,11.15 -3.24,20.86 -9.71,29.12 -6.47,8.25 -15.06,12.38 -25.77,12.38 -7.14,0 -13.39,-1.12 -18.74,-3.35 4.9,6.7 17.85,12.5 38.82,17.41 17.4,4.01 32.13,6.02 44.18,6.02 22.31,0 37.26,-4.91 44.85,-14.72 6.69,-8.48 10.04,-24.33 10.04,-47.53 0,-30.79 -4.91,-49.31 -14.73,-55.56 -6.25,-4.02 -26.77,-6.02 -61.58,-6.02l0 -13.39c32.58,0 51.99,-2.23 58.24,-6.7 8.03,-6.24 12.04,-24.32 12.04,-54.21 0,-35.26 -12.49,-52.89 -37.48,-52.89 -24.1,0 -46.19,9.38 -66.27,28.12 -18.3,17.4 -30.35,38.38 -36.15,62.92l-11.38 0z"></path> <path id="_15" class="fil44 str0" d="M5696.43 664.19c91.93,0 170.24,32.57 234.95,97.73 64.71,65.15 97.06,143.69 97.06,235.62 0,90.59 -32.69,168.12 -98.06,232.61 -65.38,64.48 -143.36,96.72 -233.95,96.72 -89.7,0 -167.24,-32.46 -232.61,-97.39 -65.38,-64.93 -98.07,-142.25 -98.07,-231.94 0,-91.04 32.36,-169.36 97.06,-234.96 64.71,-65.59 142.58,-98.39 233.62,-98.39zm0 24.09c-85.68,0 -158.2,30.13 -217.55,90.37 -59.35,60.24 -89.03,133.21 -89.03,218.89 0,84.78 29.9,157.08 89.7,216.88 59.8,59.79 132.09,89.69 216.88,89.69 85.68,0 158.75,-29.78 219.22,-89.36 60.47,-59.57 90.7,-131.98 90.7,-217.21 0,-86.13 -30.12,-159.2 -90.37,-219.23 -60.24,-60.02 -133.43,-90.03 -219.55,-90.03zm0 182.74c-14.28,0 -25.66,2.24 -34.14,6.7 -14.73,7.58 -24.32,25.43 -28.78,53.55 -2.24,13.39 -3.35,35.25 -3.35,65.6 0,21.42 0.89,40.83 2.68,58.23 2.23,23.21 7.81,39.72 16.73,49.54 9.82,11.6 25.88,17.4 48.2,17.4 15.17,0 26.99,-2.23 35.47,-6.69 15.18,-8.03 24.99,-25.88 29.46,-53.55 1.78,-12.05 2.67,-33.69 2.67,-64.93 0,-46.41 -4.68,-78.99 -14.05,-97.73 -9.37,-18.74 -27.67,-28.12 -54.89,-28.12zm3.34 -14.72c39.27,0 73.86,13.39 103.76,40.16 30.34,28.11 45.52,61.58 45.52,100.41 0,38.82 -15.4,71.84 -46.19,99.07 -30.79,27.22 -65.82,40.83 -105.09,40.83 -39.27,0 -74.08,-13.39 -104.43,-40.16 -31.68,-27.67 -47.52,-60.92 -47.52,-99.74 0,-40.17 15.84,-73.86 47.52,-101.08 30.35,-26.33 65.83,-39.49 106.43,-39.49z"></path> <path id="_16" class="fil44 str0" d="M6351.75 664.19c91.93,0 170.24,32.57 234.95,97.73 64.71,65.15 97.06,143.69 97.06,235.62 0,90.59 -32.69,168.12 -98.06,232.61 -65.38,64.48 -143.36,96.72 -233.95,96.72 -89.7,0 -167.24,-32.46 -232.61,-97.39 -65.38,-64.93 -98.07,-142.25 -98.07,-231.94 0,-91.04 32.36,-169.36 97.06,-234.96 64.71,-65.59 142.58,-98.39 233.62,-98.39zm0 24.09c-85.68,0 -158.2,30.13 -217.55,90.37 -59.35,60.24 -89.03,133.21 -89.03,218.89 0,84.78 29.9,157.08 89.7,216.88 59.8,59.79 132.09,89.69 216.88,89.69 85.68,0 158.75,-29.78 219.22,-89.36 60.47,-59.57 90.7,-131.98 90.7,-217.21 0,-86.13 -30.12,-159.2 -90.37,-219.23 -60.24,-60.02 -133.43,-90.03 -219.55,-90.03zm-47.53 184.75l0 225.58 31.46 23.43 10.04 0 0 11.38 -157.97 0 0 -11.38 10.04 0 30.12 -23.43 0 -203.49 -30.12 -24.1 -10.04 0 0 -11.38 331.34 0 0 11.38 -10.04 0 -29.45 24.1 0 203.49 29.45 23.43 10.04 0 0 11.38 -157.3 0 0 -11.38 10.04 0 30.79 -23.43 0 -225.58 -98.4 0z"></path> <path id="_17" class="fil44 str0" d="M7007.07 664.19c91.93,0 170.24,32.57 234.95,97.73 64.71,65.15 97.06,143.69 97.06,235.62 0,90.59 -32.69,168.12 -98.06,232.61 -65.38,64.48 -143.36,96.72 -233.95,96.72 -89.7,0 -167.24,-32.46 -232.61,-97.39 -65.38,-64.93 -98.07,-142.25 -98.07,-231.94 0,-91.04 32.36,-169.36 97.06,-234.96 64.71,-65.59 142.58,-98.39 233.62,-98.39zm0 24.09c-85.68,0 -158.2,30.13 -217.55,90.37 -59.35,60.24 -89.03,133.21 -89.03,218.89 0,84.78 29.9,157.08 89.7,216.88 59.8,59.79 132.09,89.69 216.88,89.69 85.68,0 158.75,-29.78 219.22,-89.36 60.47,-59.57 90.7,-131.98 90.7,-217.21 0,-86.13 -30.12,-159.2 -90.37,-219.23 -60.24,-60.02 -133.43,-90.03 -219.55,-90.03zm-68.95 433.76l32.13 -25.43 0 -224.25 -18.07 0 -66.94 77.65 0 12.05 -10.71 0 0 -103.08 267.08 0 0 103.75 -12.05 0 0 -11.38 -65.6 -78.99 -18.07 0 0 225.58 30.79 24.1 12.72 0 0 10.71 -162.66 0 0 -10.71 11.38 0z"></path> <polygon class="fil45" points="3198.6,1633.34 3110.11,1633.34 3110.11,1849.68 3036.08,1849.68 3036.08,1633.34 2949.08,1633.34 2949.08,1573.77 3198.6,1573.77 "></polygon> <path id="1" class="fil45" d="M3216.89 1709.2c0,-27.44 5.31,-51.82 15.85,-73.25 10.54,-21.42 25.7,-38.06 45.55,-49.81 19.77,-11.76 42.77,-17.6 68.98,-17.6 37.28,0 67.67,11.41 91.27,34.23 23.52,22.73 36.67,53.74 39.37,92.84l0.52 18.9c0,42.42 -11.84,76.38 -35.44,101.99 -23.69,25.6 -55.4,38.41 -95.2,38.41 -39.8,0 -71.59,-12.81 -95.28,-38.33 -23.77,-25.51 -35.62,-60.18 -35.62,-104.07l0 -3.31zm73.77 5.22c0,26.22 4.88,46.25 14.81,60.1 9.84,13.85 23.95,20.81 42.32,20.81 17.86,0 31.79,-6.88 41.81,-20.55 10.1,-13.67 15.07,-35.62 15.07,-65.76 0,-25.69 -4.97,-45.63 -15.07,-59.74 -10.02,-14.11 -24.13,-21.17 -42.33,-21.17 -18.03,0 -31.96,7.06 -41.8,21.08 -9.93,14.02 -14.81,35.8 -14.81,65.23z"></path> <path id="2" class="fil45" d="M3528.86 1849.68l0 -275.91 115.31 0c37.63,0 66.46,6.62 86.49,19.86 20.12,13.32 30.13,32.31 30.13,57.13 0,12.71 -4.18,24.21 -12.63,34.31 -8.44,10.11 -20.72,17.86 -36.84,23.26 19.69,3.74 35.28,11.15 46.51,22.12 11.32,10.97 16.98,24.39 16.98,40.41 0,25.69 -9.66,45.2 -28.91,58.7 -19.34,13.41 -47.38,20.12 -84.13,20.12l-132.91 0zm73.77 -114.44l0 55.39 59.4 0c26.04,0 39.1,-9.06 39.1,-27.17 0,-18.47 -12.45,-27.87 -37.27,-28.22l-61.23 0zm0 -49.64l45.64 0c25.86,-0.35 38.84,-8.63 38.84,-24.74 0,-9.93 -3.57,-16.98 -10.62,-21.25 -7.06,-4.18 -17.86,-6.27 -32.32,-6.27l-41.54 0 0 52.26z"></path> <path id="3" class="fil45" d="M3979.75 1849.68c-3.4,-6.62 -5.84,-14.81 -7.41,-24.65 -17.85,19.95 -41.11,29.88 -69.67,29.88 -27,0 -49.47,-7.84 -67.24,-23.52 -17.76,-15.68 -26.65,-35.45 -26.65,-59.31 0,-29.26 10.89,-51.73 32.57,-67.41 21.69,-15.68 53.04,-23.6 93.98,-23.78l33.96 0 0 -15.67c0,-12.72 -3.3,-22.82 -9.84,-30.4 -6.53,-7.58 -16.89,-11.41 -31,-11.41 -12.37,0 -22.12,2.96 -29.18,8.8 -7.05,5.83 -10.62,13.93 -10.62,24.12l-73.68 0c0,-15.94 4.87,-30.74 14.71,-44.24 9.93,-13.59 23.87,-24.21 41.9,-31.96 18.02,-7.76 38.23,-11.59 60.7,-11.59 34.05,0 61.05,8.54 81,25.61 20.03,17.16 30.04,41.11 30.04,72.11l0 119.67c0.18,26.13 3.84,45.98 10.98,59.4l0 4.35 -74.55 0zm-60.97 -51.21c10.89,0 20.9,-2.44 30.13,-7.23 9.15,-4.88 15.94,-11.41 20.38,-19.51l0 -47.46 -27.52 0c-36.92,0 -56.61,12.71 -58.96,38.23l-0.26 4.35c0,9.15 3.22,16.73 9.67,22.74 6.44,5.92 15.33,8.88 26.56,8.88z"></path> <path id="4" class="fil45" d="M4348.5 1714.25c0,42.59 -9.67,76.64 -29,102.25 -19.25,25.6 -45.38,38.41 -78.21,38.41 -27.87,0 -50.43,-9.67 -67.59,-29.09l0 129.94 -73.76 0 0 -381.99 68.36 0 2.62 27c17.85,-21.51 41.1,-32.23 69.93,-32.23 33.97,0 60.45,12.63 79.34,37.8 18.82,25.17 28.31,59.83 28.31,104.08l0 3.83zm-73.77 -5.57c0,-25.78 -4.53,-45.64 -13.67,-59.58 -9.06,-14.02 -22.3,-20.99 -39.63,-20.99 -23.17,0 -39.02,8.89 -47.73,26.57l0 113.31c8.97,18.2 25.09,27.34 48.25,27.34 35.19,0 52.78,-28.91 52.78,-86.65z"></path> <path id="5" class="fil45" d="M4473.13 1654.77l52.78 0c23.77,0 44.76,4 62.79,11.93 18.03,8.01 31.79,19.42 41.46,34.31 9.58,14.89 14.37,32.14 14.37,51.82 0,29.09 -10.71,52.43 -32.23,70.2 -21.51,17.77 -50.86,26.65 -87.96,26.65l-125.24 0 0 -275.91 74.03 0 0 81zm288.8 194.91l-73.77 0 0 -275.91 73.77 0 0 275.91zm-288.8 -135.34l0 76.29 52.25 0c14.64,0 25.87,-3.4 33.71,-10.1 7.84,-6.71 11.76,-15.94 11.76,-27.52 0,-11.85 -3.83,-21.17 -11.5,-28.22 -7.66,-6.97 -18.98,-10.45 -33.97,-10.45l-52.25 0z"></path> <path id="6" class="fil45" d="M4960.51 1790.11c16.72,-17.68 28.04,-35.19 33.97,-52.52 5.92,-17.33 9.23,-41.89 9.93,-73.59l2.09 -90.23 203.1 0 0 216.34 39.8 0 0 142.66 -73.77 0 0 -83.09 -163.56 0 0 83.09 -75.25 0 0 -142.66 23.69 0zm87.01 0l88.57 0 0 -155.2 -57.39 0 -0.53 33.09c-1.56,50.52 -11.75,91.28 -30.65,122.11z"></path> <path id="7" class="fil45" d="M5526.7 1573.77l0 275.91 -73.76 0 0 -216.34 -65.06 0 -4.53 85.18c-2.96,45.46 -11.85,78.56 -26.83,99.28 -14.98,20.73 -37.27,31.36 -66.88,31.88l-25 0 -0.7 -59.57 9.15 -0.79c13.24,-1.04 22.99,-8.88 29.09,-23.51 6.09,-14.63 9.93,-39.54 11.49,-74.81l5.06 -117.23 207.97 0z"></path> <path id="8" class="fil45" d="M5813.77 1573.77l0 275.91 -73.42 0 0 -95.11 -46.69 0 -53.12 95.11 -74.73 0 60.18 -107.65c-16.46,-7.66 -29.17,-18.03 -38.14,-31.18 -8.89,-13.06 -13.42,-27.95 -13.42,-44.68 0,-26.73 10.37,-48.59 31.01,-65.75 20.73,-17.07 48.42,-25.95 83.09,-26.65l125.24 0zm-123.94 129.07l50.52 0 0 -69.5 -47.99 0c-13.07,0 -23.69,3.4 -31.88,10.28 -8.19,6.88 -12.28,15.15 -12.28,24.99 0,9.76 3.92,17.94 11.76,24.3 7.84,6.45 17.77,9.76 29.87,9.93z"></path> <path id="9" class="fil45" d="M6009.64 1790.11c16.72,-17.68 28.04,-35.19 33.97,-52.52 5.92,-17.33 9.23,-41.89 9.93,-73.59l2.09 -90.23 203.1 0 0 216.34 39.8 0 0 142.66 -73.77 0 0 -83.09 -163.56 0 0 83.09 -75.25 0 0 -142.66 23.69 0zm87.01 0l88.57 0 0 -155.2 -57.39 0 -0.53 33.09c-1.56,50.52 -11.75,91.28 -30.65,122.11z"></path> <path id="10" class="fil45" d="M6324.22 1709.2c0,-27.44 5.31,-51.82 15.85,-73.25 10.54,-21.42 25.7,-38.06 45.55,-49.81 19.77,-11.76 42.77,-17.6 68.98,-17.6 37.28,0 67.67,11.41 91.27,34.23 23.52,22.73 36.67,53.74 39.37,92.84l0.52 18.9c0,42.42 -11.84,76.38 -35.44,101.99 -23.69,25.6 -55.4,38.41 -95.2,38.41 -39.8,0 -71.59,-12.81 -95.28,-38.33 -23.77,-25.51 -35.62,-60.18 -35.62,-104.07l0 -3.31zm73.77 5.22c0,26.22 4.88,46.25 14.81,60.1 9.84,13.85 23.95,20.81 42.32,20.81 17.86,0 31.79,-6.88 41.81,-20.55 10.1,-13.67 15.07,-35.62 15.07,-65.76 0,-25.69 -4.97,-45.63 -15.07,-59.74 -10.02,-14.11 -24.13,-21.17 -42.33,-21.17 -18.03,0 -31.96,7.06 -41.8,21.08 -9.93,14.02 -14.81,35.8 -14.81,65.23z"></path> <polygon id="11" class="fil45" points="6799.49,1762.76 6871.69,1573.77 6964.1,1573.77 6964.1,1849.68 6890.33,1849.68 6890.33,1680.37 6824.23,1849.68 6774.76,1849.68 6709.96,1683.16 6709.96,1849.68 6636.19,1849.68 6636.19,1573.77 6727.81,1573.77 "></polygon> <path id="12" class="fil45" d="M7188.11 1849.68c-3.4,-6.62 -5.84,-14.81 -7.41,-24.65 -17.85,19.95 -41.11,29.88 -69.67,29.88 -27,0 -49.47,-7.84 -67.24,-23.52 -17.76,-15.68 -26.65,-35.45 -26.65,-59.31 0,-29.26 10.89,-51.73 32.57,-67.41 21.69,-15.68 53.04,-23.6 93.98,-23.78l33.96 0 0 -15.67c0,-12.72 -3.3,-22.82 -9.84,-30.4 -6.53,-7.58 -16.89,-11.41 -31,-11.41 -12.37,0 -22.12,2.96 -29.18,8.8 -7.05,5.83 -10.62,13.93 -10.62,24.12l-73.68 0c0,-15.94 4.87,-30.74 14.71,-44.24 9.93,-13.59 23.87,-24.21 41.9,-31.96 18.02,-7.76 38.23,-11.59 60.7,-11.59 34.05,0 61.05,8.54 81,25.61 20.03,17.16 30.04,41.11 30.04,72.11l0 119.67c0.18,26.13 3.84,45.98 10.98,59.4l0 4.35 -74.55 0zm-60.97 -51.21c10.89,0 20.9,-2.44 30.13,-7.23 9.15,-4.88 15.94,-11.41 20.38,-19.51l0 -47.46 -27.52 0c-36.92,0 -56.61,12.71 -58.96,38.23l-0.26 4.35c0,9.15 3.22,16.73 9.67,22.74 6.44,5.92 15.33,8.88 26.56,8.88z"></path> </g> </svg> 