<?xml version="1.0" encoding="UTF-8"?> <!-- Creator: CorelDRAW 2017 --> <svg xmlns="http://www.w3.org/2000/svg" xmlns:xlink="http://www.w3.org/1999/xlink" xml:space="preserve" width="210mm" height="297mm" style="shape-rendering:geometricPrecision; text-rendering:geometricPrecision; image-rendering:optimizeQuality; fill-rule:evenodd; clip-rule:evenodd" viewBox="0 0 21000 29700"> <defs> <style type="text/css"> <![CDATA[ .fil4 {fill:#FFF688;fill-rule:nonzero} .fil6 {fill:#FFCC29;fill-rule:nonzero} .fil7 {fill:#B1D665;fill-rule:nonzero} .fil1 {fill:#B73225;fill-rule:nonzero} .fil0 {fill:#D3513C;fill-rule:nonzero} .fil3 {fill:#DDAF2F;fill-rule:nonzero} .fil5 {fill:#EBB82D;fill-rule:nonzero} .fil2 {fill:#F5CB3B;fill-rule:nonzero} ]]> </style> </defs> <g id="Слой_x0020_1"> <metadata id="CorelCorpID_0Corel-Layer"></metadata> <polygon class="fil0" points="9534.11,4250.87 13820.73,4250.87 13820.73,8033.13 9335.51,8033.13 "></polygon> <polygon class="fil0" points="9382.09,8033.13 9336.76,8009.04 9335.51,8033.13 "></polygon> <polygon class="fil1" points="9353.15,8033.13 9335.99,8023.99 9337.54,7994.09 9410.92,8033.13 "></polygon> <polygon class="fil0" points="10165.5,8033.13 9993.98,7941.9 9725.59,8033.13 "></polygon> <polygon class="fil1" points="10136.62,8033.13 9992.93,7956.7 9767.84,8033.13 9683.62,8033.13 9995.23,7927.22 10194.32,8033.13 "></polygon> <polygon class="fil0" points="10948.9,8033.13 10777.38,7941.9 10509,8033.13 "></polygon> <polygon class="fil1" points="10920.02,8033.13 10776.33,7956.7 10551.3,8033.13 10466.99,8033.13 10778.55,7927.22 10977.7,8033.13 "></polygon> <polygon class="fil0" points="11732.34,8033.13 11560.79,7941.9 11292.4,8033.13 "></polygon> <polygon class="fil1" points="11703.43,8033.13 11559.71,7956.7 11334.67,8033.13 11250.4,8033.13 11561.92,7927.22 11761.1,8033.13 "></polygon> <polygon class="fil0" points="12515.8,8033.13 12344.28,7941.9 12075.9,8033.13 "></polygon> <polygon class="fil1" points="12486.83,8033.13 12343.11,7956.7 12118.08,8033.13 12033.8,8033.13 12345.33,7927.22 12544.51,8033.13 "></polygon> <polygon class="fil0" points="13299.21,8033.13 13127.69,7941.9 12859.3,8033.13 "></polygon> <polygon class="fil1" points="13270.33,8033.13 13126.52,7956.61 12901.34,8033.13 12817.21,8033.13 13128.73,7927.22 13327.91,8033.13 "></polygon> <polygon class="fil0" points="13820.73,7972.61 13642.71,8033.13 13820.73,8033.13 "></polygon> <polygon class="fil1" points="13820.73,7986.93 13684.74,8033.13 13600.64,8033.13 13820.73,7958.32 "></polygon> <path class="fil0" d="M9831.95 8033.13c43.2,-63.73 67.2,-133.86 78.32,-188.78l-308 -163.94 -252.74 85.92 -14.02 266.8 496.44 0z"></path> <path class="fil1" d="M9814.57 8033.13c50.34,-70.89 72.24,-146.57 80.36,-181.71l-293.82 -156.3 -252.36 85.77 1.53 -29.09 253.16 -86.08 322.14 171.35 -2.01 9.92c-12.94,63.72 -37.51,128.74 -75.08,186.14l-33.92 0z"></path> <path class="fil0" d="M9910.27 7842.01c0,0 24.47,97.43 87.93,191.12l617.16 0c43.2,-63.73 67.2,-133.86 78.31,-188.78l-307.99 -163.94 -475.41 161.6z"></path> <path class="fil1" d="M9926.87 7850.7c8.95,29.42 36.07,108.19 88.35,182.43l-32.42 0c-60.88,-92.64 -85.18,-185.97 -85.66,-187.82l-3.05 -12.05 492.76 -167.54 322.13 171.35 -2.01 9.92c-12.94,63.72 -37.51,128.74 -75.08,186.14l-33.91 0c50.33,-70.89 72.23,-146.57 80.35,-181.71l-293.7 -156.3 -457.76 155.58z"></path> <path class="fil0" d="M10693.67 7842.01c0,0 24.45,97.43 87.88,191.12l617.21 0c43.2,-63.73 67.17,-133.86 78.32,-188.78l-308 -163.94 -475.41 161.6z"></path> <path class="fil1" d="M10710.27 7850.7c8.96,29.42 36.04,108.19 88.35,182.43l-32.38 0c-60.91,-92.64 -85.21,-185.97 -85.69,-187.82l-3.06 -12.05 492.76 -167.54 322.14 171.35 -2.01 9.92c-12.94,63.72 -37.51,128.74 -75.08,186.14l-33.92 0c50.31,-70.89 72.24,-146.57 80.36,-181.71l-293.73 -156.3 -457.74 155.58z"></path> <path class="fil0" d="M11477.08 7842.01c0,0 24.47,97.43 87.9,191.12l617.22 0c43.2,-63.73 67.2,-133.86 78.37,-188.78l-307.99 -163.94 -475.5 161.6z"></path> <path class="fil1" d="M11493.67 7850.7c9.02,29.42 36.17,108.19 88.45,182.43l-32.48 0c-60.91,-92.64 -85.21,-185.97 -85.69,-187.82l-3.05 -12.05 492.73 -167.54 322.16 171.35 -2.01 9.92c-12.97,63.72 -37.57,128.74 -75.11,186.14l-33.85 0c50.3,-70.89 72.2,-146.57 80.32,-181.71l-293.73 -156.3 -457.74 155.58z"></path> <path class="fil0" d="M12260.57 7842.01c0,0 24.42,97.43 87.85,191.12l617.18 0c43.2,-63.73 67.2,-133.86 78.38,-188.78l-308 -163.94 -475.41 161.6z"></path> <path class="fil1" d="M12277.05 7850.7c9.02,29.42 36.13,108.19 88.47,182.43l-32.47 0c-60.88,-92.64 -85.15,-185.97 -85.57,-187.82l-3.18 -12.05 492.73 -167.54 322.17 171.35 -2.01 9.92c-12.97,63.72 -37.57,128.74 -75.11,186.14l-33.86 0c50.31,-70.89 72.21,-146.57 80.33,-181.71l-293.73 -156.3 -457.77 155.58z"></path> <path class="fil0" d="M13043.98 7842.01c0,0 24.44,97.43 87.87,191.12l617.16 0c36.04,-53.15 58.72,-110.79 71.72,-160.32l0 -32 -301.34 -160.4 -475.41 161.6z"></path> <path class="fil1" d="M13060.45 7850.7c9.02,29.42 36.14,108.19 88.48,182.43l-32.48 0c-60.88,-92.64 -85.15,-185.97 -85.57,-187.82l-3.17 -12.05 492.85 -167.54 300.17 159.72 0 94.17c-13.63,39.37 -31.97,77.9 -55.25,113.52l-33.88 0c50.3,-70.89 72.23,-146.57 80.35,-181.71l-293.73 -156.3 -457.77 155.58z"></path> <path class="fil1" d="M13820.73 7830.03l0 37.03c-4.28,-13.24 -6.35,-21.21 -6.47,-21.75l-3.06 -12.05 9.53 -3.23z"></path> <path class="fil0" d="M9343.96 7872.03c107.19,-77.3 156.93,-202.32 174.6,-289.27l-155.07 -82.48 -19.53 371.75z"></path> <path class="fil1" d="M9344.91 7853.85c107.83,-83.68 146.93,-214.25 158.31,-263.9l-140.51 -74.78 1.56 -29.84 169.6 90.24 -2.09 9.95c-23.1,113.88 -83.38,232.01 -188.69,303.26l1.82 -34.93z"></path> <path class="fil0" d="M9518.56 7580.55c0,0 89.32,356.08 369.72,361.26 280.4,5.27 386.22,-223.35 413.69,-359.05l-307.99 -163.82 -475.42 161.61z"></path> <path class="fil1" d="M9535.04 7589.21c18.73,61.09 115.44,334.62 353.45,339.06l9.19 0.12c290.14,0 371.63,-262.88 388.95,-338.44l-293.7 -156.33 -457.89 155.59zm362.43 366.23l-9.49 -0.12c-287.29,-5.27 -381.67,-367.79 -382.51,-371.51l-3.08 -12.04 492.84 -167.54 322.05 171.34 -2.1 9.95c-36.46,179.67 -165.41,369.92 -417.71,369.92z"></path> <path class="fil0" d="M10301.97 7580.55c0,0 89.31,356.08 369.71,361.26 280.4,5.27 386.22,-223.35 413.69,-359.05l-307.99 -163.82 -475.41 161.61z"></path> <path class="fil1" d="M10318.57 7589.21c18.6,61.09 115.32,334.62 353.32,339.06l9.2 0.12c290.14,0 371.63,-262.88 388.94,-338.44l-293.7 -156.33 -457.76 155.59zm362.31 366.23l-9.53 -0.12c-287.26,-5.27 -381.63,-367.79 -382.5,-371.51l-3.06 -12.04 492.76 -167.54 322.13 171.34 -2.09 9.95c-36.46,179.67 -165.41,369.92 -417.71,369.92z"></path> <path class="fil0" d="M11085.37 7580.55c0,0 89.32,356.08 369.72,361.26 280.4,5.27 386.19,-223.35 413.78,-359.05l-308.08 -163.82 -475.42 161.61z"></path> <path class="fil1" d="M11101.97 7589.21c18.58,61.09 115.29,334.62 353.33,339.06l9.19 0.12c290.35,0 371.63,-262.88 388.95,-338.44l-293.73 -156.33 -457.74 155.59zm362.4 366.23l-9.49 -0.12c-287.38,-5.27 -381.76,-367.79 -382.63,-371.51l-3.05 -12.04 492.72 -167.54 322.17 171.34 -2.01 9.95c-36.46,179.67 -165.29,369.92 -417.71,369.92z"></path> <path class="fil0" d="M11868.78 7580.55c0,0 89.4,356.08 369.8,361.26 280.31,5.27 386.1,-223.35 413.69,-359.05l-307.99 -163.82 -475.5 161.61z"></path> <path class="fil1" d="M11885.35 7589.21c18.72,61.09 115.43,334.62 353.35,339.06l9.2 0.12c290.34,0 371.6,-262.88 388.94,-338.44l-293.73 -156.33 -457.76 155.59zm362.43 366.23l-9.5 -0.12c-287.38,-5.27 -381.78,-367.79 -382.62,-371.51l-3.06 -12.04 492.73 -167.54 322.16 171.34 -2 9.95c-36.47,179.67 -165.29,369.92 -417.71,369.92z"></path> <path class="fil0" d="M12652.27 7580.55c0,0 89.32,356.08 369.72,361.26 280.31,5.27 386.1,-223.35 413.69,-359.05l-307.99 -163.82 -475.42 161.61z"></path> <path class="fil1" d="M12668.75 7589.21c18.73,61.09 115.44,334.62 353.45,339.06l9.19 0.12c290.35,0 371.51,-262.88 388.86,-338.44l-293.73 -156.33 -457.77 155.59zm362.43 366.23l-9.49 -0.12c-287.38,-5.27 -381.79,-367.79 -382.51,-371.51l-3.17 -12.04 492.72 -167.54 322.17 171.34 -2.01 9.95c-36.46,179.67 -165.32,369.92 -417.71,369.92z"></path> <path class="fil0" d="M13435.68 7580.55c0,0 89.31,356.08 369.71,361.26l15.34 0.03 0 -492.19 -385.05 130.9z"></path> <path class="fil1" d="M13452.16 7589.21c18.72,61.09 115.43,334.62 353.44,339.06l9.11 0.12 6.02 -0.09 0 27.05 -6.14 0.09 -9.5 -0.12c-287.41,-5.27 -381.66,-367.79 -382.53,-371.51l-3.15 -12.04 401.32 -136.41 0 28.58 -368.57 125.27z"></path> <path class="fil0" d="M9355.94 7643.73c40.36,21.73 87,35.6 140.63,36.59 280.4,5.27 386.22,-223.33 413.7,-359.05l-308 -163.82 -224.79 76.43 -21.54 409.85z"></path> <path class="fil1" d="M9356.78 7628.27c40,22.83 86.4,37.51 140,38.5l9.11 0.12c290.32,0 371.6,-262.87 389.04,-338.43l-293.82 -156.33 -224.41 76.28 1.53 -29.1 225.21 -76.54 322.14 171.31 -2.01 9.95c-36.55,179.67 -165.5,369.92 -417.8,369.92l-9.5 -0.09c-53.51,-1.02 -100.3,-14.41 -141.08,-35.57l1.59 -30.02z"></path> <path class="fil0" d="M9910.27 7319.05c0,0 89.4,356.08 369.71,361.27 280.4,5.27 386.22,-223.33 413.69,-359.05l-307.99 -163.82 -475.41 161.6z"></path> <path class="fil1" d="M9926.87 7327.71c18.6,61 115.31,334.63 353.32,339.06l9.11 0.12c290.31,0 371.6,-262.87 389.03,-338.43l-293.7 -156.33 -457.76 155.58zm362.31 366.24l-9.53 -0.09c-287.26,-5.4 -381.55,-367.83 -382.51,-371.54l-3.05 -12.05 492.76 -167.5 322.13 171.31 -2.01 9.95c-36.55,179.67 -165.5,369.92 -417.79,369.92z"></path> <path class="fil0" d="M10693.67 7319.05c0,0 89.31,356.08 369.71,361.27 280.4,5.27 386.19,-223.33 413.7,-359.05l-308 -163.82 -475.41 161.6z"></path> <path class="fil1" d="M10710.27 7327.71c18.61,61 115.29,334.63 353.44,339.06l9.08 0.12c290.23,0 371.51,-262.87 388.95,-338.43l-293.73 -156.33 -457.74 155.58zm362.31 366.24l-9.41 -0.09c-287.38,-5.4 -381.66,-367.83 -382.62,-371.54l-3.06 -12.05 492.76 -167.5 322.14 171.31 -2.01 9.95c-36.55,179.67 -165.5,369.92 -417.8,369.92z"></path> <path class="fil0" d="M11477.08 7319.05c0,0 89.31,356.08 369.8,361.27 280.31,5.27 386.1,-223.33 413.69,-359.05l-307.99 -163.82 -475.5 161.6z"></path> <path class="fil1" d="M11493.67 7327.71c18.7,61 115.41,334.63 353.42,339.06l9.11 0.12c290.22,0 371.51,-262.87 388.94,-338.43l-293.73 -156.33 -457.74 155.58zm362.32 366.24l-9.32 -0.09c-287.47,-5.4 -381.76,-367.83 -382.72,-371.54l-3.05 -12.05 492.73 -167.5 322.16 171.31 -2.01 9.95c-36.58,179.67 -165.5,369.92 -417.79,369.92z"></path> <path class="fil0" d="M12260.57 7319.05c0,0 89.22,356.08 369.71,361.27 280.31,5.27 386.1,-223.33 413.7,-359.05l-308 -163.82 -475.41 161.6z"></path> <path class="fil1" d="M12277.05 7327.71c18.73,61 115.44,334.63 353.56,339.06l9.08 0.12c290.26,0 371.42,-262.87 388.86,-338.43l-293.73 -156.33 -457.77 155.58zm362.43 366.24l-9.5 -0.09c-287.38,-5.4 -381.66,-367.83 -382.5,-371.54l-3.18 -12.05 492.73 -167.5 322.17 171.31 -2.01 9.95c-36.58,179.67 -165.53,369.92 -417.71,369.92z"></path> <path class="fil0" d="M13043.98 7319.05c0,0 89.31,356.08 369.71,361.27 261.49,4.91 371.12,-193.7 407.04,-330.56l0 -32.03 -301.34 -160.28 -475.41 161.6z"></path> <path class="fil1" d="M13060.45 7327.71c18.73,61 115.44,334.63 353.57,339.06l9.08 0.12c290.22,0 371.41,-262.87 388.85,-338.43l-293.73 -156.33 -457.77 155.58zm760.28 -25.26l0 94.14c-53.63,154.81 -179.58,297.36 -397.84,297.36l-9.5 -0.09c-287.38,-5.4 -381.67,-367.83 -382.51,-371.54l-3.17 -12.05 492.85 -167.5 300.17 159.68z"></path> <path class="fil1" d="M13820.73 7307.04l0 37.03c-4.28,-13.24 -6.35,-21.21 -6.47,-21.75l-3.06 -12.05 9.53 -3.23z"></path> <path class="fil0" d="M9372.63 7326.06c87.57,-77.47 129.91,-187.49 145.93,-266.28l-128.35 -68.28 -17.58 334.56z"></path> <path class="fil1" d="M9373.71 7305.9c86.16,-82.78 119.15,-194.02 129.51,-238.93l-113.81 -60.55 1.58 -29.84 142.88 76 -2.09 9.95c-20.95,103.16 -72.36,209.81 -160.11,281.93l2.04 -38.56z"></path> <path class="fil0" d="M9518.56 7057.56c0,0 89.32,356.08 369.72,361.26 280.4,5.18 386.22,-223.32 413.69,-359.04l-307.99 -163.83 -475.42 161.61z"></path> <path class="fil1" d="M9535.04 7066.25c18.73,61.09 115.44,334.71 353.45,339.06l9.19 0.09c290.14,0 371.51,-262.96 388.95,-338.43l-293.7 -156.31 -457.89 155.59zm362.43 366.2l-9.49 -0.09c-287.29,-5.39 -381.67,-367.82 -382.51,-371.51l-3.08 -12.07 492.84 -167.51 322.05 171.31 -2.1 9.95c-36.46,179.67 -165.41,369.92 -417.71,369.92z"></path> <path class="fil0" d="M10301.97 7057.56c0,0 89.31,356.08 369.71,361.26 280.4,5.18 386.22,-223.32 413.69,-359.04l-307.99 -163.83 -475.41 161.61z"></path> <path class="fil1" d="M10318.57 7066.25c18.6,61.09 115.32,334.71 353.32,339.06l9.2 0.09c290.14,0 371.51,-262.96 388.94,-338.43l-293.7 -156.31 -457.76 155.59zm362.4 366.2l-9.62 -0.09c-287.26,-5.39 -381.63,-367.82 -382.5,-371.51l-3.06 -12.07 492.76 -167.51 322.13 171.31 -2.09 9.95c-36.46,179.67 -165.41,369.92 -417.62,369.92z"></path> <path class="fil0" d="M11085.37 7057.56c0,0 89.32,356.08 369.72,361.26 280.4,5.18 386.19,-223.32 413.78,-359.04l-308.08 -163.83 -475.42 161.61z"></path> <path class="fil1" d="M11101.97 7066.25c18.58,61.09 115.29,334.71 353.33,339.06l9.19 0.09c290.23,0 371.63,-262.96 388.95,-338.43l-293.73 -156.31 -457.74 155.59zm362.4 366.2l-9.49 -0.09c-287.38,-5.39 -381.76,-367.82 -382.63,-371.51l-3.05 -12.07 492.72 -167.51 322.17 171.31 -2.01 9.95c-36.46,179.67 -165.41,369.92 -417.71,369.92z"></path> <path class="fil0" d="M11868.78 7057.56c0,0 89.4,356.08 369.8,361.26 280.31,5.18 386.1,-223.32 413.69,-359.04l-307.99 -163.83 -475.5 161.61z"></path> <path class="fil1" d="M11885.35 7066.25c18.72,61.09 115.43,334.71 353.35,339.06l9.2 0.09c290.34,0 371.6,-262.96 388.94,-338.43l-293.73 -156.31 -457.76 155.59zm362.43 366.2l-9.5 -0.09c-287.38,-5.39 -381.78,-367.82 -382.62,-371.51l-3.06 -12.07 492.73 -167.51 322.16 171.31 -2 9.95c-36.47,179.67 -165.41,369.92 -417.71,369.92z"></path> <path class="fil0" d="M12652.27 7057.56c0,0 89.32,356.08 369.72,361.26 280.31,5.18 386.1,-223.32 413.69,-359.04l-307.99 -163.83 -475.42 161.61z"></path> <path class="fil1" d="M12668.75 7066.25c18.73,61.09 115.44,334.71 353.45,339.06l9.19 0.09c290.23,0 371.51,-262.96 388.86,-338.43l-293.73 -156.31 -457.77 155.59zm362.43 366.2l-9.49 -0.09c-287.38,-5.39 -381.79,-367.82 -382.51,-371.51l-3.17 -12.07 492.72 -167.51 322.17 171.31 -2.01 9.95c-36.46,179.67 -165.41,369.92 -417.71,369.92z"></path> <path class="fil0" d="M13435.68 7057.56c0,0 89.31,356.08 369.71,361.26l15.34 0.03 0 -492.19 -385.05 130.9z"></path> <path class="fil1" d="M13452.16 7066.25c18.72,61.09 115.43,334.71 353.44,339.06l9.11 0.09 6.02 -0.09 0 27.05 -6.14 0.09 -9.5 -0.09c-287.41,-5.39 -381.66,-367.82 -382.53,-371.51l-3.15 -12.07 401.32 -136.41 0 28.61 -368.57 125.27z"></path> <path class="fil0" d="M9382.75 7133.57c33.86,14.23 71.67,23.01 113.82,23.79 280.4,5.27 386.22,-223.36 413.7,-359.05l-308 -163.82 -196.84 66.9 -22.68 432.18z"></path> <path class="fil1" d="M9383.5 7118.89c33.59,14.95 71.22,24.15 113.28,24.92l9.11 0.09c290.32,0 371.6,-262.84 389.04,-338.52l-293.82 -156.21 -196.43 66.75 1.53 -29.09 197.23 -67.05 322.14 171.34 -2.01 9.83c-36.55,179.79 -165.5,370.04 -417.8,370.04l-9.5 -0.12c-42.15,-0.78 -80.11,-9.32 -114.27,-23.22l1.5 -28.76z"></path> <path class="fil0" d="M9910.27 6796.09c0,0 89.4,356.08 369.71,361.27 280.4,5.27 386.22,-223.36 413.69,-359.05l-307.99 -163.82 -475.41 161.6z"></path> <path class="fil1" d="M9926.87 6804.75c18.6,60.97 115.31,334.63 353.32,339.06l9.11 0.09c290.31,0 371.6,-262.84 389.03,-338.52l-293.7 -156.21 -457.76 155.58zm362.31 366.24l-9.53 -0.12c-287.26,-5.39 -381.55,-367.92 -382.51,-371.63l-3.05 -11.92 492.76 -167.54 322.13 171.34 -2.01 9.83c-36.55,179.79 -165.5,370.04 -417.79,370.04z"></path> <path class="fil0" d="M10693.67 6796.09c0,0 89.31,356.08 369.71,361.27 280.4,5.27 386.19,-223.36 413.7,-359.05l-308 -163.82 -475.41 161.6z"></path> <path class="fil1" d="M10710.27 6804.75c18.61,60.97 115.29,334.63 353.44,339.06l9.08 0.09c290.23,0 371.51,-262.84 388.95,-338.52l-293.73 -156.21 -457.74 155.58zm362.31 366.24l-9.41 -0.12c-287.38,-5.39 -381.66,-367.92 -382.62,-371.63l-3.06 -11.92 492.76 -167.54 322.14 171.34 -2.01 9.83c-36.55,179.79 -165.5,370.04 -417.8,370.04z"></path> <path class="fil0" d="M11477.08 6796.09c0,0 89.31,356.08 369.8,361.27 280.31,5.27 386.1,-223.36 413.69,-359.05l-307.99 -163.82 -475.5 161.6z"></path> <path class="fil1" d="M11493.67 6804.75c18.7,60.97 115.41,334.63 353.42,339.06l9.11 0.09c290.22,0 371.51,-262.84 388.94,-338.52l-293.73 -156.21 -457.74 155.58zm362.32 366.24l-9.32 -0.12c-287.47,-5.39 -381.76,-367.92 -382.72,-371.63l-3.05 -12.04 492.73 -167.42 322.16 171.34 -2.01 9.83c-36.58,179.79 -165.5,370.04 -417.79,370.04z"></path> <path class="fil0" d="M12260.57 6796.09c0,0 89.22,356.08 369.71,361.27 280.31,5.27 386.1,-223.36 413.7,-359.05l-308 -163.82 -475.41 161.6z"></path> <path class="fil1" d="M12277.05 6804.75c18.73,60.97 115.44,334.63 353.56,339.06l9.08 0.09c290.26,0 371.42,-262.84 388.86,-338.52l-293.73 -156.21 -457.77 155.58zm362.43 366.24l-9.5 -0.12c-287.38,-5.39 -381.66,-367.92 -382.5,-371.63l-3.18 -12.04 492.73 -167.42 322.17 171.34 -2.01 9.83c-36.58,179.79 -165.53,370.04 -417.71,370.04z"></path> <path class="fil0" d="M13043.98 6796.09c0,0 89.31,356.08 369.71,361.27 261.49,4.91 371.12,-193.7 407.04,-330.56l0 -32.02 -301.34 -160.29 -475.41 161.6z"></path> <path class="fil1" d="M13060.45 6804.75c18.73,60.97 115.44,334.63 353.57,339.06l9.08 0.09c290.22,0 371.41,-262.84 388.85,-338.52l-293.73 -156.21 -457.77 155.58zm760.28 -25.25l0 94.07c-53.63,154.9 -179.58,297.42 -397.84,297.42l-9.5 -0.12c-287.38,-5.39 -381.67,-367.92 -382.51,-371.63l-3.17 -11.92 492.85 -167.54 300.17 159.72z"></path> <path class="fil1" d="M13820.73 6784.08l0 36.91c-4.28,-13.24 -6.35,-21.21 -6.47,-21.75l-3.06 -11.92 9.53 -3.24z"></path> <path class="fil0" d="M9401.6 6774.67c68.16,-74.36 102.82,-168.32 116.96,-237.85l-101.65 -54.08 -15.31 291.93z"></path> <path class="fil1" d="M9402.8 6751.69c64.71,-77.54 91.32,-168.2 100.42,-207.68l-87.09 -46.35 1.59 -29.87 116.15 61.84 -2.09 9.94c-18.52,91.29 -60.94,185.28 -131.26,255.68l2.28 -43.56z"></path> <path class="fil0" d="M9518.56 6534.48c0,0 89.32,356.2 369.72,361.38 280.4,5.27 386.22,-223.32 413.69,-359.04l-307.99 -163.83 -475.42 161.49z"></path> <path class="fil1" d="M9535.04 6543.17c18.73,61.09 115.44,334.72 353.45,339.15l9.19 0.12c290.14,0 371.51,-262.87 388.95,-338.43l-293.7 -156.34 -457.89 155.5zm362.43 366.32l-9.49 -0.12c-287.29,-5.27 -381.67,-367.91 -382.51,-371.51l-3.08 -12.13 492.84 -167.54 322.05 171.44 -2.1 9.94c-36.46,179.68 -165.41,369.92 -417.71,369.92z"></path> <path class="fil0" d="M10301.97 6534.48c0,0 89.31,356.2 369.71,361.38 280.4,5.27 386.22,-223.32 413.69,-359.04l-307.99 -163.83 -475.41 161.49z"></path> <path class="fil1" d="M10318.57 6543.17c18.6,61.09 115.32,334.72 353.32,339.15l9.2 0.12c290.14,0 371.51,-262.87 388.94,-338.43l-293.82 -156.34 -457.64 155.5zm362.31 366.32l-9.53 -0.12c-287.26,-5.27 -381.63,-367.91 -382.5,-371.51l-3.06 -12.13 492.76 -167.54 322.13 171.44 -2.09 9.94c-36.46,179.68 -165.41,369.92 -417.71,369.92z"></path> <path class="fil0" d="M11085.37 6534.48c0,0 89.32,356.2 369.72,361.38 280.4,5.27 386.19,-223.32 413.69,-359.04l-307.99 -163.83 -475.42 161.49z"></path> <path class="fil1" d="M11101.97 6543.17c18.58,61.09 115.41,334.72 353.33,339.15l9.19 0.12c290.23,0 371.63,-262.87 388.95,-338.43l-293.82 -156.34 -457.65 155.5zm362.4 366.32l-9.49 -0.12c-287.38,-5.39 -381.76,-367.91 -382.63,-371.51l-3.05 -12.13 492.72 -167.54 322.17 171.44 -2.01 9.94c-36.46,179.68 -165.41,369.92 -417.71,369.92z"></path> <path class="fil0" d="M11868.78 6534.48c0,0 89.4,356.2 369.8,361.38 280.31,5.27 386.1,-223.32 413.69,-359.04l-307.99 -163.83 -475.5 161.49z"></path> <path class="fil1" d="M11885.35 6543.17c18.72,61.09 115.43,334.72 353.35,339.15l9.2 0.12c290.34,0 371.6,-262.87 388.94,-338.43l-293.82 -156.34 -457.67 155.5zm362.43 366.32l-9.5 -0.12c-287.38,-5.39 -381.78,-367.91 -382.62,-371.51l-3.06 -12.13 492.73 -167.54 322.16 171.44 -2 9.94c-36.47,179.68 -165.41,369.92 -417.71,369.92z"></path> <path class="fil0" d="M12652.27 6534.48c0,0 89.32,356.2 369.72,361.38 280.31,5.27 386.1,-223.32 413.69,-359.04l-307.99 -163.83 -475.42 161.49z"></path> <path class="fil1" d="M12668.75 6543.17c18.73,61.09 115.44,334.72 353.45,339.15l9.19 0.12c290.23,0 371.51,-262.87 388.86,-338.43l-293.82 -156.34 -457.68 155.5zm362.43 366.32l-9.49 -0.12c-287.38,-5.27 -381.79,-367.91 -382.51,-371.51l-3.17 -12.13 492.72 -167.54 322.17 171.44 -2.01 9.94c-36.46,179.68 -165.41,369.92 -417.71,369.92z"></path> <path class="fil0" d="M13435.68 6534.48c0,0 89.31,356.2 369.71,361.38l15.34 0.03 0 -492.22 -385.05 130.81z"></path> <path class="fil1" d="M13452.16 6543.17c18.72,61.09 115.43,334.72 353.44,339.15l9.11 0.12 6.02 -0.09 0 27.05 -6.14 0.09 -9.5 -0.12c-287.41,-5.27 -381.66,-367.91 -382.53,-371.51l-3.15 -12.13 401.32 -136.41 0 28.64 -368.57 125.21z"></path> <path class="fil0" d="M9409.69 6620.44c26.69,8.35 55.57,13.33 86.88,13.93 280.4,5.27 386.22,-223.33 413.7,-359.05l-308 -163.82 -168.88 57.37 -23.7 451.57z"></path> <path class="fil1" d="M9410.44 6606.29c26.45,8.75 55.18,13.97 86.34,14.57l9.11 0.09c290.32,0 371.6,-262.88 389.04,-338.53l-293.82 -156.21 -168.47 57.25 1.53 -29.09 169.27 -57.55 322.14 171.31 -2.01 9.83c-36.55,179.79 -165.5,370.04 -417.8,370.04l-9.5 -0.09c-31.36,-0.6 -60.43,-5.39 -87.3,-13.57l1.47 -28.05z"></path> <path class="fil0" d="M9910.27 6273.01c0,0 89.4,356.08 369.71,361.36 280.4,5.27 386.22,-223.33 413.69,-359.05l-307.99 -163.82 -475.41 161.51z"></path> <path class="fil1" d="M9926.87 6281.76c18.6,61 115.31,334.63 353.32,339.1l9.11 0.09c290.31,0 371.6,-262.88 389.03,-338.53l-293.7 -156.21 -457.76 155.55zm362.31 366.24l-9.53 -0.09c-287.26,-5.39 -381.55,-367.82 -382.51,-371.54l-3.05 -12.04 492.76 -167.51 322.13 171.31 -2.01 9.83c-36.55,179.79 -165.5,370.04 -417.79,370.04z"></path> <path class="fil0" d="M10693.67 6273.01c0,0 89.31,356.08 369.71,361.36 280.4,5.27 386.19,-223.33 413.7,-359.05l-308 -163.82 -475.41 161.51z"></path> <path class="fil1" d="M10710.27 6281.76c18.61,61.09 115.29,334.63 353.44,339.1l9.08 0.09c290.23,0 371.51,-262.97 388.95,-338.53l-293.73 -156.21 -457.74 155.55zm362.31 366.24l-9.41 -0.09c-287.38,-5.39 -381.66,-367.82 -382.62,-371.54l-3.06 -12.04 492.76 -167.51 322.14 171.31 -2.01 9.83c-36.55,179.79 -165.5,370.04 -417.8,370.04z"></path> <path class="fil0" d="M11477.08 6273.01c0,0 89.31,356.08 369.8,361.36 280.31,5.27 386.1,-223.33 413.69,-359.05l-307.99 -163.82 -475.5 161.51z"></path> <path class="fil1" d="M11493.67 6281.76c18.7,61.09 115.41,334.63 353.42,339.1l9.11 0.09c290.22,0 371.51,-262.97 388.94,-338.53l-293.73 -156.21 -457.74 155.55zm362.32 366.24l-9.32 -0.09c-287.47,-5.39 -381.76,-367.82 -382.72,-371.54l-3.05 -12.04 492.73 -167.51 322.16 171.31 -2.01 9.83c-36.58,179.79 -165.5,370.04 -417.79,370.04z"></path> <path class="fil0" d="M12260.57 6273.01c0,0 89.22,356.08 369.71,361.36 280.31,5.27 386.1,-223.33 413.7,-359.05l-308 -163.82 -475.41 161.51z"></path> <path class="fil1" d="M12277.05 6281.76c18.73,61.09 115.44,334.63 353.56,339.1l9.08 0.09c290.26,0 371.42,-262.97 388.86,-338.53l-293.73 -156.21 -457.77 155.55zm362.43 366.24l-9.5 -0.09c-287.38,-5.39 -381.66,-367.82 -382.5,-371.54l-3.18 -12.04 492.73 -167.51 322.17 171.31 -2.01 9.83c-36.58,179.79 -165.53,370.04 -417.71,370.04z"></path> <path class="fil0" d="M13043.98 6273.01c0,0 89.31,356.08 369.71,361.36 261.49,4.91 371.12,-193.7 407.04,-330.56l0 -32.02 -301.34 -160.29 -475.41 161.51z"></path> <path class="fil1" d="M13060.45 6281.76c18.73,61 115.44,334.63 353.57,339.1l9.08 0.09c290.22,0 371.41,-262.88 388.85,-338.53l-293.73 -156.21 -457.77 155.55zm760.28 -25.25l0 94.07c-53.63,154.9 -179.58,297.42 -397.84,297.42l-9.5 -0.09c-287.38,-5.39 -381.67,-367.82 -382.51,-371.54l-3.17 -12.04 492.85 -167.51 300.17 159.69z"></path> <path class="fil1" d="M13820.73 6261.09l0 37.03c-4.28,-13.24 -6.35,-21.21 -6.47,-21.75l-3.06 -12.04 9.53 -3.24z"></path> <path class="fil0" d="M9430.93 6215.79c49.08,-67.05 75.68,-143.21 87.63,-201.96l-74.93 -39.88 -12.7 241.84z"></path> <path class="fil1" d="M9432.37 6188.74c43.62,-66.64 63.27,-134.86 70.85,-167.72l-60.37 -32.12 1.56 -29.84 89.46 47.61 -2.09 9.91c-15.82,77.9 -49.02,157.75 -102.11,223.27l2.7 -51.11z"></path> <path class="fil0" d="M9518.56 6011.52c0,0 89.32,356.08 369.72,361.35 280.4,5.19 386.22,-223.32 413.69,-359.04l-307.99 -163.92 -475.42 161.61z"></path> <path class="fil1" d="M9535.04 6020.18c18.73,61.09 115.44,334.75 353.45,339.18l9.19 0.09c290.14,0 371.51,-262.84 388.95,-338.43l-293.7 -156.31 -457.89 155.47zm362.43 366.32l-9.49 -0.09c-287.29,-5.39 -381.67,-367.82 -382.51,-371.62l-3.08 -12.05 492.84 -167.51 322.05 171.44 -2.1 9.91c-36.46,179.68 -165.41,369.92 -417.71,369.92z"></path> <path class="fil0" d="M10301.97 6011.52c0,0 89.31,356.08 369.71,361.35 280.4,5.19 386.22,-223.32 413.69,-359.04l-307.99 -163.92 -475.41 161.61z"></path> <path class="fil1" d="M10318.57 6020.18c18.6,61.09 115.32,334.75 353.32,339.18l9.2 0.09c290.14,0 371.51,-262.84 388.94,-338.43l-293.7 -156.31 -457.76 155.47zm362.31 366.32l-9.53 -0.09c-287.26,-5.39 -381.63,-367.82 -382.5,-371.62l-3.06 -12.05 492.76 -167.51 322.13 171.44 -2.09 9.91c-36.46,179.68 -165.41,369.92 -417.71,369.92z"></path> <path class="fil0" d="M11085.37 6011.52c0,0 89.32,356.08 369.72,361.35 280.4,5.19 386.19,-223.32 413.69,-359.04l-307.99 -163.92 -475.42 161.61z"></path> <path class="fil1" d="M11101.97 6020.18c18.58,61.09 115.41,334.75 353.33,339.18l9.19 0.09c290.23,0 371.63,-262.84 388.95,-338.43l-293.73 -156.31 -457.74 155.47zm362.4 366.32l-9.49 -0.09c-287.38,-5.39 -381.76,-367.82 -382.63,-371.62l-3.05 -12.05 492.72 -167.51 322.17 171.44 -2.01 9.91c-36.46,179.68 -165.41,369.92 -417.71,369.92z"></path> <path class="fil0" d="M11868.78 6011.52c0,0 89.4,356.08 369.8,361.35 280.31,5.19 386.1,-223.32 413.69,-359.04l-307.99 -163.92 -475.5 161.61z"></path> <path class="fil1" d="M11885.35 6020.18c18.72,61.09 115.43,334.75 353.35,339.18l9.2 0.09c290.34,0 371.6,-262.84 388.94,-338.43l-293.73 -156.31 -457.76 155.47zm362.43 366.32l-9.5 -0.09c-287.38,-5.39 -381.78,-367.82 -382.62,-371.62l-3.06 -12.05 492.73 -167.51 322.16 171.44 -2 9.91c-36.47,179.68 -165.41,369.92 -417.71,369.92z"></path> <path class="fil0" d="M12652.27 6011.52c0,0 89.32,356.08 369.72,361.35 280.31,5.19 386.1,-223.32 413.69,-359.04l-307.99 -163.92 -475.42 161.61z"></path> <path class="fil1" d="M12668.75 6020.18c18.73,61.09 115.44,334.75 353.45,339.18l9.19 0.09c290.23,0 371.51,-262.84 388.86,-338.43l-293.73 -156.31 -457.77 155.47zm362.43 366.32l-9.49 -0.09c-287.38,-5.39 -381.79,-367.82 -382.51,-371.62l-3.17 -12.05 492.72 -167.51 322.17 171.44 -2.01 9.91c-36.46,179.68 -165.41,369.92 -417.71,369.92z"></path> <path class="fil0" d="M13435.68 6011.52c0,0 89.31,356.08 369.71,361.35l15.34 0.03 0 -492.28 -385.05 130.9z"></path> <path class="fil1" d="M13452.16 6020.18c18.72,61.09 115.43,334.75 353.44,339.18l9.11 0.09 6.02 -0.09 0 27.05 -6.14 0.09 -9.5 -0.09c-287.41,-5.39 -381.66,-367.82 -382.53,-371.62l-3.15 -12.05 401.32 -136.41 0 28.67 -368.57 125.18z"></path> <path class="fil0" d="M9436.77 6104.58c18.91,4.04 38.8,6.44 59.8,6.83 280.4,5.15 386.22,-223.36 413.7,-359.05l-308 -163.94 -140.9 47.91 -24.6 468.25z"></path> <path class="fil1" d="M9437.49 6090.8c18.7,4.19 38.47,6.68 59.29,7.07l9.11 0.12c290.32,0 371.6,-263 389.04,-338.56l-293.82 -156.3 -140.52 47.79 1.53 -29.03 141.32 -48.06 322.14 171.34 -2.01 9.83c-36.55,179.79 -165.5,370.04 -417.8,370.04l-9.5 -0.12c-21.12,-0.39 -41.13,-2.79 -60.22,-6.74l1.44 -27.38z"></path> <path class="fil0" d="M9910.27 5750.03c0,0 89.4,356.08 369.71,361.38 280.4,5.15 386.22,-223.36 413.69,-359.05l-307.99 -163.94 -475.41 161.61z"></path> <path class="fil1" d="M9926.75 5758.8c18.72,60.97 115.43,334.63 353.44,339.07l9.11 0.12c290.31,0 371.6,-263 389.03,-338.56l-293.7 -156.3 -457.88 155.67zm362.43 366.24l-9.53 -0.12c-287.26,-5.39 -381.55,-367.79 -382.51,-371.6l-3.05 -11.95 492.76 -167.54 322.13 171.34 -2.01 9.83c-36.55,179.79 -165.5,370.04 -417.79,370.04z"></path> <path class="fil0" d="M10693.67 5750.03c0,0 89.31,356.08 369.71,361.38 280.4,5.15 386.19,-223.36 413.7,-359.05l-308 -163.94 -475.41 161.61z"></path> <path class="fil1" d="M10710.27 5758.8c18.61,60.97 115.29,334.63 353.44,339.07l9.08 0.12c290.23,0 371.51,-263 388.95,-338.56l-293.73 -156.3 -457.74 155.67zm362.31 366.24l-9.41 -0.12c-287.38,-5.39 -381.66,-367.79 -382.62,-371.6l-3.06 -11.95 492.76 -167.54 322.14 171.34 -2.01 9.83c-36.55,179.79 -165.5,370.04 -417.8,370.04z"></path> <path class="fil0" d="M11477.08 5750.03c0,0 89.31,356.08 369.8,361.38 280.31,5.15 386.1,-223.36 413.69,-359.05l-307.99 -163.94 -475.5 161.61z"></path> <path class="fil1" d="M11493.67 5758.8c18.7,60.97 115.41,334.63 353.42,339.07l9.11 0.12c290.22,0 371.51,-263 388.94,-338.56l-293.73 -156.3 -457.74 155.67zm362.32 366.24l-9.32 -0.12c-287.47,-5.39 -381.76,-367.79 -382.72,-371.6l-3.05 -11.95 492.73 -167.54 322.16 171.34 -2.01 9.83c-36.58,179.79 -165.5,370.04 -417.79,370.04z"></path> <path class="fil0" d="M12260.57 5750.03c0,0 89.22,356.08 369.71,361.38 280.31,5.15 386.1,-223.36 413.7,-359.05l-308 -163.94 -475.41 161.61z"></path> <path class="fil1" d="M12277.05 5758.8c18.73,60.97 115.44,334.63 353.56,339.07l9.08 0.12c290.26,0 371.42,-263 388.86,-338.56l-293.73 -156.3 -457.77 155.67zm362.43 366.24l-9.5 -0.12c-287.38,-5.39 -381.66,-367.91 -382.5,-371.6l-3.18 -11.95 492.73 -167.54 322.17 171.34 -2.01 9.83c-36.58,179.79 -165.53,370.04 -417.71,370.04z"></path> <path class="fil0" d="M13043.98 5750.03c0,0 89.31,356.08 369.71,361.38 261.49,4.79 371.12,-193.7 407.04,-330.55l0 -32.03 -301.34 -160.41 -475.41 161.61z"></path> <path class="fil1" d="M13060.45 5758.8c18.73,60.97 115.44,334.63 353.57,339.07l9.08 0.12c290.22,0 371.41,-263 388.85,-338.56l-293.73 -156.3 -457.77 155.67zm760.28 -25.25l0 94.07c-53.63,154.9 -179.58,297.42 -397.84,297.42l-9.5 -0.12c-287.38,-5.39 -381.67,-367.91 -382.51,-371.6l-3.17 -11.95 492.85 -167.54 300.17 159.72z"></path> <path class="fil1" d="M13820.73 5738.13l0 36.94c-4.28,-13.24 -6.35,-21.21 -6.47,-21.75l-3.06 -11.95 9.53 -3.24z"></path> <path class="fil0" d="M9460.83 5646.27c30.44,-54.05 48.48,-109.98 57.73,-155.49l-48.2 -25.62 -9.53 181.11z"></path> <path class="fil1" d="M9462.63 5612.21c23.07,-47.37 35.05,-90.27 40.59,-114.27l-33.64 -17.89 1.56 -29.78 62.73 33.41 -2.09 9.82c-12.65,62.29 -36.37,125.84 -72.48,182.28l3.33 -63.57z"></path> <path class="fil0" d="M9518.56 5488.53c0,0 89.32,356.11 369.72,361.38 280.4,5.19 386.22,-223.32 413.69,-359.13l-307.99 -163.74 -475.42 161.49z"></path> <path class="fil1" d="M9535.04 5497.22c18.73,61.09 115.44,334.72 353.45,339.15l9.19 0.12c290.14,0 371.51,-262.96 388.95,-338.55l-293.7 -156.21 -457.89 155.49zm362.43 366.33l-9.49 -0.12c-287.29,-5.37 -381.67,-367.92 -382.51,-371.6l-3.08 -12.05 492.84 -167.54 322.05 171.44 -2.1 9.82c-36.46,179.8 -165.41,370.05 -417.71,370.05z"></path> <path class="fil0" d="M10301.97 5488.53c0,0 89.31,356.11 369.71,361.38 280.4,5.19 386.22,-223.32 413.69,-359.13l-307.99 -163.74 -475.41 161.49z"></path> <path class="fil1" d="M10318.57 5497.22c18.6,61.09 115.32,334.72 353.32,339.15l9.2 0.12c290.14,0 371.51,-262.96 388.94,-338.55l-293.7 -156.21 -457.76 155.49zm362.31 366.33l-9.53 -0.12c-287.26,-5.37 -381.63,-367.92 -382.5,-371.6l-3.06 -12.05 492.76 -167.54 322.13 171.44 -2.09 9.82c-36.46,179.8 -165.41,370.05 -417.71,370.05z"></path> <path class="fil0" d="M11085.37 5488.53c0,0 89.32,356.11 369.72,361.38 280.4,5.19 386.19,-223.32 413.69,-359.13l-307.99 -163.74 -475.42 161.49z"></path> <path class="fil1" d="M11101.97 5497.22c18.58,61.09 115.41,334.72 353.33,339.15l9.19 0.12c290.23,0 371.63,-262.96 388.95,-338.55l-293.73 -156.21 -457.74 155.49zm362.4 366.33l-9.49 -0.12c-287.38,-5.37 -381.76,-367.92 -382.63,-371.6l-3.05 -12.05 492.72 -167.54 322.17 171.44 -2.01 9.82c-36.46,179.8 -165.41,370.05 -417.71,370.05z"></path> <path class="fil0" d="M11868.87 5488.53c0,0 89.31,356.11 369.71,361.38 280.31,5.19 386.1,-223.32 413.69,-359.13l-307.99 -163.74 -475.41 161.49z"></path> <path class="fil1" d="M11885.35 5497.22c18.72,61.09 115.43,334.72 353.44,339.15l9.11 0.12c290.34,0 371.6,-262.96 388.94,-338.55l-293.73 -156.21 -457.76 155.49zm362.43 366.33l-9.5 -0.12c-287.38,-5.37 -381.78,-367.92 -382.5,-371.6l-3.18 -12.05 492.73 -167.54 322.16 171.44 -2 9.82c-36.47,179.8 -165.41,370.05 -417.71,370.05z"></path> <path class="fil0" d="M12652.27 5488.53c0,0 89.32,356.11 369.72,361.38 280.31,5.19 386.1,-223.32 413.69,-359.13l-307.99 -163.74 -475.42 161.49z"></path> <path class="fil1" d="M12668.75 5497.22c18.73,61.09 115.44,334.72 353.45,339.15l9.19 0.12c290.23,0 371.51,-262.96 388.86,-338.55l-293.73 -156.21 -457.77 155.49zm362.43 366.33l-9.49 -0.12c-287.38,-5.37 -381.79,-367.92 -382.51,-371.6l-3.17 -12.05 492.72 -167.54 322.17 171.44 -2.01 9.82c-36.46,179.8 -165.41,370.05 -417.71,370.05z"></path> <path class="fil0" d="M13435.68 5488.53c0,0 89.31,356.11 369.71,361.38l15.34 0.03 0 -492.22 -385.05 130.81z"></path> <path class="fil1" d="M13452.16 5497.22c18.72,61.09 115.43,334.72 353.44,339.15l9.11 0.12 6.02 -0.09 0 27.06 -6.14 0.09 -9.5 -0.12c-287.41,-5.37 -381.66,-367.92 -382.53,-371.6l-3.15 -12.05 401.32 -136.41 0 28.65 -368.57 125.2z"></path> <path class="fil0" d="M9464.01 5586.11c10.54,1.26 21.39,2.1 32.56,2.31 280.4,5.18 386.22,-223.33 413.7,-359.14l-308 -163.73 -112.95 38.38 -25.31 482.18z"></path> <path class="fil1" d="M9464.73 5572.51c10.39,1.29 21.06,2.07 32.05,2.28l9.11 0.12c290.32,0 371.72,-262.88 389.04,-338.44l-293.82 -156.33 -112.54 38.26 1.53 -29.12 113.34 -38.53 322.14 171.34 -2.01 9.95c-36.46,179.67 -165.5,370.01 -417.8,370.01l-9.5 -0.09c-11.29,-0.21 -22.29,-1.02 -32.98,-2.31l1.44 -27.14z"></path> <path class="fil0" d="M9910.27 5227.07c0,0 89.4,356.08 369.71,361.35 280.4,5.18 386.22,-223.45 413.69,-359.14l-307.99 -163.73 -475.41 161.52z"></path> <path class="fil1" d="M9926.75 5235.73c18.72,61.08 115.43,334.62 353.44,339.06l9.11 0.12c290.31,0 371.72,-262.88 389.03,-338.44l-293.7 -156.33 -457.88 155.59zm362.43 366.32l-9.53 -0.09c-287.26,-5.51 -381.55,-367.91 -382.51,-371.63l-3.05 -12.04 492.76 -167.54 322.13 171.34 -2.01 9.95c-36.46,179.67 -165.5,370.01 -417.79,370.01z"></path> <path class="fil0" d="M10693.67 5227.07c0,0 89.31,356.08 369.71,361.35 280.4,5.18 386.19,-223.45 413.7,-359.14l-308 -163.73 -475.41 161.52z"></path> <path class="fil1" d="M10710.27 5235.73c18.61,61.08 115.29,334.62 353.44,339.06l9.08 0.12c290.23,0 371.63,-262.88 388.95,-338.44l-293.73 -156.33 -457.74 155.59zm362.4 366.32l-9.5 -0.09c-287.38,-5.51 -381.66,-367.91 -382.62,-371.63l-3.06 -12.04 492.76 -167.54 322.14 171.34 -2.01 9.95c-36.46,179.67 -165.41,370.01 -417.71,370.01z"></path> <path class="fil0" d="M11477.08 5227.07c0,0 89.31,356.08 369.8,361.35 280.31,5.18 386.1,-223.33 413.69,-359.14l-307.99 -163.73 -475.5 161.52z"></path> <path class="fil1" d="M11493.67 5235.73c18.7,61.08 115.41,334.62 353.42,339.06l9.11 0.12c290.34,0 371.59,-262.88 388.94,-338.44l-293.73 -156.33 -457.74 155.59zm362.41 366.32l-9.41 -0.09c-287.47,-5.51 -381.76,-367.91 -382.72,-371.63l-3.05 -12.04 492.73 -167.54 322.16 171.34 -2.01 9.95c-36.46,179.67 -165.41,370.01 -417.7,370.01z"></path> <path class="fil0" d="M12260.57 5227.07c0,0 89.22,356.08 369.71,361.35 280.31,5.18 386.1,-223.33 413.7,-359.14l-308 -163.73 -475.41 161.52z"></path> <path class="fil1" d="M12277.05 5235.73c18.73,61.08 115.44,334.62 353.56,339.06l9.08 0.12c290.26,0 371.51,-262.88 388.86,-338.44l-293.73 -156.33 -457.77 155.59zm362.55 366.32l-9.62 -0.09c-287.38,-5.51 -381.66,-367.91 -382.5,-371.63l-3.18 -12.04 492.73 -167.54 322.17 171.34 -2.01 9.95c-36.58,179.67 -165.41,370.01 -417.59,370.01z"></path> <path class="fil0" d="M13043.98 5227.07c0,0 89.31,356.08 369.71,361.35 261.49,4.82 371.12,-193.66 407.04,-330.61l0 -32.06 -301.34 -160.2 -475.41 161.52z"></path> <path class="fil1" d="M13060.45 5235.73c18.73,61.08 115.44,334.62 353.57,339.06l9.08 0.12c290.22,0 371.5,-262.88 388.85,-338.44l-293.73 -156.33 -457.77 155.59zm760.28 -25.26l0 94.13c-53.63,154.84 -179.58,297.45 -397.84,297.45l-9.5 -0.09c-287.38,-5.51 -381.67,-367.91 -382.51,-371.63l-3.17 -12.04 492.85 -167.54 300.17 159.72z"></path> <path class="fil1" d="M13820.73 5215.05l0 37.03c-4.28,-13.24 -6.35,-21.21 -6.47,-21.75l-3.06 -12.04 9.53 -3.24z"></path> <path class="fil0" d="M9491.72 5058.09c12.58,-32.09 21.3,-63.07 26.84,-90.3l-21.48 -11.45 -5.36 101.75z"></path> <path class="fil1" d="M9494.36 5008.09c3.95,-13.07 6.86,-24.36 8.86,-33.11l-6.95 -3.69 1.59 -29.87 36.01 19.18 -2.09 9.95c-8.66,42.72 -22.56,86.04 -42.13,127.27l4.71 -89.73z"></path> <path class="fil0" d="M9518.56 4965.57c0,0 89.32,356.08 369.72,361.35 280.4,5.19 386.22,-223.41 413.69,-359.13l-307.99 -163.82 -475.42 161.6z"></path> <path class="fil1" d="M9535.04 4974.23c18.73,61.09 115.44,334.75 353.45,339.18l9.19 0.09c290.14,0 371.51,-262.96 388.95,-338.52l-293.7 -156.21 -457.89 155.46zm362.43 366.36l-9.49 -0.12c-287.29,-5.4 -381.67,-367.92 -382.51,-371.63l-3.08 -12.05 492.84 -167.5 322.05 171.31 -2.1 9.95c-36.46,179.67 -165.41,370.04 -417.71,370.04z"></path> <path class="fil0" d="M10301.97 4965.57c0,0 89.31,356.08 369.71,361.35 280.4,5.19 386.22,-223.41 413.69,-359.13l-307.99 -163.82 -475.41 161.6z"></path> <path class="fil1" d="M10318.57 4974.23c18.6,61.09 115.32,334.75 353.32,339.18l9.2 0.09c290.14,0 371.51,-262.96 388.94,-338.52l-293.7 -156.21 -457.76 155.46zm362.31 366.36l-9.53 -0.12c-287.26,-5.4 -381.63,-367.92 -382.5,-371.63l-3.06 -12.05 492.76 -167.5 322.13 171.31 -2.09 9.95c-36.46,179.67 -165.41,370.04 -417.71,370.04z"></path> <path class="fil0" d="M11085.37 4965.57c0,0 89.32,356.08 369.72,361.35 280.4,5.19 386.19,-223.41 413.78,-359.13l-308.08 -163.82 -475.42 161.6z"></path> <path class="fil1" d="M11101.97 4974.23c18.58,61.09 115.29,334.75 353.33,339.18l9.19 0.09c290.23,0 371.63,-262.96 388.95,-338.52l-293.73 -156.21 -457.74 155.46zm362.4 366.36l-9.49 -0.12c-287.38,-5.4 -381.76,-367.92 -382.63,-371.63l-3.05 -12.05 492.72 -167.5 322.17 171.31 -2.01 9.95c-36.46,179.67 -165.41,370.04 -417.71,370.04z"></path> <path class="fil0" d="M11868.87 4965.57c0,0 89.31,356.08 369.71,361.35 280.31,5.19 386.1,-223.41 413.69,-359.13l-307.99 -163.82 -475.41 161.6z"></path> <path class="fil1" d="M11885.35 4974.23c18.72,61.09 115.43,334.75 353.44,339.18l9.11 0.09c290.34,0 371.6,-262.96 388.94,-338.52l-293.73 -156.21 -457.76 155.46zm362.43 366.36l-9.5 -0.12c-287.38,-5.4 -381.78,-367.92 -382.5,-371.63l-3.18 -12.05 492.73 -167.5 322.16 171.31 -2 9.95c-36.47,179.67 -165.41,370.04 -417.71,370.04z"></path> <path class="fil0" d="M12652.27 4965.57c0,0 89.32,356.08 369.72,361.35 280.31,5.19 386.1,-223.41 413.69,-359.13l-307.99 -163.82 -475.42 161.6z"></path> <path class="fil1" d="M12668.75 4974.23c18.73,61.09 115.44,334.75 353.45,339.18l9.19 0.09c290.23,0 371.51,-262.96 388.86,-338.52l-293.73 -156.21 -457.77 155.46zm362.43 366.36l-9.49 -0.12c-287.38,-5.4 -381.79,-367.92 -382.51,-371.63l-3.17 -12.05 492.72 -167.5 322.17 171.31 -2.01 9.95c-36.46,179.67 -165.41,370.04 -417.71,370.04z"></path> <path class="fil0" d="M13435.68 4965.57c0,0 89.31,356.08 369.71,361.35l15.34 0.03 0 -492.27 -385.05 130.89z"></path> <path class="fil1" d="M13452.16 4974.23c18.72,61.09 115.43,334.75 353.44,339.18l9.11 0.09 6.02 -0.09 0 27.09 -6.14 0.09 -9.5 -0.12c-287.41,-5.4 -381.66,-367.92 -382.53,-371.63l-3.15 -12.05 401.32 -136.41 0 28.68 -368.57 125.17z"></path> <path class="fil0" d="M9491.36 5065.25l5.21 0.21c280.4,5.18 386.22,-223.44 413.7,-359.17l-308 -163.82 -84.99 28.88 -25.92 493.9z"></path> <path class="fil1" d="M9492.08 5051.65l4.7 0.18 9.11 0.09c290.32,0 371.72,-262.84 389.04,-338.43l-293.82 -156.31 -84.58 28.76 1.53 -29.12 85.38 -29.03 322.14 171.31 -2.01 9.86c-36.46,179.76 -165.5,370.01 -417.8,370.01l-9.5 -0.09 -5.63 -0.21 1.44 -27.02z"></path> <path class="fil0" d="M9910.27 4704.08c0,0 89.4,356.08 369.71,361.38 280.4,5.18 386.22,-223.44 413.69,-359.17l-307.99 -163.82 -475.41 161.61z"></path> <path class="fil1" d="M9926.75 4712.77c18.72,61.09 115.43,334.59 353.44,339.06l9.11 0.09c290.31,0 371.72,-262.84 389.03,-338.43l-293.7 -156.31 -457.88 155.59zm362.43 366.2l-9.53 -0.09c-287.26,-5.39 -381.55,-367.82 -382.51,-371.51l-3.05 -12.07 492.76 -167.51 322.13 171.31 -2.01 9.86c-36.46,179.76 -165.5,370.01 -417.79,370.01z"></path> <path class="fil0" d="M10693.67 4704.08c0,0 89.31,356.08 369.71,361.38 280.4,5.18 386.19,-223.44 413.7,-359.17l-308 -163.82 -475.41 161.61z"></path> <path class="fil1" d="M10710.27 4712.77c18.61,61.09 115.29,334.59 353.44,339.06l9.08 0.09c290.23,0 371.63,-262.84 388.95,-338.43l-293.73 -156.31 -457.74 155.59zm362.4 366.2l-9.5 -0.09c-287.38,-5.39 -381.66,-367.82 -382.62,-371.51l-3.06 -12.07 492.76 -167.51 322.14 171.31 -2.01 9.86c-36.46,179.76 -165.41,370.01 -417.71,370.01z"></path> <path class="fil0" d="M11477.08 4704.08c0,0 89.31,356.08 369.8,361.38 280.31,5.18 386.1,-223.44 413.69,-359.17l-307.99 -163.82 -475.5 161.61z"></path> <path class="fil1" d="M11493.67 4712.77c18.7,61.09 115.41,334.59 353.42,339.06l9.11 0.09c290.34,0 371.59,-262.84 388.94,-338.43l-293.73 -156.31 -457.74 155.59zm362.41 366.2l-9.41 -0.09c-287.47,-5.39 -381.76,-367.82 -382.72,-371.51l-3.05 -12.07 492.73 -167.51 322.16 171.31 -2.01 9.86c-36.46,179.76 -165.41,370.01 -417.7,370.01z"></path> <path class="fil0" d="M12260.57 4704.08c0,0 89.22,356.08 369.71,361.38 280.31,5.18 386.1,-223.44 413.7,-359.17l-308 -163.82 -475.41 161.61z"></path> <path class="fil1" d="M12277.05 4712.77c18.73,61.09 115.44,334.59 353.56,339.06l9.08 0.09c290.26,0 371.51,-262.84 388.86,-338.43l-293.73 -156.31 -457.77 155.59zm362.55 366.2l-9.62 -0.09c-287.38,-5.39 -381.66,-367.82 -382.5,-371.51l-3.18 -12.07 492.73 -167.51 322.17 171.31 -2.01 9.86c-36.58,179.76 -165.41,370.01 -417.59,370.01z"></path> <path class="fil0" d="M13043.98 4704.08c0,0 89.31,356.08 369.71,361.38 261.49,4.82 371.12,-193.81 407.04,-330.67l0 -32.03 -301.34 -160.29 -475.41 161.61z"></path> <path class="fil1" d="M13060.45 4712.77c18.73,61.09 115.44,334.59 353.57,339.06l9.08 0.09c290.22,0 371.5,-262.84 388.85,-338.43l-293.73 -156.31 -457.77 155.59zm760.28 -25.29l0 94.08c-53.63,154.86 -179.58,297.41 -397.84,297.41l-9.5 -0.09c-287.38,-5.39 -381.67,-367.82 -382.51,-371.51l-3.17 -12.07 492.85 -167.51 300.17 159.69z"></path> <path class="fil1" d="M13820.73 4692.06l0 37.06c-4.28,-13.24 -6.35,-21.21 -6.47,-21.75l-3.06 -12.07 9.53 -3.24z"></path> <path class="fil1" d="M9521.59 4489.59l2.97 -56.89 9.31 4.94 -2.09 9.92c-2.85,13.99 -6.2,28.01 -10.19,42.03z"></path> <path class="fil0" d="M9523.21 4458.76c21.45,69.54 120.65,340.62 365.07,345.21 280.4,5.18 386.22,-223.45 413.69,-359.14l-307.99 -163.82 -469.84 159.72 -0.93 18.03z"></path> <path class="fil1" d="M9535.04 4451.15c18.73,61.21 115.44,334.75 353.45,339.18l9.19 0.21c290.14,0 371.51,-262.96 388.95,-338.52l-293.7 -156.33 -457.89 155.46zm-13.72 43.38l3.6 -68.37 470.31 -159.86 322.05 171.34 -2.1 9.92c-36.46,179.7 -165.41,369.95 -417.71,369.95l-9.49 -0.12c-222.79,-4.2 -329.54,-223.06 -366.66,-322.86z"></path> <path class="fil0" d="M10301.97 4442.61c0,0 89.31,356.08 369.71,361.36 280.4,5.18 386.22,-223.45 413.69,-359.14l-307.99 -163.82 -475.41 161.6z"></path> <path class="fil1" d="M10318.57 4451.15c18.6,61.21 115.32,334.75 353.32,339.18l9.2 0.21c290.14,0 371.51,-262.96 388.94,-338.52l-293.7 -156.33 -457.76 155.46zm362.31 366.36l-9.53 -0.12c-287.26,-5.39 -381.63,-367.83 -382.5,-371.51l-3.06 -12.05 492.76 -167.53 322.13 171.34 -2.09 9.92c-36.46,179.7 -165.41,369.95 -417.71,369.95z"></path> <path class="fil0" d="M11085.37 4442.61c0,0 89.32,356.08 369.72,361.36 280.4,5.18 386.19,-223.45 413.78,-359.14l-308.08 -163.82 -475.42 161.6z"></path> <path class="fil1" d="M11101.97 4451.15c18.58,61.21 115.29,334.84 353.33,339.18l9.19 0.21c290.23,0 371.63,-262.96 388.95,-338.52l-293.73 -156.33 -457.74 155.46zm362.4 366.36l-9.49 -0.12c-287.38,-5.39 -381.76,-367.83 -382.63,-371.51l-3.05 -12.05 492.72 -167.53 322.17 171.34 -2.01 9.92c-36.46,179.7 -165.41,369.95 -417.71,369.95z"></path> <path class="fil0" d="M11868.87 4442.61c0,0 89.31,356.08 369.71,361.36 280.31,5.18 386.1,-223.45 413.69,-359.14l-307.99 -163.82 -475.41 161.6z"></path> <path class="fil1" d="M11885.35 4451.15c18.72,61.21 115.43,334.84 353.44,339.18l9.11 0.21c290.34,0 371.6,-262.96 388.94,-338.52l-293.73 -156.33 -457.76 155.46zm362.43 366.36l-9.5 -0.12c-287.38,-5.39 -381.78,-367.83 -382.5,-371.51l-3.18 -12.05 492.73 -167.53 322.16 171.34 -2 9.92c-36.47,179.7 -165.41,369.95 -417.71,369.95z"></path> <path class="fil0" d="M12652.27 4442.61c0,0 89.32,356.08 369.72,361.36 280.31,5.18 386.1,-223.45 413.69,-359.14l-307.99 -163.82 -475.42 161.6z"></path> <path class="fil1" d="M12668.75 4451.15c18.73,61.21 115.44,334.84 353.45,339.18l9.19 0.21c290.23,0 371.51,-262.96 388.86,-338.52l-293.73 -156.33 -457.77 155.46zm362.43 366.36l-9.49 -0.12c-287.38,-5.39 -381.79,-367.83 -382.51,-371.51l-3.17 -12.05 492.72 -167.53 322.17 171.34 -2.01 9.92c-36.46,179.7 -165.41,369.95 -417.71,369.95z"></path> <path class="fil0" d="M13435.68 4442.61c0,0 89.31,356.08 369.71,361.36l15.34 0.03 0 -492.28 -385.05 130.89z"></path> <path class="fil1" d="M13452.16 4451.15c18.72,61.21 115.43,334.84 353.44,339.18l9.11 0.21 6.02 -0.09 0 26.97 -6.14 0.09 -9.5 -0.12c-287.41,-5.39 -381.66,-367.83 -382.53,-371.51l-3.15 -12.05 401.32 -136.4 0 28.55 -368.57 125.17z"></path> <path class="fil0" d="M9514.97 4615.48c266.65,-4.82 368.42,-226.23 395.3,-358.89l-10.76 -5.72 -365.4 0 0 0 -19.14 364.61z"></path> <path class="fil1" d="M9515.66 4602.06c282.32,-5.87 362.04,-263.71 379.27,-338.4l-24.06 -12.79 54.41 0 -1.71 8.36c-36.13,177.75 -162.63,365.57 -409.32,369.8l1.41 -26.97z"></path> <path class="fil0" d="M9910.27 4254.25c0,0 89.4,356.08 369.71,361.26 280.4,5.28 386.22,-223.23 413.69,-358.92l-10.75 -5.72 -762.71 0 -9.94 3.38z"></path> <path class="fil1" d="M9926.75 4263.03c18.72,60.97 115.43,334.63 353.44,339.06l9.11 0.09c290.31,0 371.6,-262.96 389.03,-338.52l-24.06 -12.79 54.41 0 -1.71 8.36c-36.55,179.79 -165.5,369.92 -417.79,369.92l-9.53 0c-287.26,-5.4 -381.55,-367.83 -382.51,-371.63l-1.7 -6.65 67.11 0 -35.8 12.16z"></path> <path class="fil0" d="M10693.67 4254.25c0,0 89.31,356.08 369.71,361.38 280.4,5.16 386.19,-223.35 413.7,-359.04l-10.76 -5.72 -762.7 0 -9.95 3.38z"></path> <path class="fil1" d="M10710.27 4263.03c18.61,60.97 115.29,334.63 353.44,339.06l9.08 0.09c290.23,0 371.51,-262.96 388.95,-338.52l-24.06 -12.79 54.41 0 -1.71 8.36c-36.55,179.79 -165.5,370.04 -417.8,370.04l-9.41 -0.12c-287.38,-5.4 -381.66,-367.83 -382.62,-371.63l-1.71 -6.65 67.2 0 -35.77 12.16z"></path> <path class="fil0" d="M11477.08 4254.25c0,0 89.31,356.08 369.8,361.38 280.31,5.16 386.1,-223.35 413.69,-359.04l-10.75 -5.72 -762.8 0 -9.94 3.38z"></path> <path class="fil1" d="M11493.67 4263.03c18.7,60.97 115.41,334.63 353.42,339.06l9.11 0.09c290.34,0 371.51,-262.96 388.94,-338.52l-24.06 -12.79 54.41 0 -1.71 8.36c-36.58,179.79 -165.5,370.04 -417.79,370.04l-9.32 -0.12c-287.47,-5.4 -381.76,-367.83 -382.72,-371.63l-1.7 -6.65 67.2 0 -35.78 12.16z"></path> <path class="fil0" d="M12260.57 4254.25c0,0 89.22,356.08 369.71,361.38 280.31,5.16 386.1,-223.35 413.7,-359.04l-10.76 -5.72 -762.7 0 -9.95 3.38z"></path> <path class="fil1" d="M12277.05 4263.03c18.73,60.97 115.44,334.63 353.56,339.06l9.08 0.09c290.26,0 371.42,-262.96 388.86,-338.52l-24.06 -12.79 54.41 0 -1.71 8.36c-36.58,179.79 -165.53,370.04 -417.71,370.04l-9.5 -0.12c-287.38,-5.4 -381.66,-367.83 -382.5,-371.63l-1.77 -6.65 67.14 0 -35.8 12.16z"></path> <path class="fil0" d="M13043.98 4254.25c0,0 89.31,356.08 369.71,361.38 261.49,4.8 371.12,-193.69 407.04,-330.55l0 -32.03 -4.1 -2.18 -762.71 0 -9.94 3.38z"></path> <path class="fil1" d="M13060.45 4263.03c18.73,60.97 115.44,334.63 353.57,339.06l9.08 0.09c290.22,0 371.41,-262.96 388.85,-338.52l-24.06 -12.79 32.84 0 0 80.98c-53.63,154.89 -179.58,297.42 -397.84,297.42l-9.5 -0.12c-287.38,-5.4 -381.67,-367.83 -382.51,-371.63l-1.76 -6.65 67.14 0 -35.81 12.16z"></path> <path class="fil1" d="M13812.55 4250.87l8.18 0 0 28.43c-4.28,-13.24 -6.35,-21.24 -6.47,-21.78l-1.71 -6.65z"></path> <polygon class="fil2" points="6253.15,7399.59 7332.11,7399.59 7332.11,4702.34 6253.15,4702.34 "></polygon> <path class="fil3" d="M7427.51 4837.16l-1269.99 0c-69.03,0 -124.94,-55.9 -124.94,-124.93l0 -266.89c0,-69.12 55.91,-125.15 124.94,-125.15l1269.99 0c69.03,0 125.05,56.03 125.05,125.15l0 266.89c0,69.03 -56.02,124.93 -125.05,124.93z"></path> <polygon class="fil3" points="6253.15,5382.32 7332.11,5382.32 7332.11,5281.18 6253.15,5281.18 "></polygon> <polygon class="fil3" points="6741.98,5331.69 6843.13,5331.69 6843.13,4693.95 6741.98,4693.95 "></polygon> <polygon class="fil3" points="6741.98,6421.92 6843.13,6421.92 6843.13,5823.34 6741.98,5823.34 "></polygon> <polygon class="fil3" points="6253.15,5916.07 7332.11,5916.07 7332.11,5815.01 6253.15,5815.01 "></polygon> <polygon class="fil3" points="6253.15,6449.93 7332.11,6449.93 7332.11,6348.78 6253.15,6348.78 "></polygon> <polygon class="fil3" points="6253.15,6917.85 7332.11,6917.85 7332.11,6816.68 6253.15,6816.68 "></polygon> <polygon class="fil4" points="13958.28,17643.99 5401.53,17643.99 5401.53,8306.8 9679.99,4153.66 13958.28,8463.01 "></polygon> <polygon class="fil3" points="5331.09,13053.78 13887.81,13053.78 13887.81,12409.72 5331.09,12409.72 "></polygon> <polygon class="fil3" points="11630.41,7854.8 12338.44,7854.8 12338.44,7483.92 11630.41,7483.92 "></polygon> <polygon class="fil3" points="5530.95,13744.39 6238.98,13744.39 6238.98,13373.51 5530.95,13373.51 "></polygon> <polygon class="fil3" points="5329.29,14192.75 5732.62,14192.75 5732.62,13821.87 5329.29,13821.87 "></polygon> <polygon class="fil3" points="13484.51,15461.69 13887.84,15461.69 13887.84,15090.93 13484.51,15090.93 "></polygon> <polygon class="fil3" points="12651.94,8361.2 13055.3,8361.2 13055.3,7990.2 12651.94,7990.2 "></polygon> <polygon class="fil3" points="8039.06,7376.97 8594.05,7376.97 8594.05,7006.09 8039.06,7006.09 "></polygon> <path class="fil5" d="M13887.84 8720.45l-4097.95 -3848.74c-50.76,-47.55 -115.65,-71.34 -180.43,-71.34 -64.89,0 -129.69,23.79 -180.33,71.34l-4098.04 3848.74 0 -680.13 4405.95 -3930.54 4150.8 4086.75 0 523.92z"></path> <path class="fil6" d="M9526.71 3608.25l-4887.08 4753.9c-76.4,74.19 -23.79,203.56 82.66,203.56l461.03 0c30.44,0 59.71,-11.72 81.7,-32.66l4262.62 -4056.43c45.87,-43.53 117.75,-43.53 163.53,0l4262.73 4056.43c21.97,20.94 51.27,32.66 81.8,32.66l460.94 0c106.54,0 159.06,-129.37 82.63,-203.56l-4887.05 -4753.9c-46.08,-44.83 -119.43,-44.83 -165.51,0z"></path> <path class="fil7" d="M14746.58 17655.44c272.58,-57.07 490.85,-311.68 505.44,-589.65 2.63,-48.42 -0.75,-98.3 -21.04,-142.28 -43.53,-94.5 -157.59,-139.62 -261.49,-133.81 -103.78,5.94 -200.29,52.44 -293.82,98.18 222.6,-289.17 389.78,-679.92 240.97,-1012.96 -39.73,-88.89 -114.99,-175.86 -212.12,-176.07 -102.53,-0.12 -177.67,93.11 -233.36,179.04 -142.16,219.19 -265.39,450.57 -367.92,690.71 -38.26,-251.46 -117.53,-525.21 -334.11,-658.59 -31.91,-19.66 -68.28,-36.05 -105.38,-31.7 -35.29,4.13 -65.85,26.42 -91.4,51.14 -187.83,181.5 -170.6,481.88 -139.86,741.25 -56.95,-172.72 -291.19,-237.19 -455.22,-158.88 -164.12,78.44 -259.79,256.73 -296.16,434.94 -29.06,142.7 -25.55,297.11 41.02,426.78 66.48,129.58 213.41,291.64 358.83,281.9l1665.62 0z"></path> <path class="fil7" d="M4897.95 17682.68c-222.6,-46.59 -400.81,-254.6 -412.73,-481.64 -2.22,-39.43 0.51,-80.33 17.11,-116.25 35.62,-77.06 128.74,-114.06 213.49,-109.17 84.79,4.85 163.74,42.9 240.05,80.2 -181.8,-236.21 -318.36,-555.32 -196.81,-827.48 32.44,-72.5 93.86,-143.54 173.35,-143.75 83.71,-0.09 145.01,76.01 190.55,146.3 116.06,178.92 216.79,367.91 300.59,564.09 31.1,-205.46 95.87,-428.91 272.82,-538 25.97,-15.93 55.7,-29.27 86.02,-25.79 28.97,3.38 53.8,21.57 74.72,41.76 153.36,148.28 139.19,393.59 114.06,605.41 46.61,-141.11 237.79,-193.63 371.92,-129.69 134.02,63.96 212.24,209.6 241.93,355.15 23.67,116.57 20.83,242.77 -33.49,348.56 -54.32,105.91 -174.4,238.24 -293.1,230.3l-1360.48 0z"></path> </g> </svg> 